<?xml version="1.0" encoding="utf-8" standalone="no"?>
<!DOCTYPE svg PUBLIC "-//W3C//DTD SVG 1.1//EN"
  "http://www.w3.org/Graphics/SVG/1.1/DTD/svg11.dtd">
<svg xmlns:xlink="http://www.w3.org/1999/xlink" width="460.8pt" height="345.6pt" viewBox="0 0 460.8 345.6" xmlns="http://www.w3.org/2000/svg" version="1.1">
 <metadata>
  <rdf:RDF xmlns:dc="http://purl.org/dc/elements/1.1/" xmlns:cc="http://creativecommons.org/ns#" xmlns:rdf="http://www.w3.org/1999/02/22-rdf-syntax-ns#">
   <cc:Work>
    <dc:type rdf:resource="http://purl.org/dc/dcmitype/StillImage"/>
    <dc:date>2023-08-16T16:40:44.578278</dc:date>
    <dc:format>image/svg+xml</dc:format>
    <dc:creator>
     <cc:Agent>
      <dc:title>Matplotlib v3.7.1, https://matplotlib.org/</dc:title>
     </cc:Agent>
    </dc:creator>
   </cc:Work>
  </rdf:RDF>
 </metadata>
 <defs>
  <style type="text/css">*{stroke-linejoin: round; stroke-linecap: butt}</style>
 </defs>
 <g id="figure_1">
  <g id="patch_1">
   <path d="M 0 345.6 
L 460.8 345.6 
L 460.8 0 
L 0 0 
z
" style="fill: #ffffff"/>
  </g>
  <g id="axes_1">
   <g id="patch_2">
    <path d="M 65.198298 180.859915 
C 66.877541 180.859915 68.488233 180.192744 69.675638 179.00534 
C 70.863042 177.817936 71.530213 176.207243 71.530213 174.528 
C 71.530213 172.848757 70.863042 171.238064 69.675638 170.05066 
C 68.488233 168.863256 66.877541 168.196085 65.198298 168.196085 
C 63.519054 168.196085 61.908362 168.863256 60.720958 170.05066 
C 59.533553 171.238064 58.866383 172.848757 58.866383 174.528 
C 58.866383 176.207243 59.533553 177.817936 60.720958 179.00534 
C 61.908362 180.192744 63.519054 180.859915 65.198298 180.859915 
z
" clip-path="url(#pcd81bc04dc)" style="fill: #313695; stroke: #ffffff; stroke-linejoin: miter"/>
   </g>
   <g id="patch_3">
    <path d="M 77.862128 180.859915 
C 79.541371 180.859915 81.152063 180.192744 82.339468 179.00534 
C 83.526872 177.817936 84.194043 176.207243 84.194043 174.528 
C 84.194043 172.848757 83.526872 171.238064 82.339468 170.05066 
C 81.152063 168.863256 79.541371 168.196085 77.862128 168.196085 
C 76.182884 168.196085 74.572192 168.863256 73.384788 170.05066 
C 72.197383 171.238064 71.530213 172.848757 71.530213 174.528 
C 71.530213 176.207243 72.197383 177.817936 73.384788 179.00534 
C 74.572192 180.192744 76.182884 180.859915 77.862128 180.859915 
z
" clip-path="url(#pcd81bc04dc)" style="fill: #384ca0; stroke: #ffffff; stroke-linejoin: miter"/>
   </g>
   <g id="patch_4">
    <path d="M 90.525957 180.859915 
C 92.205201 180.859915 93.815893 180.192744 95.003297 179.00534 
C 96.190702 177.817936 96.857872 176.207243 96.857872 174.528 
C 96.857872 172.848757 96.190702 171.238064 95.003297 170.05066 
C 93.815893 168.863256 92.205201 168.196085 90.525957 168.196085 
C 88.846714 168.196085 87.236022 168.863256 86.048617 170.05066 
C 84.861213 171.238064 84.194043 172.848757 84.194043 174.528 
C 84.194043 176.207243 84.861213 177.817936 86.048617 179.00534 
C 87.236022 180.192744 88.846714 180.859915 90.525957 180.859915 
z
" clip-path="url(#pcd81bc04dc)" style="fill: #4065ac; stroke: #ffffff; stroke-linejoin: miter"/>
   </g>
   <g id="patch_5">
    <path d="M 103.189787 180.859915 
C 104.869031 180.859915 106.479723 180.192744 107.667127 179.00534 
C 108.854532 177.817936 109.521702 176.207243 109.521702 174.528 
C 109.521702 172.848757 108.854532 171.238064 107.667127 170.05066 
C 106.479723 168.863256 104.869031 168.196085 103.189787 168.196085 
C 101.510544 168.196085 99.899852 168.863256 98.712447 170.05066 
C 97.525043 171.238064 96.857872 172.848757 96.857872 174.528 
C 96.857872 176.207243 97.525043 177.817936 98.712447 179.00534 
C 99.899852 180.192744 101.510544 180.859915 103.189787 180.859915 
z
" clip-path="url(#pcd81bc04dc)" style="fill: #4b7db8; stroke: #ffffff; stroke-linejoin: miter"/>
   </g>
   <g id="patch_6">
    <path d="M 115.853617 180.859915 
C 117.53286 180.859915 119.143553 180.192744 120.330957 179.00534 
C 121.518361 177.817936 122.185532 176.207243 122.185532 174.528 
C 122.185532 172.848757 121.518361 171.238064 120.330957 170.05066 
C 119.143553 168.863256 117.53286 168.196085 115.853617 168.196085 
C 114.174374 168.196085 112.563681 168.863256 111.376277 170.05066 
C 110.188873 171.238064 109.521702 172.848757 109.521702 174.528 
C 109.521702 176.207243 110.188873 177.817936 111.376277 179.00534 
C 112.563681 180.192744 114.174374 180.859915 115.853617 180.859915 
z
" clip-path="url(#pcd81bc04dc)" style="fill: #5e93c3; stroke: #ffffff; stroke-linejoin: miter"/>
   </g>
   <g id="patch_7">
    <path d="M 128.517447 180.859915 
C 130.19669 180.859915 131.807382 180.192744 132.994787 179.00534 
C 134.182191 177.817936 134.849362 176.207243 134.849362 174.528 
C 134.849362 172.848757 134.182191 171.238064 132.994787 170.05066 
C 131.807382 168.863256 130.19669 168.196085 128.517447 168.196085 
C 126.838203 168.196085 125.227511 168.863256 124.040107 170.05066 
C 122.852702 171.238064 122.185532 172.848757 122.185532 174.528 
C 122.185532 176.207243 122.852702 177.817936 124.040107 179.00534 
C 125.227511 180.192744 126.838203 180.859915 128.517447 180.859915 
z
" clip-path="url(#pcd81bc04dc)" style="fill: #70a9cf; stroke: #ffffff; stroke-linejoin: miter"/>
   </g>
   <g id="patch_8">
    <path d="M 141.181277 180.859915 
C 142.86052 180.859915 144.471212 180.192744 145.658617 179.00534 
C 146.846021 177.817936 147.513191 176.207243 147.513191 174.528 
C 147.513191 172.848757 146.846021 171.238064 145.658617 170.05066 
C 144.471212 168.863256 142.86052 168.196085 141.181277 168.196085 
C 139.502033 168.196085 137.891341 168.863256 136.703937 170.05066 
C 135.516532 171.238064 134.849362 172.848757 134.849362 174.528 
C 134.849362 176.207243 135.516532 177.817936 136.703937 179.00534 
C 137.891341 180.192744 139.502033 180.859915 141.181277 180.859915 
z
" clip-path="url(#pcd81bc04dc)" style="fill: #85bbd9; stroke: #ffffff; stroke-linejoin: miter"/>
   </g>
   <g id="patch_9">
    <path d="M 153.845106 180.859915 
C 155.52435 180.859915 157.135042 180.192744 158.322446 179.00534 
C 159.509851 177.817936 160.177021 176.207243 160.177021 174.528 
C 160.177021 172.848757 159.509851 171.238064 158.322446 170.05066 
C 157.135042 168.863256 155.52435 168.196085 153.845106 168.196085 
C 152.165863 168.196085 150.555171 168.863256 149.367766 170.05066 
C 148.180362 171.238064 147.513191 172.848757 147.513191 174.528 
C 147.513191 176.207243 148.180362 177.817936 149.367766 179.00534 
C 150.555171 180.192744 152.165863 180.859915 153.845106 180.859915 
z
" clip-path="url(#pcd81bc04dc)" style="fill: #99cae1; stroke: #ffffff; stroke-linejoin: miter"/>
   </g>
   <g id="patch_10">
    <path d="M 166.508936 180.859915 
C 168.18818 180.859915 169.798872 180.192744 170.986276 179.00534 
C 172.173681 177.817936 172.840851 176.207243 172.840851 174.528 
C 172.840851 172.848757 172.173681 171.238064 170.986276 170.05066 
C 169.798872 168.863256 168.18818 168.196085 166.508936 168.196085 
C 164.829693 168.196085 163.219001 168.863256 162.031596 170.05066 
C 160.844192 171.238064 160.177021 172.848757 160.177021 174.528 
C 160.177021 176.207243 160.844192 177.817936 162.031596 179.00534 
C 163.219001 180.192744 164.829693 180.859915 166.508936 180.859915 
z
" clip-path="url(#pcd81bc04dc)" style="fill: #aedbea; stroke: #ffffff; stroke-linejoin: miter"/>
   </g>
   <g id="patch_11">
    <path d="M 179.172766 180.859915 
C 180.852009 180.859915 182.462701 180.192744 183.650106 179.00534 
C 184.83751 177.817936 185.504681 176.207243 185.504681 174.528 
C 185.504681 172.848757 184.83751 171.238064 183.650106 170.05066 
C 182.462701 168.863256 180.852009 168.196085 179.172766 168.196085 
C 177.493522 168.196085 175.88283 168.863256 174.695426 170.05066 
C 173.508022 171.238064 172.840851 172.848757 172.840851 174.528 
C 172.840851 176.207243 173.508022 177.817936 174.695426 179.00534 
C 175.88283 180.192744 177.493522 180.859915 179.172766 180.859915 
z
" clip-path="url(#pcd81bc04dc)" style="fill: #c3e5f0; stroke: #ffffff; stroke-linejoin: miter"/>
   </g>
   <g id="patch_12">
    <path d="M 191.836596 180.859915 
C 193.515839 180.859915 195.126531 180.192744 196.313936 179.00534 
C 197.50134 177.817936 198.168511 176.207243 198.168511 174.528 
C 198.168511 172.848757 197.50134 171.238064 196.313936 170.05066 
C 195.126531 168.863256 193.515839 168.196085 191.836596 168.196085 
C 190.157352 168.196085 188.54666 168.863256 187.359256 170.05066 
C 186.171851 171.238064 185.504681 172.848757 185.504681 174.528 
C 185.504681 176.207243 186.171851 177.817936 187.359256 179.00534 
C 188.54666 180.192744 190.157352 180.859915 191.836596 180.859915 
z
" clip-path="url(#pcd81bc04dc)" style="fill: #d8eff6; stroke: #ffffff; stroke-linejoin: miter"/>
   </g>
   <g id="patch_13">
    <path d="M 204.500426 180.859915 
C 206.179669 180.859915 207.790361 180.192744 208.977765 179.00534 
C 210.16517 177.817936 210.83234 176.207243 210.83234 174.528 
C 210.83234 172.848757 210.16517 171.238064 208.977765 170.05066 
C 207.790361 168.863256 206.179669 168.196085 204.500426 168.196085 
C 202.821182 168.196085 201.21049 168.863256 200.023086 170.05066 
C 198.835681 171.238064 198.168511 172.848757 198.168511 174.528 
C 198.168511 176.207243 198.835681 177.817936 200.023086 179.00534 
C 201.21049 180.192744 202.821182 180.859915 204.500426 180.859915 
z
" clip-path="url(#pcd81bc04dc)" style="fill: #e7f6eb; stroke: #ffffff; stroke-linejoin: miter"/>
   </g>
   <g id="patch_14">
    <path d="M 217.164255 180.859915 
C 218.843499 180.859915 220.454191 180.192744 221.641595 179.00534 
C 222.829 177.817936 223.49617 176.207243 223.49617 174.528 
C 223.49617 172.848757 222.829 171.238064 221.641595 170.05066 
C 220.454191 168.863256 218.843499 168.196085 217.164255 168.196085 
C 215.485012 168.196085 213.87432 168.863256 212.686915 170.05066 
C 211.499511 171.238064 210.83234 172.848757 210.83234 174.528 
C 210.83234 176.207243 211.499511 177.817936 212.686915 179.00534 
C 213.87432 180.192744 215.485012 180.859915 217.164255 180.859915 
z
" clip-path="url(#pcd81bc04dc)" style="fill: #f3fbd4; stroke: #ffffff; stroke-linejoin: miter"/>
   </g>
   <g id="patch_15">
    <path d="M 229.828085 180.859915 
C 231.507329 180.859915 233.118021 180.192744 234.305425 179.00534 
C 235.49283 177.817936 236.16 176.207243 236.16 174.528 
C 236.16 172.848757 235.49283 171.238064 234.305425 170.05066 
C 233.118021 168.863256 231.507329 168.196085 229.828085 168.196085 
C 228.148842 168.196085 226.53815 168.863256 225.350745 170.05066 
C 224.163341 171.238064 223.49617 172.848757 223.49617 174.528 
C 223.49617 176.207243 224.163341 177.817936 225.350745 179.00534 
C 226.53815 180.192744 228.148842 180.859915 229.828085 180.859915 
z
" clip-path="url(#pcd81bc04dc)" style="fill: #fffebe; stroke: #ffffff; stroke-linejoin: miter"/>
   </g>
   <g id="patch_16">
    <path d="M 242.491915 180.859915 
C 244.171158 180.859915 245.78185 180.192744 246.969255 179.00534 
C 248.156659 177.817936 248.82383 176.207243 248.82383 174.528 
C 248.82383 172.848757 248.156659 171.238064 246.969255 170.05066 
C 245.78185 168.863256 244.171158 168.196085 242.491915 168.196085 
C 240.812671 168.196085 239.201979 168.863256 238.014575 170.05066 
C 236.82717 171.238064 236.16 172.848757 236.16 174.528 
C 236.16 176.207243 236.82717 177.817936 238.014575 179.00534 
C 239.201979 180.192744 240.812671 180.859915 242.491915 180.859915 
z
" clip-path="url(#pcd81bc04dc)" style="fill: #fff3ad; stroke: #ffffff; stroke-linejoin: miter"/>
   </g>
   <g id="patch_17">
    <path d="M 255.155745 180.859915 
C 256.834988 180.859915 258.44568 180.192744 259.633085 179.00534 
C 260.820489 177.817936 261.48766 176.207243 261.48766 174.528 
C 261.48766 172.848757 260.820489 171.238064 259.633085 170.05066 
C 258.44568 168.863256 256.834988 168.196085 255.155745 168.196085 
C 253.476501 168.196085 251.865809 168.863256 250.678405 170.05066 
C 249.491 171.238064 248.82383 172.848757 248.82383 174.528 
C 248.82383 176.207243 249.491 177.817936 250.678405 179.00534 
C 251.865809 180.192744 253.476501 180.859915 255.155745 180.859915 
z
" clip-path="url(#pcd81bc04dc)" style="fill: #fee79b; stroke: #ffffff; stroke-linejoin: miter"/>
   </g>
   <g id="patch_18">
    <path d="M 267.819574 180.859915 
C 269.498818 180.859915 271.10951 180.192744 272.296914 179.00534 
C 273.484319 177.817936 274.151489 176.207243 274.151489 174.528 
C 274.151489 172.848757 273.484319 171.238064 272.296914 170.05066 
C 271.10951 168.863256 269.498818 168.196085 267.819574 168.196085 
C 266.140331 168.196085 264.529639 168.863256 263.342235 170.05066 
C 262.15483 171.238064 261.48766 172.848757 261.48766 174.528 
C 261.48766 176.207243 262.15483 177.817936 263.342235 179.00534 
C 264.529639 180.192744 266.140331 180.859915 267.819574 180.859915 
z
" clip-path="url(#pcd81bc04dc)" style="fill: #fed889; stroke: #ffffff; stroke-linejoin: miter"/>
   </g>
   <g id="patch_19">
    <path d="M 280.483404 180.859915 
C 282.162648 180.859915 283.77334 180.192744 284.960744 179.00534 
C 286.148149 177.817936 286.815319 176.207243 286.815319 174.528 
C 286.815319 172.848757 286.148149 171.238064 284.960744 170.05066 
C 283.77334 168.863256 282.162648 168.196085 280.483404 168.196085 
C 278.804161 168.196085 277.193469 168.863256 276.006064 170.05066 
C 274.81866 171.238064 274.151489 172.848757 274.151489 174.528 
C 274.151489 176.207243 274.81866 177.817936 276.006064 179.00534 
C 277.193469 180.192744 278.804161 180.859915 280.483404 180.859915 
z
" clip-path="url(#pcd81bc04dc)" style="fill: #fdc576; stroke: #ffffff; stroke-linejoin: miter"/>
   </g>
   <g id="patch_20">
    <path d="M 293.147234 180.859915 
C 294.826478 180.859915 296.43717 180.192744 297.624574 179.00534 
C 298.811978 177.817936 299.479149 176.207243 299.479149 174.528 
C 299.479149 172.848757 298.811978 171.238064 297.624574 170.05066 
C 296.43717 168.863256 294.826478 168.196085 293.147234 168.196085 
C 291.467991 168.196085 289.857299 168.863256 288.669894 170.05066 
C 287.48249 171.238064 286.815319 172.848757 286.815319 174.528 
C 286.815319 176.207243 287.48249 177.817936 288.669894 179.00534 
C 289.857299 180.192744 291.467991 180.859915 293.147234 180.859915 
z
" clip-path="url(#pcd81bc04dc)" style="fill: #fdb164; stroke: #ffffff; stroke-linejoin: miter"/>
   </g>
   <g id="patch_21">
    <path d="M 305.811064 180.859915 
C 307.490307 180.859915 309.100999 180.192744 310.288404 179.00534 
C 311.475808 177.817936 312.142979 176.207243 312.142979 174.528 
C 312.142979 172.848757 311.475808 171.238064 310.288404 170.05066 
C 309.100999 168.863256 307.490307 168.196085 305.811064 168.196085 
C 304.13182 168.196085 302.521128 168.863256 301.333724 170.05066 
C 300.146319 171.238064 299.479149 172.848757 299.479149 174.528 
C 299.479149 176.207243 300.146319 177.817936 301.333724 179.00534 
C 302.521128 180.192744 304.13182 180.859915 305.811064 180.859915 
z
" clip-path="url(#pcd81bc04dc)" style="fill: #fa9857; stroke: #ffffff; stroke-linejoin: miter"/>
   </g>
   <g id="patch_22">
    <path d="M 318.474894 180.859915 
C 320.154137 180.859915 321.764829 180.192744 322.952234 179.00534 
C 324.139638 177.817936 324.806809 176.207243 324.806809 174.528 
C 324.806809 172.848757 324.139638 171.238064 322.952234 170.05066 
C 321.764829 168.863256 320.154137 168.196085 318.474894 168.196085 
C 316.79565 168.196085 315.184958 168.863256 313.997554 170.05066 
C 312.810149 171.238064 312.142979 172.848757 312.142979 174.528 
C 312.142979 176.207243 312.810149 177.817936 313.997554 179.00534 
C 315.184958 180.192744 316.79565 180.859915 318.474894 180.859915 
z
" clip-path="url(#pcd81bc04dc)" style="fill: #f7814c; stroke: #ffffff; stroke-linejoin: miter"/>
   </g>
   <g id="patch_23">
    <path d="M 331.138723 180.859915 
C 332.817967 180.859915 334.428659 180.192744 335.616063 179.00534 
C 336.803468 177.817936 337.470638 176.207243 337.470638 174.528 
C 337.470638 172.848757 336.803468 171.238064 335.616063 170.05066 
C 334.428659 168.863256 332.817967 168.196085 331.138723 168.196085 
C 329.45948 168.196085 327.848788 168.863256 326.661383 170.05066 
C 325.473979 171.238064 324.806809 172.848757 324.806809 174.528 
C 324.806809 176.207243 325.473979 177.817936 326.661383 179.00534 
C 327.848788 180.192744 329.45948 180.859915 331.138723 180.859915 
z
" clip-path="url(#pcd81bc04dc)" style="fill: #f26841; stroke: #ffffff; stroke-linejoin: miter"/>
   </g>
   <g id="patch_24">
    <path d="M 343.802553 180.859915 
C 345.481797 180.859915 347.092489 180.192744 348.279893 179.00534 
C 349.467298 177.817936 350.134468 176.207243 350.134468 174.528 
C 350.134468 172.848757 349.467298 171.238064 348.279893 170.05066 
C 347.092489 168.863256 345.481797 168.196085 343.802553 168.196085 
C 342.12331 168.196085 340.512618 168.863256 339.325213 170.05066 
C 338.137809 171.238064 337.470638 172.848757 337.470638 174.528 
C 337.470638 176.207243 338.137809 177.817936 339.325213 179.00534 
C 340.512618 180.192744 342.12331 180.859915 343.802553 180.859915 
z
" clip-path="url(#pcd81bc04dc)" style="fill: #e65036; stroke: #ffffff; stroke-linejoin: miter"/>
   </g>
   <g id="patch_25">
    <path d="M 356.466383 180.859915 
C 358.145626 180.859915 359.756319 180.192744 360.943723 179.00534 
C 362.131127 177.817936 362.798298 176.207243 362.798298 174.528 
C 362.798298 172.848757 362.131127 171.238064 360.943723 170.05066 
C 359.756319 168.863256 358.145626 168.196085 356.466383 168.196085 
C 354.78714 168.196085 353.176447 168.863256 351.989043 170.05066 
C 350.801639 171.238064 350.134468 172.848757 350.134468 174.528 
C 350.134468 176.207243 350.801639 177.817936 351.989043 179.00534 
C 353.176447 180.192744 354.78714 180.859915 356.466383 180.859915 
z
" clip-path="url(#pcd81bc04dc)" style="fill: #db382b; stroke: #ffffff; stroke-linejoin: miter"/>
   </g>
   <g id="patch_26">
    <path d="M 369.130213 180.859915 
C 370.809456 180.859915 372.420148 180.192744 373.607553 179.00534 
C 374.794957 177.817936 375.462128 176.207243 375.462128 174.528 
C 375.462128 172.848757 374.794957 171.238064 373.607553 170.05066 
C 372.420148 168.863256 370.809456 168.196085 369.130213 168.196085 
C 367.450969 168.196085 365.840277 168.863256 364.652873 170.05066 
C 363.465468 171.238064 362.798298 172.848757 362.798298 174.528 
C 362.798298 176.207243 363.465468 177.817936 364.652873 179.00534 
C 365.840277 180.192744 367.450969 180.859915 369.130213 180.859915 
z
" clip-path="url(#pcd81bc04dc)" style="fill: #ca2427; stroke: #ffffff; stroke-linejoin: miter"/>
   </g>
   <g id="patch_27">
    <path d="M 381.794043 180.859915 
C 383.473286 180.859915 385.083978 180.192744 386.271383 179.00534 
C 387.458787 177.817936 388.125957 176.207243 388.125957 174.528 
C 388.125957 172.848757 387.458787 171.238064 386.271383 170.05066 
C 385.083978 168.863256 383.473286 168.196085 381.794043 168.196085 
C 380.114799 168.196085 378.504107 168.863256 377.316703 170.05066 
C 376.129298 171.238064 375.462128 172.848757 375.462128 174.528 
C 375.462128 176.207243 376.129298 177.817936 377.316703 179.00534 
C 378.504107 180.192744 380.114799 180.859915 381.794043 180.859915 
z
" clip-path="url(#pcd81bc04dc)" style="fill: #b71126; stroke: #ffffff; stroke-linejoin: miter"/>
   </g>
   <g id="patch_28">
    <path d="M 394.457872 180.859915 
C 396.137116 180.859915 397.747808 180.192744 398.935212 179.00534 
C 400.122617 177.817936 400.789787 176.207243 400.789787 174.528 
C 400.789787 172.848757 400.122617 171.238064 398.935212 170.05066 
C 397.747808 168.863256 396.137116 168.196085 394.457872 168.196085 
C 392.778629 168.196085 391.167937 168.863256 389.980532 170.05066 
C 388.793128 171.238064 388.125957 172.848757 388.125957 174.528 
C 388.125957 176.207243 388.793128 177.817936 389.980532 179.00534 
C 391.167937 180.192744 392.778629 180.859915 394.457872 180.859915 
z
" clip-path="url(#pcd81bc04dc)" style="fill: #a50026; stroke: #ffffff; stroke-linejoin: miter"/>
   </g>
   <g id="text_1">
    <!-- -13 -->
    <g transform="translate(57.031892 177.287375) scale(0.1 -0.1)">
     <defs>
      <path id="DejaVuSans-2d" d="M 313 2009 
L 1997 2009 
L 1997 1497 
L 313 1497 
L 313 2009 
z
" transform="scale(0.015625)"/>
      <path id="DejaVuSans-31" d="M 794 531 
L 1825 531 
L 1825 4091 
L 703 3866 
L 703 4441 
L 1819 4666 
L 2450 4666 
L 2450 531 
L 3481 531 
L 3481 0 
L 794 0 
L 794 531 
z
" transform="scale(0.015625)"/>
      <path id="DejaVuSans-33" d="M 2597 2516 
Q 3050 2419 3304 2112 
Q 3559 1806 3559 1356 
Q 3559 666 3084 287 
Q 2609 -91 1734 -91 
Q 1441 -91 1130 -33 
Q 819 25 488 141 
L 488 750 
Q 750 597 1062 519 
Q 1375 441 1716 441 
Q 2309 441 2620 675 
Q 2931 909 2931 1356 
Q 2931 1769 2642 2001 
Q 2353 2234 1838 2234 
L 1294 2234 
L 1294 2753 
L 1863 2753 
Q 2328 2753 2575 2939 
Q 2822 3125 2822 3475 
Q 2822 3834 2567 4026 
Q 2313 4219 1838 4219 
Q 1578 4219 1281 4162 
Q 984 4106 628 3988 
L 628 4550 
Q 988 4650 1302 4700 
Q 1616 4750 1894 4750 
Q 2613 4750 3031 4423 
Q 3450 4097 3450 3541 
Q 3450 3153 3228 2886 
Q 3006 2619 2597 2516 
z
" transform="scale(0.015625)"/>
     </defs>
     <use xlink:href="#DejaVuSans-2d"/>
     <use xlink:href="#DejaVuSans-31" x="36.083984"/>
     <use xlink:href="#DejaVuSans-33" x="99.707031"/>
    </g>
   </g>
   <g id="text_2">
    <!-- -12 -->
    <g transform="translate(69.695721 177.287375) scale(0.1 -0.1)">
     <defs>
      <path id="DejaVuSans-32" d="M 1228 531 
L 3431 531 
L 3431 0 
L 469 0 
L 469 531 
Q 828 903 1448 1529 
Q 2069 2156 2228 2338 
Q 2531 2678 2651 2914 
Q 2772 3150 2772 3378 
Q 2772 3750 2511 3984 
Q 2250 4219 1831 4219 
Q 1534 4219 1204 4116 
Q 875 4013 500 3803 
L 500 4441 
Q 881 4594 1212 4672 
Q 1544 4750 1819 4750 
Q 2544 4750 2975 4387 
Q 3406 4025 3406 3419 
Q 3406 3131 3298 2873 
Q 3191 2616 2906 2266 
Q 2828 2175 2409 1742 
Q 1991 1309 1228 531 
z
" transform="scale(0.015625)"/>
     </defs>
     <use xlink:href="#DejaVuSans-2d"/>
     <use xlink:href="#DejaVuSans-31" x="36.083984"/>
     <use xlink:href="#DejaVuSans-32" x="99.707031"/>
    </g>
   </g>
   <g id="text_3">
    <!-- -11 -->
    <g transform="translate(82.359551 177.287375) scale(0.1 -0.1)">
     <use xlink:href="#DejaVuSans-2d"/>
     <use xlink:href="#DejaVuSans-31" x="36.083984"/>
     <use xlink:href="#DejaVuSans-31" x="99.707031"/>
    </g>
   </g>
   <g id="text_4">
    <!-- -10 -->
    <g transform="translate(95.023381 177.287375) scale(0.1 -0.1)">
     <defs>
      <path id="DejaVuSans-30" d="M 2034 4250 
Q 1547 4250 1301 3770 
Q 1056 3291 1056 2328 
Q 1056 1369 1301 889 
Q 1547 409 2034 409 
Q 2525 409 2770 889 
Q 3016 1369 3016 2328 
Q 3016 3291 2770 3770 
Q 2525 4250 2034 4250 
z
M 2034 4750 
Q 2819 4750 3233 4129 
Q 3647 3509 3647 2328 
Q 3647 1150 3233 529 
Q 2819 -91 2034 -91 
Q 1250 -91 836 529 
Q 422 1150 422 2328 
Q 422 3509 836 4129 
Q 1250 4750 2034 4750 
z
" transform="scale(0.015625)"/>
     </defs>
     <use xlink:href="#DejaVuSans-2d"/>
     <use xlink:href="#DejaVuSans-31" x="36.083984"/>
     <use xlink:href="#DejaVuSans-30" x="99.707031"/>
    </g>
   </g>
   <g id="text_5">
    <!-- -9 -->
    <g transform="translate(110.868461 177.287375) scale(0.1 -0.1)">
     <defs>
      <path id="DejaVuSans-39" d="M 703 97 
L 703 672 
Q 941 559 1184 500 
Q 1428 441 1663 441 
Q 2288 441 2617 861 
Q 2947 1281 2994 2138 
Q 2813 1869 2534 1725 
Q 2256 1581 1919 1581 
Q 1219 1581 811 2004 
Q 403 2428 403 3163 
Q 403 3881 828 4315 
Q 1253 4750 1959 4750 
Q 2769 4750 3195 4129 
Q 3622 3509 3622 2328 
Q 3622 1225 3098 567 
Q 2575 -91 1691 -91 
Q 1453 -91 1209 -44 
Q 966 3 703 97 
z
M 1959 2075 
Q 2384 2075 2632 2365 
Q 2881 2656 2881 3163 
Q 2881 3666 2632 3958 
Q 2384 4250 1959 4250 
Q 1534 4250 1286 3958 
Q 1038 3666 1038 3163 
Q 1038 2656 1286 2365 
Q 1534 2075 1959 2075 
z
" transform="scale(0.015625)"/>
     </defs>
     <use xlink:href="#DejaVuSans-2d"/>
     <use xlink:href="#DejaVuSans-39" x="36.083984"/>
    </g>
   </g>
   <g id="text_6">
    <!-- -8 -->
    <g transform="translate(123.532291 177.287375) scale(0.1 -0.1)">
     <defs>
      <path id="DejaVuSans-38" d="M 2034 2216 
Q 1584 2216 1326 1975 
Q 1069 1734 1069 1313 
Q 1069 891 1326 650 
Q 1584 409 2034 409 
Q 2484 409 2743 651 
Q 3003 894 3003 1313 
Q 3003 1734 2745 1975 
Q 2488 2216 2034 2216 
z
M 1403 2484 
Q 997 2584 770 2862 
Q 544 3141 544 3541 
Q 544 4100 942 4425 
Q 1341 4750 2034 4750 
Q 2731 4750 3128 4425 
Q 3525 4100 3525 3541 
Q 3525 3141 3298 2862 
Q 3072 2584 2669 2484 
Q 3125 2378 3379 2068 
Q 3634 1759 3634 1313 
Q 3634 634 3220 271 
Q 2806 -91 2034 -91 
Q 1263 -91 848 271 
Q 434 634 434 1313 
Q 434 1759 690 2068 
Q 947 2378 1403 2484 
z
M 1172 3481 
Q 1172 3119 1398 2916 
Q 1625 2713 2034 2713 
Q 2441 2713 2670 2916 
Q 2900 3119 2900 3481 
Q 2900 3844 2670 4047 
Q 2441 4250 2034 4250 
Q 1625 4250 1398 4047 
Q 1172 3844 1172 3481 
z
" transform="scale(0.015625)"/>
     </defs>
     <use xlink:href="#DejaVuSans-2d"/>
     <use xlink:href="#DejaVuSans-38" x="36.083984"/>
    </g>
   </g>
   <g id="text_7">
    <!-- -7 -->
    <g transform="translate(136.19612 177.287375) scale(0.1 -0.1)">
     <defs>
      <path id="DejaVuSans-37" d="M 525 4666 
L 3525 4666 
L 3525 4397 
L 1831 0 
L 1172 0 
L 2766 4134 
L 525 4134 
L 525 4666 
z
" transform="scale(0.015625)"/>
     </defs>
     <use xlink:href="#DejaVuSans-2d"/>
     <use xlink:href="#DejaVuSans-37" x="36.083984"/>
    </g>
   </g>
   <g id="text_8">
    <!-- -6 -->
    <g transform="translate(148.85995 177.287375) scale(0.1 -0.1)">
     <defs>
      <path id="DejaVuSans-36" d="M 2113 2584 
Q 1688 2584 1439 2293 
Q 1191 2003 1191 1497 
Q 1191 994 1439 701 
Q 1688 409 2113 409 
Q 2538 409 2786 701 
Q 3034 994 3034 1497 
Q 3034 2003 2786 2293 
Q 2538 2584 2113 2584 
z
M 3366 4563 
L 3366 3988 
Q 3128 4100 2886 4159 
Q 2644 4219 2406 4219 
Q 1781 4219 1451 3797 
Q 1122 3375 1075 2522 
Q 1259 2794 1537 2939 
Q 1816 3084 2150 3084 
Q 2853 3084 3261 2657 
Q 3669 2231 3669 1497 
Q 3669 778 3244 343 
Q 2819 -91 2113 -91 
Q 1303 -91 875 529 
Q 447 1150 447 2328 
Q 447 3434 972 4092 
Q 1497 4750 2381 4750 
Q 2619 4750 2861 4703 
Q 3103 4656 3366 4563 
z
" transform="scale(0.015625)"/>
     </defs>
     <use xlink:href="#DejaVuSans-2d"/>
     <use xlink:href="#DejaVuSans-36" x="36.083984"/>
    </g>
   </g>
   <g id="text_9">
    <!-- -5 -->
    <g transform="translate(161.52378 177.287375) scale(0.1 -0.1)">
     <defs>
      <path id="DejaVuSans-35" d="M 691 4666 
L 3169 4666 
L 3169 4134 
L 1269 4134 
L 1269 2991 
Q 1406 3038 1543 3061 
Q 1681 3084 1819 3084 
Q 2600 3084 3056 2656 
Q 3513 2228 3513 1497 
Q 3513 744 3044 326 
Q 2575 -91 1722 -91 
Q 1428 -91 1123 -41 
Q 819 9 494 109 
L 494 744 
Q 775 591 1075 516 
Q 1375 441 1709 441 
Q 2250 441 2565 725 
Q 2881 1009 2881 1497 
Q 2881 1984 2565 2268 
Q 2250 2553 1709 2553 
Q 1456 2553 1204 2497 
Q 953 2441 691 2322 
L 691 4666 
z
" transform="scale(0.015625)"/>
     </defs>
     <use xlink:href="#DejaVuSans-2d"/>
     <use xlink:href="#DejaVuSans-35" x="36.083984"/>
    </g>
   </g>
   <g id="text_10">
    <!-- -4 -->
    <g transform="translate(174.18761 177.287375) scale(0.1 -0.1)">
     <defs>
      <path id="DejaVuSans-34" d="M 2419 4116 
L 825 1625 
L 2419 1625 
L 2419 4116 
z
M 2253 4666 
L 3047 4666 
L 3047 1625 
L 3713 1625 
L 3713 1100 
L 3047 1100 
L 3047 0 
L 2419 0 
L 2419 1100 
L 313 1100 
L 313 1709 
L 2253 4666 
z
" transform="scale(0.015625)"/>
     </defs>
     <use xlink:href="#DejaVuSans-2d"/>
     <use xlink:href="#DejaVuSans-34" x="36.083984"/>
    </g>
   </g>
   <g id="text_11">
    <!-- -3 -->
    <g transform="translate(186.851439 177.287375) scale(0.1 -0.1)">
     <use xlink:href="#DejaVuSans-2d"/>
     <use xlink:href="#DejaVuSans-33" x="36.083984"/>
    </g>
   </g>
   <g id="text_12">
    <!-- -2 -->
    <g transform="translate(199.515269 177.287375) scale(0.1 -0.1)">
     <use xlink:href="#DejaVuSans-2d"/>
     <use xlink:href="#DejaVuSans-32" x="36.083984"/>
    </g>
   </g>
   <g id="text_13">
    <!-- -1 -->
    <g transform="translate(212.179099 177.287375) scale(0.1 -0.1)">
     <use xlink:href="#DejaVuSans-2d"/>
     <use xlink:href="#DejaVuSans-31" x="36.083984"/>
    </g>
   </g>
   <g id="text_14">
    <!-- 0 -->
    <g transform="translate(226.646835 177.287375) scale(0.1 -0.1)">
     <use xlink:href="#DejaVuSans-30"/>
    </g>
   </g>
   <g id="text_15">
    <!-- 1 -->
    <g transform="translate(239.310665 177.287375) scale(0.1 -0.1)">
     <use xlink:href="#DejaVuSans-31"/>
    </g>
   </g>
   <g id="text_16">
    <!-- 2 -->
    <g transform="translate(251.974495 177.287375) scale(0.1 -0.1)">
     <use xlink:href="#DejaVuSans-32"/>
    </g>
   </g>
   <g id="text_17">
    <!-- 3 -->
    <g transform="translate(264.638324 177.287375) scale(0.1 -0.1)">
     <use xlink:href="#DejaVuSans-33"/>
    </g>
   </g>
   <g id="text_18">
    <!-- 4 -->
    <g transform="translate(277.302154 177.287375) scale(0.1 -0.1)">
     <use xlink:href="#DejaVuSans-34"/>
    </g>
   </g>
   <g id="text_19">
    <!-- 5 -->
    <g transform="translate(289.965984 177.287375) scale(0.1 -0.1)">
     <use xlink:href="#DejaVuSans-35"/>
    </g>
   </g>
   <g id="text_20">
    <!-- 6 -->
    <g transform="translate(302.629814 177.287375) scale(0.1 -0.1)">
     <use xlink:href="#DejaVuSans-36"/>
    </g>
   </g>
   <g id="text_21">
    <!-- 7 -->
    <g transform="translate(315.293644 177.287375) scale(0.1 -0.1)">
     <use xlink:href="#DejaVuSans-37"/>
    </g>
   </g>
   <g id="text_22">
    <!-- 8 -->
    <g transform="translate(327.957473 177.287375) scale(0.1 -0.1)">
     <use xlink:href="#DejaVuSans-38"/>
    </g>
   </g>
   <g id="text_23">
    <!-- 9 -->
    <g transform="translate(340.621303 177.287375) scale(0.1 -0.1)">
     <use xlink:href="#DejaVuSans-39"/>
    </g>
   </g>
   <g id="text_24">
    <!-- 10 -->
    <g transform="translate(350.103883 177.287375) scale(0.1 -0.1)">
     <use xlink:href="#DejaVuSans-31"/>
     <use xlink:href="#DejaVuSans-30" x="63.623047"/>
    </g>
   </g>
   <g id="text_25">
    <!-- 11 -->
    <g transform="translate(362.767713 177.287375) scale(0.1 -0.1)">
     <use xlink:href="#DejaVuSans-31"/>
     <use xlink:href="#DejaVuSans-31" x="63.623047"/>
    </g>
   </g>
   <g id="text_26">
    <!-- 12 -->
    <g transform="translate(375.431543 177.287375) scale(0.1 -0.1)">
     <use xlink:href="#DejaVuSans-31"/>
     <use xlink:href="#DejaVuSans-32" x="63.623047"/>
    </g>
   </g>
   <g id="text_27">
    <!-- 13 -->
    <g transform="translate(388.095372 177.287375) scale(0.1 -0.1)">
     <use xlink:href="#DejaVuSans-31"/>
     <use xlink:href="#DejaVuSans-33" x="63.623047"/>
    </g>
   </g>
  </g>
 </g>
 <defs>
  <clipPath id="pcd81bc04dc">
   <rect x="57.6" y="166.929702" width="357.12" height="15.196596"/>
  </clipPath>
 </defs>
</svg>
