<?xml version="1.0" encoding="utf-8" standalone="no"?>
<!DOCTYPE svg PUBLIC "-//W3C//DTD SVG 1.1//EN"
  "http://www.w3.org/Graphics/SVG/1.1/DTD/svg11.dtd">
<svg xmlns:xlink="http://www.w3.org/1999/xlink" width="460.8pt" height="345.6pt" viewBox="0 0 460.8 345.6" xmlns="http://www.w3.org/2000/svg" version="1.1">
 <metadata>
  <rdf:RDF xmlns:dc="http://purl.org/dc/elements/1.1/" xmlns:cc="http://creativecommons.org/ns#" xmlns:rdf="http://www.w3.org/1999/02/22-rdf-syntax-ns#">
   <cc:Work>
    <dc:type rdf:resource="http://purl.org/dc/dcmitype/StillImage"/>
    <dc:date>2023-08-17T11:55:39.844771</dc:date>
    <dc:format>image/svg+xml</dc:format>
    <dc:creator>
     <cc:Agent>
      <dc:title>Matplotlib v3.7.1, https://matplotlib.org/</dc:title>
     </cc:Agent>
    </dc:creator>
   </cc:Work>
  </rdf:RDF>
 </metadata>
 <defs>
  <style type="text/css">*{stroke-linejoin: round; stroke-linecap: butt}</style>
 </defs>
 <g id="figure_1">
  <g id="patch_1">
   <path d="M 0 345.6 
L 460.8 345.6 
L 460.8 0 
L 0 0 
z
" style="fill: #ffffff"/>
  </g>
  <g id="axes_1">
   <g id="patch_2">
    <path d="M 70.826667 185.550222 
C 73.749794 185.550222 76.553591 184.388851 78.620555 182.321888 
C 80.687518 180.254925 81.848889 177.451128 81.848889 174.528 
C 81.848889 171.604872 80.687518 168.801075 78.620555 166.734112 
C 76.553591 164.667149 73.749794 163.505778 70.826667 163.505778 
C 67.903539 163.505778 65.099742 164.667149 63.032779 166.734112 
C 60.965815 168.801075 59.804444 171.604872 59.804444 174.528 
C 59.804444 177.451128 60.965815 180.254925 63.032779 182.321888 
C 65.099742 184.388851 67.903539 185.550222 70.826667 185.550222 
z
" clip-path="url(#p0784479251)" style="fill: #313695; stroke: #ffffff; stroke-linejoin: miter"/>
   </g>
   <g id="patch_3">
    <path d="M 92.871111 185.550222 
C 95.794239 185.550222 98.598036 184.388851 100.664999 182.321888 
C 102.731962 180.254925 103.893333 177.451128 103.893333 174.528 
C 103.893333 171.604872 102.731962 168.801075 100.664999 166.734112 
C 98.598036 164.667149 95.794239 163.505778 92.871111 163.505778 
C 89.947984 163.505778 87.144186 164.667149 85.077223 166.734112 
C 83.01026 168.801075 81.848889 171.604872 81.848889 174.528 
C 81.848889 177.451128 83.01026 180.254925 85.077223 182.321888 
C 87.144186 184.388851 89.947984 185.550222 92.871111 185.550222 
z
" clip-path="url(#p0784479251)" style="fill: #3f62ab; stroke: #ffffff; stroke-linejoin: miter"/>
   </g>
   <g id="patch_4">
    <path d="M 114.915556 185.550222 
C 117.838683 185.550222 120.64248 184.388851 122.709444 182.321888 
C 124.776407 180.254925 125.937778 177.451128 125.937778 174.528 
C 125.937778 171.604872 124.776407 168.801075 122.709444 166.734112 
C 120.64248 164.667149 117.838683 163.505778 114.915556 163.505778 
C 111.992428 163.505778 109.188631 164.667149 107.121667 166.734112 
C 105.054704 168.801075 103.893333 171.604872 103.893333 174.528 
C 103.893333 177.451128 105.054704 180.254925 107.121667 182.321888 
C 109.188631 184.388851 111.992428 185.550222 114.915556 185.550222 
z
" clip-path="url(#p0784479251)" style="fill: #588cc0; stroke: #ffffff; stroke-linejoin: miter"/>
   </g>
   <g id="patch_5">
    <path d="M 136.96 185.550222 
C 139.883128 185.550222 142.686925 184.388851 144.753888 182.321888 
C 146.820851 180.254925 147.982222 177.451128 147.982222 174.528 
C 147.982222 171.604872 146.820851 168.801075 144.753888 166.734112 
C 142.686925 164.667149 139.883128 163.505778 136.96 163.505778 
C 134.036872 163.505778 131.233075 164.667149 129.166112 166.734112 
C 127.099149 168.801075 125.937778 171.604872 125.937778 174.528 
C 125.937778 177.451128 127.099149 180.254925 129.166112 182.321888 
C 131.233075 184.388851 134.036872 185.550222 136.96 185.550222 
z
" clip-path="url(#p0784479251)" style="fill: #7ab2d4; stroke: #ffffff; stroke-linejoin: miter"/>
   </g>
   <g id="patch_6">
    <path d="M 159.004444 185.550222 
C 161.927572 185.550222 164.731369 184.388851 166.798333 182.321888 
C 168.865296 180.254925 170.026667 177.451128 170.026667 174.528 
C 170.026667 171.604872 168.865296 168.801075 166.798333 166.734112 
C 164.731369 164.667149 161.927572 163.505778 159.004444 163.505778 
C 156.081317 163.505778 153.27752 164.667149 151.210556 166.734112 
C 149.143593 168.801075 147.982222 171.604872 147.982222 174.528 
C 147.982222 177.451128 149.143593 180.254925 151.210556 182.321888 
C 153.27752 184.388851 156.081317 185.550222 159.004444 185.550222 
z
" clip-path="url(#p0784479251)" style="fill: #a3d3e6; stroke: #ffffff; stroke-linejoin: miter"/>
   </g>
   <g id="patch_7">
    <path d="M 181.048889 185.550222 
C 183.972016 185.550222 186.775814 184.388851 188.842777 182.321888 
C 190.90974 180.254925 192.071111 177.451128 192.071111 174.528 
C 192.071111 171.604872 190.90974 168.801075 188.842777 166.734112 
C 186.775814 164.667149 183.972016 163.505778 181.048889 163.505778 
C 178.125761 163.505778 175.321964 164.667149 173.255001 166.734112 
C 171.188038 168.801075 170.026667 171.604872 170.026667 174.528 
C 170.026667 177.451128 171.188038 180.254925 173.255001 182.321888 
C 175.321964 184.388851 178.125761 185.550222 181.048889 185.550222 
z
" clip-path="url(#p0784479251)" style="fill: #c9e8f2; stroke: #ffffff; stroke-linejoin: miter"/>
   </g>
   <g id="patch_8">
    <path d="M 203.093333 185.550222 
C 206.016461 185.550222 208.820258 184.388851 210.887221 182.321888 
C 212.954185 180.254925 214.115556 177.451128 214.115556 174.528 
C 214.115556 171.604872 212.954185 168.801075 210.887221 166.734112 
C 208.820258 164.667149 206.016461 163.505778 203.093333 163.505778 
C 200.170206 163.505778 197.366409 164.667149 195.299445 166.734112 
C 193.232482 168.801075 192.071111 171.604872 192.071111 174.528 
C 192.071111 177.451128 193.232482 180.254925 195.299445 182.321888 
C 197.366409 184.388851 200.170206 185.550222 203.093333 185.550222 
z
" clip-path="url(#p0784479251)" style="fill: #e9f6e8; stroke: #ffffff; stroke-linejoin: miter"/>
   </g>
   <g id="patch_9">
    <path d="M 225.137778 185.550222 
C 228.060905 185.550222 230.864703 184.388851 232.931666 182.321888 
C 234.998629 180.254925 236.16 177.451128 236.16 174.528 
C 236.16 171.604872 234.998629 168.801075 232.931666 166.734112 
C 230.864703 164.667149 228.060905 163.505778 225.137778 163.505778 
C 222.21465 163.505778 219.410853 164.667149 217.34389 166.734112 
C 215.276926 168.801075 214.115556 171.604872 214.115556 174.528 
C 214.115556 177.451128 215.276926 180.254925 217.34389 182.321888 
C 219.410853 184.388851 222.21465 185.550222 225.137778 185.550222 
z
" clip-path="url(#p0784479251)" style="fill: #fffebe; stroke: #ffffff; stroke-linejoin: miter"/>
   </g>
   <g id="patch_10">
    <path d="M 247.182222 185.550222 
C 250.10535 185.550222 252.909147 184.388851 254.97611 182.321888 
C 257.043074 180.254925 258.204444 177.451128 258.204444 174.528 
C 258.204444 171.604872 257.043074 168.801075 254.97611 166.734112 
C 252.909147 164.667149 250.10535 163.505778 247.182222 163.505778 
C 244.259095 163.505778 241.455297 164.667149 239.388334 166.734112 
C 237.321371 168.801075 236.16 171.604872 236.16 174.528 
C 236.16 177.451128 237.321371 180.254925 239.388334 182.321888 
C 241.455297 184.388851 244.259095 185.550222 247.182222 185.550222 
z
" clip-path="url(#p0784479251)" style="fill: #fee99d; stroke: #ffffff; stroke-linejoin: miter"/>
   </g>
   <g id="patch_11">
    <path d="M 269.226667 185.550222 
C 272.149794 185.550222 274.953591 184.388851 277.020555 182.321888 
C 279.087518 180.254925 280.248889 177.451128 280.248889 174.528 
C 280.248889 171.604872 279.087518 168.801075 277.020555 166.734112 
C 274.953591 164.667149 272.149794 163.505778 269.226667 163.505778 
C 266.303539 163.505778 263.499742 164.667149 261.432779 166.734112 
C 259.365815 168.801075 258.204444 171.604872 258.204444 174.528 
C 258.204444 177.451128 259.365815 180.254925 261.432779 182.321888 
C 263.499742 184.388851 266.303539 185.550222 269.226667 185.550222 
z
" clip-path="url(#p0784479251)" style="fill: #feca7c; stroke: #ffffff; stroke-linejoin: miter"/>
   </g>
   <g id="patch_12">
    <path d="M 291.271111 185.550222 
C 294.194239 185.550222 296.998036 184.388851 299.064999 182.321888 
C 301.131962 180.254925 302.293333 177.451128 302.293333 174.528 
C 302.293333 171.604872 301.131962 168.801075 299.064999 166.734112 
C 296.998036 164.667149 294.194239 163.505778 291.271111 163.505778 
C 288.347984 163.505778 285.544186 164.667149 283.477223 166.734112 
C 281.41026 168.801075 280.248889 171.604872 280.248889 174.528 
C 280.248889 177.451128 281.41026 180.254925 283.477223 182.321888 
C 285.544186 184.388851 288.347984 185.550222 291.271111 185.550222 
z
" clip-path="url(#p0784479251)" style="fill: #fca55d; stroke: #ffffff; stroke-linejoin: miter"/>
   </g>
   <g id="patch_13">
    <path d="M 313.315556 185.550222 
C 316.238683 185.550222 319.04248 184.388851 321.109444 182.321888 
C 323.176407 180.254925 324.337778 177.451128 324.337778 174.528 
C 324.337778 171.604872 323.176407 168.801075 321.109444 166.734112 
C 319.04248 164.667149 316.238683 163.505778 313.315556 163.505778 
C 310.392428 163.505778 307.588631 164.667149 305.521667 166.734112 
C 303.454704 168.801075 302.293333 171.604872 302.293333 174.528 
C 302.293333 177.451128 303.454704 180.254925 305.521667 182.321888 
C 307.588631 184.388851 310.392428 185.550222 313.315556 185.550222 
z
" clip-path="url(#p0784479251)" style="fill: #f57547; stroke: #ffffff; stroke-linejoin: miter"/>
   </g>
   <g id="patch_14">
    <path d="M 335.36 185.550222 
C 338.283128 185.550222 341.086925 184.388851 343.153888 182.321888 
C 345.220851 180.254925 346.382222 177.451128 346.382222 174.528 
C 346.382222 171.604872 345.220851 168.801075 343.153888 166.734112 
C 341.086925 164.667149 338.283128 163.505778 335.36 163.505778 
C 332.436872 163.505778 329.633075 164.667149 327.566112 166.734112 
C 325.499149 168.801075 324.337778 171.604872 324.337778 174.528 
C 324.337778 177.451128 325.499149 180.254925 327.566112 182.321888 
C 329.633075 184.388851 332.436872 185.550222 335.36 185.550222 
z
" clip-path="url(#p0784479251)" style="fill: #e34933; stroke: #ffffff; stroke-linejoin: miter"/>
   </g>
   <g id="patch_15">
    <path d="M 357.404444 185.550222 
C 360.327572 185.550222 363.131369 184.388851 365.198333 182.321888 
C 367.265296 180.254925 368.426667 177.451128 368.426667 174.528 
C 368.426667 171.604872 367.265296 168.801075 365.198333 166.734112 
C 363.131369 164.667149 360.327572 163.505778 357.404444 163.505778 
C 354.481317 163.505778 351.67752 164.667149 349.610556 166.734112 
C 347.543593 168.801075 346.382222 171.604872 346.382222 174.528 
C 346.382222 177.451128 347.543593 180.254925 349.610556 182.321888 
C 351.67752 184.388851 354.481317 185.550222 357.404444 185.550222 
z
" clip-path="url(#p0784479251)" style="fill: #c82227; stroke: #ffffff; stroke-linejoin: miter"/>
   </g>
   <g id="patch_16">
    <path d="M 379.448889 185.550222 
C 382.372016 185.550222 385.175814 184.388851 387.242777 182.321888 
C 389.30974 180.254925 390.471111 177.451128 390.471111 174.528 
C 390.471111 171.604872 389.30974 168.801075 387.242777 166.734112 
C 385.175814 164.667149 382.372016 163.505778 379.448889 163.505778 
C 376.525761 163.505778 373.721964 164.667149 371.655001 166.734112 
C 369.588038 168.801075 368.426667 171.604872 368.426667 174.528 
C 368.426667 177.451128 369.588038 180.254925 371.655001 182.321888 
C 373.721964 184.388851 376.525761 185.550222 379.448889 185.550222 
z
" clip-path="url(#p0784479251)" style="fill: #a50026; stroke: #ffffff; stroke-linejoin: miter"/>
   </g>
   <g id="text_1">
    <!-- -7 -->
    <g transform="translate(65.84151 177.287375) scale(0.1 -0.1)">
     <defs>
      <path id="DejaVuSans-2d" d="M 313 2009 
L 1997 2009 
L 1997 1497 
L 313 1497 
L 313 2009 
z
" transform="scale(0.015625)"/>
      <path id="DejaVuSans-37" d="M 525 4666 
L 3525 4666 
L 3525 4397 
L 1831 0 
L 1172 0 
L 2766 4134 
L 525 4134 
L 525 4666 
z
" transform="scale(0.015625)"/>
     </defs>
     <use xlink:href="#DejaVuSans-2d"/>
     <use xlink:href="#DejaVuSans-37" x="36.083984"/>
    </g>
   </g>
   <g id="text_2">
    <!-- -6 -->
    <g transform="translate(87.885955 177.287375) scale(0.1 -0.1)">
     <defs>
      <path id="DejaVuSans-36" d="M 2113 2584 
Q 1688 2584 1439 2293 
Q 1191 2003 1191 1497 
Q 1191 994 1439 701 
Q 1688 409 2113 409 
Q 2538 409 2786 701 
Q 3034 994 3034 1497 
Q 3034 2003 2786 2293 
Q 2538 2584 2113 2584 
z
M 3366 4563 
L 3366 3988 
Q 3128 4100 2886 4159 
Q 2644 4219 2406 4219 
Q 1781 4219 1451 3797 
Q 1122 3375 1075 2522 
Q 1259 2794 1537 2939 
Q 1816 3084 2150 3084 
Q 2853 3084 3261 2657 
Q 3669 2231 3669 1497 
Q 3669 778 3244 343 
Q 2819 -91 2113 -91 
Q 1303 -91 875 529 
Q 447 1150 447 2328 
Q 447 3434 972 4092 
Q 1497 4750 2381 4750 
Q 2619 4750 2861 4703 
Q 3103 4656 3366 4563 
z
" transform="scale(0.015625)"/>
     </defs>
     <use xlink:href="#DejaVuSans-2d"/>
     <use xlink:href="#DejaVuSans-36" x="36.083984"/>
    </g>
   </g>
   <g id="text_3">
    <!-- -5 -->
    <g transform="translate(109.930399 177.287375) scale(0.1 -0.1)">
     <defs>
      <path id="DejaVuSans-35" d="M 691 4666 
L 3169 4666 
L 3169 4134 
L 1269 4134 
L 1269 2991 
Q 1406 3038 1543 3061 
Q 1681 3084 1819 3084 
Q 2600 3084 3056 2656 
Q 3513 2228 3513 1497 
Q 3513 744 3044 326 
Q 2575 -91 1722 -91 
Q 1428 -91 1123 -41 
Q 819 9 494 109 
L 494 744 
Q 775 591 1075 516 
Q 1375 441 1709 441 
Q 2250 441 2565 725 
Q 2881 1009 2881 1497 
Q 2881 1984 2565 2268 
Q 2250 2553 1709 2553 
Q 1456 2553 1204 2497 
Q 953 2441 691 2322 
L 691 4666 
z
" transform="scale(0.015625)"/>
     </defs>
     <use xlink:href="#DejaVuSans-2d"/>
     <use xlink:href="#DejaVuSans-35" x="36.083984"/>
    </g>
   </g>
   <g id="text_4">
    <!-- -4 -->
    <g transform="translate(131.974844 177.287375) scale(0.1 -0.1)">
     <defs>
      <path id="DejaVuSans-34" d="M 2419 4116 
L 825 1625 
L 2419 1625 
L 2419 4116 
z
M 2253 4666 
L 3047 4666 
L 3047 1625 
L 3713 1625 
L 3713 1100 
L 3047 1100 
L 3047 0 
L 2419 0 
L 2419 1100 
L 313 1100 
L 313 1709 
L 2253 4666 
z
" transform="scale(0.015625)"/>
     </defs>
     <use xlink:href="#DejaVuSans-2d"/>
     <use xlink:href="#DejaVuSans-34" x="36.083984"/>
    </g>
   </g>
   <g id="text_5">
    <!-- -3 -->
    <g transform="translate(154.019288 177.287375) scale(0.1 -0.1)">
     <defs>
      <path id="DejaVuSans-33" d="M 2597 2516 
Q 3050 2419 3304 2112 
Q 3559 1806 3559 1356 
Q 3559 666 3084 287 
Q 2609 -91 1734 -91 
Q 1441 -91 1130 -33 
Q 819 25 488 141 
L 488 750 
Q 750 597 1062 519 
Q 1375 441 1716 441 
Q 2309 441 2620 675 
Q 2931 909 2931 1356 
Q 2931 1769 2642 2001 
Q 2353 2234 1838 2234 
L 1294 2234 
L 1294 2753 
L 1863 2753 
Q 2328 2753 2575 2939 
Q 2822 3125 2822 3475 
Q 2822 3834 2567 4026 
Q 2313 4219 1838 4219 
Q 1578 4219 1281 4162 
Q 984 4106 628 3988 
L 628 4550 
Q 988 4650 1302 4700 
Q 1616 4750 1894 4750 
Q 2613 4750 3031 4423 
Q 3450 4097 3450 3541 
Q 3450 3153 3228 2886 
Q 3006 2619 2597 2516 
z
" transform="scale(0.015625)"/>
     </defs>
     <use xlink:href="#DejaVuSans-2d"/>
     <use xlink:href="#DejaVuSans-33" x="36.083984"/>
    </g>
   </g>
   <g id="text_6">
    <!-- -2 -->
    <g transform="translate(176.063733 177.287375) scale(0.1 -0.1)">
     <defs>
      <path id="DejaVuSans-32" d="M 1228 531 
L 3431 531 
L 3431 0 
L 469 0 
L 469 531 
Q 828 903 1448 1529 
Q 2069 2156 2228 2338 
Q 2531 2678 2651 2914 
Q 2772 3150 2772 3378 
Q 2772 3750 2511 3984 
Q 2250 4219 1831 4219 
Q 1534 4219 1204 4116 
Q 875 4013 500 3803 
L 500 4441 
Q 881 4594 1212 4672 
Q 1544 4750 1819 4750 
Q 2544 4750 2975 4387 
Q 3406 4025 3406 3419 
Q 3406 3131 3298 2873 
Q 3191 2616 2906 2266 
Q 2828 2175 2409 1742 
Q 1991 1309 1228 531 
z
" transform="scale(0.015625)"/>
     </defs>
     <use xlink:href="#DejaVuSans-2d"/>
     <use xlink:href="#DejaVuSans-32" x="36.083984"/>
    </g>
   </g>
   <g id="text_7">
    <!-- -1 -->
    <g transform="translate(198.108177 177.287375) scale(0.1 -0.1)">
     <defs>
      <path id="DejaVuSans-31" d="M 794 531 
L 1825 531 
L 1825 4091 
L 703 3866 
L 703 4441 
L 1819 4666 
L 2450 4666 
L 2450 531 
L 3481 531 
L 3481 0 
L 794 0 
L 794 531 
z
" transform="scale(0.015625)"/>
     </defs>
     <use xlink:href="#DejaVuSans-2d"/>
     <use xlink:href="#DejaVuSans-31" x="36.083984"/>
    </g>
   </g>
   <g id="text_8">
    <!-- 0 -->
    <g transform="translate(221.956528 177.287375) scale(0.1 -0.1)">
     <defs>
      <path id="DejaVuSans-30" d="M 2034 4250 
Q 1547 4250 1301 3770 
Q 1056 3291 1056 2328 
Q 1056 1369 1301 889 
Q 1547 409 2034 409 
Q 2525 409 2770 889 
Q 3016 1369 3016 2328 
Q 3016 3291 2770 3770 
Q 2525 4250 2034 4250 
z
M 2034 4750 
Q 2819 4750 3233 4129 
Q 3647 3509 3647 2328 
Q 3647 1150 3233 529 
Q 2819 -91 2034 -91 
Q 1250 -91 836 529 
Q 422 1150 422 2328 
Q 422 3509 836 4129 
Q 1250 4750 2034 4750 
z
" transform="scale(0.015625)"/>
     </defs>
     <use xlink:href="#DejaVuSans-30"/>
    </g>
   </g>
   <g id="text_9">
    <!-- 1 -->
    <g transform="translate(244.000972 177.287375) scale(0.1 -0.1)">
     <use xlink:href="#DejaVuSans-31"/>
    </g>
   </g>
   <g id="text_10">
    <!-- 2 -->
    <g transform="translate(266.045417 177.287375) scale(0.1 -0.1)">
     <use xlink:href="#DejaVuSans-32"/>
    </g>
   </g>
   <g id="text_11">
    <!-- 3 -->
    <g transform="translate(288.089861 177.287375) scale(0.1 -0.1)">
     <use xlink:href="#DejaVuSans-33"/>
    </g>
   </g>
   <g id="text_12">
    <!-- 4 -->
    <g transform="translate(310.134306 177.287375) scale(0.1 -0.1)">
     <use xlink:href="#DejaVuSans-34"/>
    </g>
   </g>
   <g id="text_13">
    <!-- 5 -->
    <g transform="translate(332.17875 177.287375) scale(0.1 -0.1)">
     <use xlink:href="#DejaVuSans-35"/>
    </g>
   </g>
   <g id="text_14">
    <!-- 6 -->
    <g transform="translate(354.223194 177.287375) scale(0.1 -0.1)">
     <use xlink:href="#DejaVuSans-36"/>
    </g>
   </g>
   <g id="text_15">
    <!-- 7 -->
    <g transform="translate(376.267639 177.287375) scale(0.1 -0.1)">
     <use xlink:href="#DejaVuSans-37"/>
    </g>
   </g>
  </g>
 </g>
 <defs>
  <clipPath id="p0784479251">
   <rect x="57.6" y="161.301333" width="357.12" height="26.453333"/>
  </clipPath>
 </defs>
</svg>
