<?xml version="1.0" encoding="utf-8" standalone="no"?>
<!DOCTYPE svg PUBLIC "-//W3C//DTD SVG 1.1//EN"
  "http://www.w3.org/Graphics/SVG/1.1/DTD/svg11.dtd">
<svg xmlns:xlink="http://www.w3.org/1999/xlink" width="460.8pt" height="345.6pt" viewBox="0 0 460.8 345.6" xmlns="http://www.w3.org/2000/svg" version="1.1">
 <metadata>
  <rdf:RDF xmlns:dc="http://purl.org/dc/elements/1.1/" xmlns:cc="http://creativecommons.org/ns#" xmlns:rdf="http://www.w3.org/1999/02/22-rdf-syntax-ns#">
   <cc:Work>
    <dc:type rdf:resource="http://purl.org/dc/dcmitype/StillImage"/>
    <dc:date>2023-08-16T19:21:55.942376</dc:date>
    <dc:format>image/svg+xml</dc:format>
    <dc:creator>
     <cc:Agent>
      <dc:title>Matplotlib v3.7.1, https://matplotlib.org/</dc:title>
     </cc:Agent>
    </dc:creator>
   </cc:Work>
  </rdf:RDF>
 </metadata>
 <defs>
  <style type="text/css">*{stroke-linejoin: round; stroke-linecap: butt}</style>
 </defs>
 <g id="figure_1">
  <g id="patch_1">
   <path d="M 0 345.6 
L 460.8 345.6 
L 460.8 0 
L 0 0 
z
" style="fill: #ffffff"/>
  </g>
  <g id="axes_1">
   <g id="patch_2">
    <path d="M 76.731429 190.470857 
C 80.959524 190.470857 85.015016 188.791017 88.004731 185.801302 
C 90.994446 182.811588 92.674286 178.756095 92.674286 174.528 
C 92.674286 170.299905 90.994446 166.244412 88.004731 163.254698 
C 85.015016 160.264983 80.959524 158.585143 76.731429 158.585143 
C 72.503333 158.585143 68.447841 160.264983 65.458126 163.254698 
C 62.468411 166.244412 60.788571 170.299905 60.788571 174.528 
C 60.788571 178.756095 62.468411 182.811588 65.458126 185.801302 
C 68.447841 188.791017 72.503333 190.470857 76.731429 190.470857 
z
" clip-path="url(#p9159ba5d62)" style="fill: #313695; stroke: #ffffff; stroke-linejoin: miter"/>
   </g>
   <g id="patch_3">
    <path d="M 108.617143 190.470857 
C 112.845238 190.470857 116.900731 188.791017 119.890445 185.801302 
C 122.88016 182.811588 124.56 178.756095 124.56 174.528 
C 124.56 170.299905 122.88016 166.244412 119.890445 163.254698 
C 116.900731 160.264983 112.845238 158.585143 108.617143 158.585143 
C 104.389048 158.585143 100.333555 160.264983 97.34384 163.254698 
C 94.354126 166.244412 92.674286 170.299905 92.674286 174.528 
C 92.674286 178.756095 94.354126 182.811588 97.34384 185.801302 
C 100.333555 188.791017 104.389048 190.470857 108.617143 190.470857 
z
" clip-path="url(#p9159ba5d62)" style="fill: #4574b3; stroke: #ffffff; stroke-linejoin: miter"/>
   </g>
   <g id="patch_4">
    <path d="M 140.502857 190.470857 
C 144.730952 190.470857 148.786445 188.791017 151.77616 185.801302 
C 154.765874 182.811588 156.445714 178.756095 156.445714 174.528 
C 156.445714 170.299905 154.765874 166.244412 151.77616 163.254698 
C 148.786445 160.264983 144.730952 158.585143 140.502857 158.585143 
C 136.274762 158.585143 132.219269 160.264983 129.229555 163.254698 
C 126.23984 166.244412 124.56 170.299905 124.56 174.528 
C 124.56 178.756095 126.23984 182.811588 129.229555 185.801302 
C 132.219269 188.791017 136.274762 190.470857 140.502857 190.470857 
z
" clip-path="url(#p9159ba5d62)" style="fill: #74add1; stroke: #ffffff; stroke-linejoin: miter"/>
   </g>
   <g id="patch_5">
    <path d="M 172.388571 190.470857 
C 176.616667 190.470857 180.672159 188.791017 183.661874 185.801302 
C 186.651589 182.811588 188.331429 178.756095 188.331429 174.528 
C 188.331429 170.299905 186.651589 166.244412 183.661874 163.254698 
C 180.672159 160.264983 176.616667 158.585143 172.388571 158.585143 
C 168.160476 158.585143 164.104984 160.264983 161.115269 163.254698 
C 158.125554 166.244412 156.445714 170.299905 156.445714 174.528 
C 156.445714 178.756095 158.125554 182.811588 161.115269 185.801302 
C 164.104984 188.791017 168.160476 190.470857 172.388571 190.470857 
z
" clip-path="url(#p9159ba5d62)" style="fill: #aad8e9; stroke: #ffffff; stroke-linejoin: miter"/>
   </g>
   <g id="patch_6">
    <path d="M 204.274286 190.470857 
C 208.502381 190.470857 212.557873 188.791017 215.547588 185.801302 
C 218.537303 182.811588 220.217143 178.756095 220.217143 174.528 
C 220.217143 170.299905 218.537303 166.244412 215.547588 163.254698 
C 212.557873 160.264983 208.502381 158.585143 204.274286 158.585143 
C 200.046191 158.585143 195.990698 160.264983 193.000983 163.254698 
C 190.011269 166.244412 188.331429 170.299905 188.331429 174.528 
C 188.331429 178.756095 190.011269 182.811588 193.000983 185.801302 
C 195.990698 188.791017 200.046191 190.470857 204.274286 190.470857 
z
" clip-path="url(#p9159ba5d62)" style="fill: #e0f3f8; stroke: #ffffff; stroke-linejoin: miter"/>
   </g>
   <g id="patch_7">
    <path d="M 236.16 190.470857 
C 240.388095 190.470857 244.443588 188.791017 247.433302 185.801302 
C 250.423017 182.811588 252.102857 178.756095 252.102857 174.528 
C 252.102857 170.299905 250.423017 166.244412 247.433302 163.254698 
C 244.443588 160.264983 240.388095 158.585143 236.16 158.585143 
C 231.931905 158.585143 227.876412 160.264983 224.886698 163.254698 
C 221.896983 166.244412 220.217143 170.299905 220.217143 174.528 
C 220.217143 178.756095 221.896983 182.811588 224.886698 185.801302 
C 227.876412 188.791017 231.931905 190.470857 236.16 190.470857 
z
" clip-path="url(#p9159ba5d62)" style="fill: #fee090; stroke: #ffffff; stroke-linejoin: miter"/>
   </g>
   <g id="patch_8">
    <path d="M 268.045714 190.470857 
C 272.273809 190.470857 276.329302 188.791017 279.319017 185.801302 
C 282.308731 182.811588 283.988571 178.756095 283.988571 174.528 
C 283.988571 170.299905 282.308731 166.244412 279.319017 163.254698 
C 276.329302 160.264983 272.273809 158.585143 268.045714 158.585143 
C 263.817619 158.585143 259.762127 160.264983 256.772412 163.254698 
C 253.782697 166.244412 252.102857 170.299905 252.102857 174.528 
C 252.102857 178.756095 253.782697 182.811588 256.772412 185.801302 
C 259.762127 188.791017 263.817619 190.470857 268.045714 190.470857 
z
" clip-path="url(#p9159ba5d62)" style="fill: #fdad60; stroke: #ffffff; stroke-linejoin: miter"/>
   </g>
   <g id="patch_9">
    <path d="M 299.931429 190.470857 
C 304.159524 190.470857 308.215016 188.791017 311.204731 185.801302 
C 314.194446 182.811588 315.874286 178.756095 315.874286 174.528 
C 315.874286 170.299905 314.194446 166.244412 311.204731 163.254698 
C 308.215016 160.264983 304.159524 158.585143 299.931429 158.585143 
C 295.703333 158.585143 291.647841 160.264983 288.658126 163.254698 
C 285.668411 166.244412 283.988571 170.299905 283.988571 174.528 
C 283.988571 178.756095 285.668411 182.811588 288.658126 185.801302 
C 291.647841 188.791017 295.703333 190.470857 299.931429 190.470857 
z
" clip-path="url(#p9159ba5d62)" style="fill: #f46d43; stroke: #ffffff; stroke-linejoin: miter"/>
   </g>
   <g id="patch_10">
    <path d="M 331.817143 190.470857 
C 336.045238 190.470857 340.100731 188.791017 343.090445 185.801302 
C 346.08016 182.811588 347.76 178.756095 347.76 174.528 
C 347.76 170.299905 346.08016 166.244412 343.090445 163.254698 
C 340.100731 160.264983 336.045238 158.585143 331.817143 158.585143 
C 327.589048 158.585143 323.533555 160.264983 320.54384 163.254698 
C 317.554126 166.244412 315.874286 170.299905 315.874286 174.528 
C 315.874286 178.756095 317.554126 182.811588 320.54384 185.801302 
C 323.533555 188.791017 327.589048 190.470857 331.817143 190.470857 
z
" clip-path="url(#p9159ba5d62)" style="fill: #d62f27; stroke: #ffffff; stroke-linejoin: miter"/>
   </g>
   <g id="patch_11">
    <path d="M 363.702857 190.470857 
C 367.930952 190.470857 371.986445 188.791017 374.97616 185.801302 
C 377.965874 182.811588 379.645714 178.756095 379.645714 174.528 
C 379.645714 170.299905 377.965874 166.244412 374.97616 163.254698 
C 371.986445 160.264983 367.930952 158.585143 363.702857 158.585143 
C 359.474762 158.585143 355.419269 160.264983 352.429555 163.254698 
C 349.43984 166.244412 347.76 170.299905 347.76 174.528 
C 347.76 178.756095 349.43984 182.811588 352.429555 185.801302 
C 355.419269 188.791017 359.474762 190.470857 363.702857 190.470857 
z
" clip-path="url(#p9159ba5d62)" style="fill: #a50026; stroke: #ffffff; stroke-linejoin: miter"/>
   </g>
   <g id="text_1">
    <!-- -5.0 -->
    <g transform="translate(66.97596 177.287375) scale(0.1 -0.1)">
     <defs>
      <path id="DejaVuSans-2d" d="M 313 2009 
L 1997 2009 
L 1997 1497 
L 313 1497 
L 313 2009 
z
" transform="scale(0.015625)"/>
      <path id="DejaVuSans-35" d="M 691 4666 
L 3169 4666 
L 3169 4134 
L 1269 4134 
L 1269 2991 
Q 1406 3038 1543 3061 
Q 1681 3084 1819 3084 
Q 2600 3084 3056 2656 
Q 3513 2228 3513 1497 
Q 3513 744 3044 326 
Q 2575 -91 1722 -91 
Q 1428 -91 1123 -41 
Q 819 9 494 109 
L 494 744 
Q 775 591 1075 516 
Q 1375 441 1709 441 
Q 2250 441 2565 725 
Q 2881 1009 2881 1497 
Q 2881 1984 2565 2268 
Q 2250 2553 1709 2553 
Q 1456 2553 1204 2497 
Q 953 2441 691 2322 
L 691 4666 
z
" transform="scale(0.015625)"/>
      <path id="DejaVuSans-2e" d="M 684 794 
L 1344 794 
L 1344 0 
L 684 0 
L 684 794 
z
" transform="scale(0.015625)"/>
      <path id="DejaVuSans-30" d="M 2034 4250 
Q 1547 4250 1301 3770 
Q 1056 3291 1056 2328 
Q 1056 1369 1301 889 
Q 1547 409 2034 409 
Q 2525 409 2770 889 
Q 3016 1369 3016 2328 
Q 3016 3291 2770 3770 
Q 2525 4250 2034 4250 
z
M 2034 4750 
Q 2819 4750 3233 4129 
Q 3647 3509 3647 2328 
Q 3647 1150 3233 529 
Q 2819 -91 2034 -91 
Q 1250 -91 836 529 
Q 422 1150 422 2328 
Q 422 3509 836 4129 
Q 1250 4750 2034 4750 
z
" transform="scale(0.015625)"/>
     </defs>
     <use xlink:href="#DejaVuSans-2d"/>
     <use xlink:href="#DejaVuSans-35" x="36.083984"/>
     <use xlink:href="#DejaVuSans-2e" x="99.707031"/>
     <use xlink:href="#DejaVuSans-30" x="131.494141"/>
    </g>
   </g>
   <g id="text_2">
    <!-- -4.0 -->
    <g transform="translate(98.861674 177.287375) scale(0.1 -0.1)">
     <defs>
      <path id="DejaVuSans-34" d="M 2419 4116 
L 825 1625 
L 2419 1625 
L 2419 4116 
z
M 2253 4666 
L 3047 4666 
L 3047 1625 
L 3713 1625 
L 3713 1100 
L 3047 1100 
L 3047 0 
L 2419 0 
L 2419 1100 
L 313 1100 
L 313 1709 
L 2253 4666 
z
" transform="scale(0.015625)"/>
     </defs>
     <use xlink:href="#DejaVuSans-2d"/>
     <use xlink:href="#DejaVuSans-34" x="36.083984"/>
     <use xlink:href="#DejaVuSans-2e" x="99.707031"/>
     <use xlink:href="#DejaVuSans-30" x="131.494141"/>
    </g>
   </g>
   <g id="text_3">
    <!-- -3.0 -->
    <g transform="translate(130.747388 177.287375) scale(0.1 -0.1)">
     <defs>
      <path id="DejaVuSans-33" d="M 2597 2516 
Q 3050 2419 3304 2112 
Q 3559 1806 3559 1356 
Q 3559 666 3084 287 
Q 2609 -91 1734 -91 
Q 1441 -91 1130 -33 
Q 819 25 488 141 
L 488 750 
Q 750 597 1062 519 
Q 1375 441 1716 441 
Q 2309 441 2620 675 
Q 2931 909 2931 1356 
Q 2931 1769 2642 2001 
Q 2353 2234 1838 2234 
L 1294 2234 
L 1294 2753 
L 1863 2753 
Q 2328 2753 2575 2939 
Q 2822 3125 2822 3475 
Q 2822 3834 2567 4026 
Q 2313 4219 1838 4219 
Q 1578 4219 1281 4162 
Q 984 4106 628 3988 
L 628 4550 
Q 988 4650 1302 4700 
Q 1616 4750 1894 4750 
Q 2613 4750 3031 4423 
Q 3450 4097 3450 3541 
Q 3450 3153 3228 2886 
Q 3006 2619 2597 2516 
z
" transform="scale(0.015625)"/>
     </defs>
     <use xlink:href="#DejaVuSans-2d"/>
     <use xlink:href="#DejaVuSans-33" x="36.083984"/>
     <use xlink:href="#DejaVuSans-2e" x="99.707031"/>
     <use xlink:href="#DejaVuSans-30" x="131.494141"/>
    </g>
   </g>
   <g id="text_4">
    <!-- -2.0 -->
    <g transform="translate(162.633103 177.287375) scale(0.1 -0.1)">
     <defs>
      <path id="DejaVuSans-32" d="M 1228 531 
L 3431 531 
L 3431 0 
L 469 0 
L 469 531 
Q 828 903 1448 1529 
Q 2069 2156 2228 2338 
Q 2531 2678 2651 2914 
Q 2772 3150 2772 3378 
Q 2772 3750 2511 3984 
Q 2250 4219 1831 4219 
Q 1534 4219 1204 4116 
Q 875 4013 500 3803 
L 500 4441 
Q 881 4594 1212 4672 
Q 1544 4750 1819 4750 
Q 2544 4750 2975 4387 
Q 3406 4025 3406 3419 
Q 3406 3131 3298 2873 
Q 3191 2616 2906 2266 
Q 2828 2175 2409 1742 
Q 1991 1309 1228 531 
z
" transform="scale(0.015625)"/>
     </defs>
     <use xlink:href="#DejaVuSans-2d"/>
     <use xlink:href="#DejaVuSans-32" x="36.083984"/>
     <use xlink:href="#DejaVuSans-2e" x="99.707031"/>
     <use xlink:href="#DejaVuSans-30" x="131.494141"/>
    </g>
   </g>
   <g id="text_5">
    <!-- -1.0 -->
    <g transform="translate(194.518817 177.287375) scale(0.1 -0.1)">
     <defs>
      <path id="DejaVuSans-31" d="M 794 531 
L 1825 531 
L 1825 4091 
L 703 3866 
L 703 4441 
L 1819 4666 
L 2450 4666 
L 2450 531 
L 3481 531 
L 3481 0 
L 794 0 
L 794 531 
z
" transform="scale(0.015625)"/>
     </defs>
     <use xlink:href="#DejaVuSans-2d"/>
     <use xlink:href="#DejaVuSans-31" x="36.083984"/>
     <use xlink:href="#DejaVuSans-2e" x="99.707031"/>
     <use xlink:href="#DejaVuSans-30" x="131.494141"/>
    </g>
   </g>
   <g id="text_6">
    <!-- 1.0 -->
    <g transform="translate(228.208438 177.287375) scale(0.1 -0.1)">
     <use xlink:href="#DejaVuSans-31"/>
     <use xlink:href="#DejaVuSans-2e" x="63.623047"/>
     <use xlink:href="#DejaVuSans-30" x="95.410156"/>
    </g>
   </g>
   <g id="text_7">
    <!-- 2.0 -->
    <g transform="translate(260.094152 177.287375) scale(0.1 -0.1)">
     <use xlink:href="#DejaVuSans-32"/>
     <use xlink:href="#DejaVuSans-2e" x="63.623047"/>
     <use xlink:href="#DejaVuSans-30" x="95.410156"/>
    </g>
   </g>
   <g id="text_8">
    <!-- 3.0 -->
    <g transform="translate(291.979866 177.287375) scale(0.1 -0.1)">
     <use xlink:href="#DejaVuSans-33"/>
     <use xlink:href="#DejaVuSans-2e" x="63.623047"/>
     <use xlink:href="#DejaVuSans-30" x="95.410156"/>
    </g>
   </g>
   <g id="text_9">
    <!-- 4.0 -->
    <g transform="translate(323.86558 177.287375) scale(0.1 -0.1)">
     <use xlink:href="#DejaVuSans-34"/>
     <use xlink:href="#DejaVuSans-2e" x="63.623047"/>
     <use xlink:href="#DejaVuSans-30" x="95.410156"/>
    </g>
   </g>
   <g id="text_10">
    <!-- 5.0 -->
    <g transform="translate(355.751295 177.287375) scale(0.1 -0.1)">
     <use xlink:href="#DejaVuSans-35"/>
     <use xlink:href="#DejaVuSans-2e" x="63.623047"/>
     <use xlink:href="#DejaVuSans-30" x="95.410156"/>
    </g>
   </g>
  </g>
 </g>
 <defs>
  <clipPath id="p9159ba5d62">
   <rect x="57.6" y="155.396571" width="357.12" height="38.262857"/>
  </clipPath>
 </defs>
</svg>
