<?xml version="1.0" encoding="utf-8" standalone="no"?>
<!DOCTYPE svg PUBLIC "-//W3C//DTD SVG 1.1//EN"
  "http://www.w3.org/Graphics/SVG/1.1/DTD/svg11.dtd">
<svg xmlns:xlink="http://www.w3.org/1999/xlink" width="460.8pt" height="345.6pt" viewBox="0 0 460.8 345.6" xmlns="http://www.w3.org/2000/svg" version="1.1">
 <metadata>
  <rdf:RDF xmlns:dc="http://purl.org/dc/elements/1.1/" xmlns:cc="http://creativecommons.org/ns#" xmlns:rdf="http://www.w3.org/1999/02/22-rdf-syntax-ns#">
   <cc:Work>
    <dc:type rdf:resource="http://purl.org/dc/dcmitype/StillImage"/>
    <dc:date>2023-08-25T13:38:10.820055</dc:date>
    <dc:format>image/svg+xml</dc:format>
    <dc:creator>
     <cc:Agent>
      <dc:title>Matplotlib v3.7.1, https://matplotlib.org/</dc:title>
     </cc:Agent>
    </dc:creator>
   </cc:Work>
  </rdf:RDF>
 </metadata>
 <defs>
  <style type="text/css">*{stroke-linejoin: round; stroke-linecap: butt}</style>
 </defs>
 <g id="figure_1">
  <g id="patch_1">
   <path d="M 0 345.6 
L 460.8 345.6 
L 460.8 0 
L 0 0 
z
" style="fill: #ffffff"/>
  </g>
  <g id="axes_1">
   <g id="patch_2">
    <path d="M 92.16 203.328 
C 99.797849 203.328 107.1239 200.29345 112.524675 194.892675 
C 117.92545 189.4919 120.96 182.165849 120.96 174.528 
C 120.96 166.890151 117.92545 159.5641 112.524675 154.163325 
C 107.1239 148.76255 99.797849 145.728 92.16 145.728 
C 84.522151 145.728 77.1961 148.76255 71.795325 154.163325 
C 66.39455 159.5641 63.36 166.890151 63.36 174.528 
C 63.36 182.165849 66.39455 189.4919 71.795325 194.892675 
C 77.1961 200.29345 84.522151 203.328 92.16 203.328 
z
" clip-path="url(#p1d1010ac25)" style="fill: #313695; stroke: #ffffff; stroke-linejoin: miter"/>
   </g>
   <g id="patch_3">
    <path d="M 149.76 203.328 
C 157.397849 203.328 164.7239 200.29345 170.124675 194.892675 
C 175.52545 189.4919 178.56 182.165849 178.56 174.528 
C 178.56 166.890151 175.52545 159.5641 170.124675 154.163325 
C 164.7239 148.76255 157.397849 145.728 149.76 145.728 
C 142.122151 145.728 134.7961 148.76255 129.395325 154.163325 
C 123.99455 159.5641 120.96 166.890151 120.96 174.528 
C 120.96 182.165849 123.99455 189.4919 129.395325 194.892675 
C 134.7961 200.29345 142.122151 203.328 149.76 203.328 
z
" clip-path="url(#p1d1010ac25)" style="fill: #4574b3; stroke: #ffffff; stroke-linejoin: miter"/>
   </g>
   <g id="patch_4">
    <path d="M 207.36 203.328 
C 214.997849 203.328 222.3239 200.29345 227.724675 194.892675 
C 233.12545 189.4919 236.16 182.165849 236.16 174.528 
C 236.16 166.890151 233.12545 159.5641 227.724675 154.163325 
C 222.3239 148.76255 214.997849 145.728 207.36 145.728 
C 199.722151 145.728 192.3961 148.76255 186.995325 154.163325 
C 181.59455 159.5641 178.56 166.890151 178.56 174.528 
C 178.56 182.165849 181.59455 189.4919 186.995325 194.892675 
C 192.3961 200.29345 199.722151 203.328 207.36 203.328 
z
" clip-path="url(#p1d1010ac25)" style="fill: #74add1; stroke: #ffffff; stroke-linejoin: miter"/>
   </g>
   <g id="patch_5">
    <path d="M 264.96 203.328 
C 272.597849 203.328 279.9239 200.29345 285.324675 194.892675 
C 290.72545 189.4919 293.76 182.165849 293.76 174.528 
C 293.76 166.890151 290.72545 159.5641 285.324675 154.163325 
C 279.9239 148.76255 272.597849 145.728 264.96 145.728 
C 257.322151 145.728 249.9961 148.76255 244.595325 154.163325 
C 239.19455 159.5641 236.16 166.890151 236.16 174.528 
C 236.16 182.165849 239.19455 189.4919 244.595325 194.892675 
C 249.9961 200.29345 257.322151 203.328 264.96 203.328 
z
" clip-path="url(#p1d1010ac25)" style="fill: #aad8e9; stroke: #ffffff; stroke-linejoin: miter"/>
   </g>
   <g id="patch_6">
    <path d="M 322.56 203.328 
C 330.197849 203.328 337.5239 200.29345 342.924675 194.892675 
C 348.32545 189.4919 351.36 182.165849 351.36 174.528 
C 351.36 166.890151 348.32545 159.5641 342.924675 154.163325 
C 337.5239 148.76255 330.197849 145.728 322.56 145.728 
C 314.922151 145.728 307.5961 148.76255 302.195325 154.163325 
C 296.79455 159.5641 293.76 166.890151 293.76 174.528 
C 293.76 182.165849 296.79455 189.4919 302.195325 194.892675 
C 307.5961 200.29345 314.922151 203.328 322.56 203.328 
z
" clip-path="url(#p1d1010ac25)" style="fill: #e0f3f8; stroke: #ffffff; stroke-linejoin: miter"/>
   </g>
   <g id="text_1">
    <!-- -5.0 -->
    <g transform="translate(82.404531 177.287375) scale(0.1 -0.1)">
     <defs>
      <path id="DejaVuSans-2d" d="M 313 2009 
L 1997 2009 
L 1997 1497 
L 313 1497 
L 313 2009 
z
" transform="scale(0.015625)"/>
      <path id="DejaVuSans-35" d="M 691 4666 
L 3169 4666 
L 3169 4134 
L 1269 4134 
L 1269 2991 
Q 1406 3038 1543 3061 
Q 1681 3084 1819 3084 
Q 2600 3084 3056 2656 
Q 3513 2228 3513 1497 
Q 3513 744 3044 326 
Q 2575 -91 1722 -91 
Q 1428 -91 1123 -41 
Q 819 9 494 109 
L 494 744 
Q 775 591 1075 516 
Q 1375 441 1709 441 
Q 2250 441 2565 725 
Q 2881 1009 2881 1497 
Q 2881 1984 2565 2268 
Q 2250 2553 1709 2553 
Q 1456 2553 1204 2497 
Q 953 2441 691 2322 
L 691 4666 
z
" transform="scale(0.015625)"/>
      <path id="DejaVuSans-2e" d="M 684 794 
L 1344 794 
L 1344 0 
L 684 0 
L 684 794 
z
" transform="scale(0.015625)"/>
      <path id="DejaVuSans-30" d="M 2034 4250 
Q 1547 4250 1301 3770 
Q 1056 3291 1056 2328 
Q 1056 1369 1301 889 
Q 1547 409 2034 409 
Q 2525 409 2770 889 
Q 3016 1369 3016 2328 
Q 3016 3291 2770 3770 
Q 2525 4250 2034 4250 
z
M 2034 4750 
Q 2819 4750 3233 4129 
Q 3647 3509 3647 2328 
Q 3647 1150 3233 529 
Q 2819 -91 2034 -91 
Q 1250 -91 836 529 
Q 422 1150 422 2328 
Q 422 3509 836 4129 
Q 1250 4750 2034 4750 
z
" transform="scale(0.015625)"/>
     </defs>
     <use xlink:href="#DejaVuSans-2d"/>
     <use xlink:href="#DejaVuSans-35" x="36.083984"/>
     <use xlink:href="#DejaVuSans-2e" x="99.707031"/>
     <use xlink:href="#DejaVuSans-30" x="131.494141"/>
    </g>
   </g>
   <g id="text_2">
    <!-- -4.0 -->
    <g transform="translate(140.004531 177.287375) scale(0.1 -0.1)">
     <defs>
      <path id="DejaVuSans-34" d="M 2419 4116 
L 825 1625 
L 2419 1625 
L 2419 4116 
z
M 2253 4666 
L 3047 4666 
L 3047 1625 
L 3713 1625 
L 3713 1100 
L 3047 1100 
L 3047 0 
L 2419 0 
L 2419 1100 
L 313 1100 
L 313 1709 
L 2253 4666 
z
" transform="scale(0.015625)"/>
     </defs>
     <use xlink:href="#DejaVuSans-2d"/>
     <use xlink:href="#DejaVuSans-34" x="36.083984"/>
     <use xlink:href="#DejaVuSans-2e" x="99.707031"/>
     <use xlink:href="#DejaVuSans-30" x="131.494141"/>
    </g>
   </g>
   <g id="text_3">
    <!-- -3.0 -->
    <g transform="translate(197.604531 177.287375) scale(0.1 -0.1)">
     <defs>
      <path id="DejaVuSans-33" d="M 2597 2516 
Q 3050 2419 3304 2112 
Q 3559 1806 3559 1356 
Q 3559 666 3084 287 
Q 2609 -91 1734 -91 
Q 1441 -91 1130 -33 
Q 819 25 488 141 
L 488 750 
Q 750 597 1062 519 
Q 1375 441 1716 441 
Q 2309 441 2620 675 
Q 2931 909 2931 1356 
Q 2931 1769 2642 2001 
Q 2353 2234 1838 2234 
L 1294 2234 
L 1294 2753 
L 1863 2753 
Q 2328 2753 2575 2939 
Q 2822 3125 2822 3475 
Q 2822 3834 2567 4026 
Q 2313 4219 1838 4219 
Q 1578 4219 1281 4162 
Q 984 4106 628 3988 
L 628 4550 
Q 988 4650 1302 4700 
Q 1616 4750 1894 4750 
Q 2613 4750 3031 4423 
Q 3450 4097 3450 3541 
Q 3450 3153 3228 2886 
Q 3006 2619 2597 2516 
z
" transform="scale(0.015625)"/>
     </defs>
     <use xlink:href="#DejaVuSans-2d"/>
     <use xlink:href="#DejaVuSans-33" x="36.083984"/>
     <use xlink:href="#DejaVuSans-2e" x="99.707031"/>
     <use xlink:href="#DejaVuSans-30" x="131.494141"/>
    </g>
   </g>
   <g id="text_4">
    <!-- -2.0 -->
    <g transform="translate(255.204531 177.287375) scale(0.1 -0.1)">
     <defs>
      <path id="DejaVuSans-32" d="M 1228 531 
L 3431 531 
L 3431 0 
L 469 0 
L 469 531 
Q 828 903 1448 1529 
Q 2069 2156 2228 2338 
Q 2531 2678 2651 2914 
Q 2772 3150 2772 3378 
Q 2772 3750 2511 3984 
Q 2250 4219 1831 4219 
Q 1534 4219 1204 4116 
Q 875 4013 500 3803 
L 500 4441 
Q 881 4594 1212 4672 
Q 1544 4750 1819 4750 
Q 2544 4750 2975 4387 
Q 3406 4025 3406 3419 
Q 3406 3131 3298 2873 
Q 3191 2616 2906 2266 
Q 2828 2175 2409 1742 
Q 1991 1309 1228 531 
z
" transform="scale(0.015625)"/>
     </defs>
     <use xlink:href="#DejaVuSans-2d"/>
     <use xlink:href="#DejaVuSans-32" x="36.083984"/>
     <use xlink:href="#DejaVuSans-2e" x="99.707031"/>
     <use xlink:href="#DejaVuSans-30" x="131.494141"/>
    </g>
   </g>
   <g id="text_5">
    <!-- -1.0 -->
    <g transform="translate(312.804531 177.287375) scale(0.1 -0.1)">
     <defs>
      <path id="DejaVuSans-31" d="M 794 531 
L 1825 531 
L 1825 4091 
L 703 3866 
L 703 4441 
L 1819 4666 
L 2450 4666 
L 2450 531 
L 3481 531 
L 3481 0 
L 794 0 
L 794 531 
z
" transform="scale(0.015625)"/>
     </defs>
     <use xlink:href="#DejaVuSans-2d"/>
     <use xlink:href="#DejaVuSans-31" x="36.083984"/>
     <use xlink:href="#DejaVuSans-2e" x="99.707031"/>
     <use xlink:href="#DejaVuSans-30" x="131.494141"/>
    </g>
   </g>
  </g>
 </g>
 <defs>
  <clipPath id="p1d1010ac25">
   <rect x="57.6" y="139.968" width="357.12" height="69.12"/>
  </clipPath>
 </defs>
</svg>
