<?xml version="1.0" encoding="utf-8" standalone="no"?>
<!DOCTYPE svg PUBLIC "-//W3C//DTD SVG 1.1//EN"
  "http://www.w3.org/Graphics/SVG/1.1/DTD/svg11.dtd">
<svg xmlns:xlink="http://www.w3.org/1999/xlink" width="460.8pt" height="345.6pt" viewBox="0 0 460.8 345.6" xmlns="http://www.w3.org/2000/svg" version="1.1">
 <metadata>
  <rdf:RDF xmlns:dc="http://purl.org/dc/elements/1.1/" xmlns:cc="http://creativecommons.org/ns#" xmlns:rdf="http://www.w3.org/1999/02/22-rdf-syntax-ns#">
   <cc:Work>
    <dc:type rdf:resource="http://purl.org/dc/dcmitype/StillImage"/>
    <dc:date>2023-08-16T19:21:56.899424</dc:date>
    <dc:format>image/svg+xml</dc:format>
    <dc:creator>
     <cc:Agent>
      <dc:title>Matplotlib v3.7.1, https://matplotlib.org/</dc:title>
     </cc:Agent>
    </dc:creator>
   </cc:Work>
  </rdf:RDF>
 </metadata>
 <defs>
  <style type="text/css">*{stroke-linejoin: round; stroke-linecap: butt}</style>
 </defs>
 <g id="figure_1">
  <g id="patch_1">
   <path d="M 0 345.6 
L 460.8 345.6 
L 460.8 0 
L 0 0 
z
" style="fill: #ffffff"/>
  </g>
  <g id="axes_1">
   <g id="patch_2">
    <path d="M 70.826667 185.550222 
C 73.749794 185.550222 76.553591 184.388851 78.620555 182.321888 
C 80.687518 180.254925 81.848889 177.451128 81.848889 174.528 
C 81.848889 171.604872 80.687518 168.801075 78.620555 166.734112 
C 76.553591 164.667149 73.749794 163.505778 70.826667 163.505778 
C 67.903539 163.505778 65.099742 164.667149 63.032779 166.734112 
C 60.965815 168.801075 59.804444 171.604872 59.804444 174.528 
C 59.804444 177.451128 60.965815 180.254925 63.032779 182.321888 
C 65.099742 184.388851 67.903539 185.550222 70.826667 185.550222 
z
" clip-path="url(#pc9b7708063)" style="fill: #6399c7; stroke: #ffffff; stroke-linejoin: miter"/>
   </g>
   <g id="patch_3">
    <path d="M 92.871111 185.550222 
C 95.794239 185.550222 98.598036 184.388851 100.664999 182.321888 
C 102.731962 180.254925 103.893333 177.451128 103.893333 174.528 
C 103.893333 171.604872 102.731962 168.801075 100.664999 166.734112 
C 98.598036 164.667149 95.794239 163.505778 92.871111 163.505778 
C 89.947984 163.505778 87.144186 164.667149 85.077223 166.734112 
C 83.01026 168.801075 81.848889 171.604872 81.848889 174.528 
C 81.848889 177.451128 83.01026 180.254925 85.077223 182.321888 
C 87.144186 184.388851 89.947984 185.550222 92.871111 185.550222 
z
" clip-path="url(#pc9b7708063)" style="fill: #bde2ee; stroke: #ffffff; stroke-linejoin: miter"/>
   </g>
   <g id="patch_4">
    <path d="M 114.915556 185.550222 
C 117.838683 185.550222 120.64248 184.388851 122.709444 182.321888 
C 124.776407 180.254925 125.937778 177.451128 125.937778 174.528 
C 125.937778 171.604872 124.776407 168.801075 122.709444 166.734112 
C 120.64248 164.667149 117.838683 163.505778 114.915556 163.505778 
C 111.992428 163.505778 109.188631 164.667149 107.121667 166.734112 
C 105.054704 168.801075 103.893333 171.604872 103.893333 174.528 
C 103.893333 177.451128 105.054704 180.254925 107.121667 182.321888 
C 109.188631 184.388851 111.992428 185.550222 114.915556 185.550222 
z
" clip-path="url(#pc9b7708063)" style="fill: #fffebe; stroke: #ffffff; stroke-linejoin: miter"/>
   </g>
   <g id="patch_5">
    <path d="M 136.96 185.550222 
C 139.883128 185.550222 142.686925 184.388851 144.753888 182.321888 
C 146.820851 180.254925 147.982222 177.451128 147.982222 174.528 
C 147.982222 171.604872 146.820851 168.801075 144.753888 166.734112 
C 142.686925 164.667149 139.883128 163.505778 136.96 163.505778 
C 134.036872 163.505778 131.233075 164.667149 129.166112 166.734112 
C 127.099149 168.801075 125.937778 171.604872 125.937778 174.528 
C 125.937778 177.451128 127.099149 180.254925 129.166112 182.321888 
C 131.233075 184.388851 134.036872 185.550222 136.96 185.550222 
z
" clip-path="url(#pc9b7708063)" style="fill: #fdbf71; stroke: #ffffff; stroke-linejoin: miter"/>
   </g>
   <g id="patch_6">
    <path d="M 159.004444 185.550222 
C 161.927572 185.550222 164.731369 184.388851 166.798333 182.321888 
C 168.865296 180.254925 170.026667 177.451128 170.026667 174.528 
C 170.026667 171.604872 168.865296 168.801075 166.798333 166.734112 
C 164.731369 164.667149 161.927572 163.505778 159.004444 163.505778 
C 156.081317 163.505778 153.27752 164.667149 151.210556 166.734112 
C 149.143593 168.801075 147.982222 171.604872 147.982222 174.528 
C 147.982222 177.451128 149.143593 180.254925 151.210556 182.321888 
C 153.27752 184.388851 156.081317 185.550222 159.004444 185.550222 
z
" clip-path="url(#pc9b7708063)" style="fill: #ea5739; stroke: #ffffff; stroke-linejoin: miter"/>
   </g>
   <g id="patch_7">
    <path d="M 181.048889 185.550222 
C 183.972016 185.550222 186.775814 184.388851 188.842777 182.321888 
C 190.90974 180.254925 192.071111 177.451128 192.071111 174.528 
C 192.071111 171.604872 190.90974 168.801075 188.842777 166.734112 
C 186.775814 164.667149 183.972016 163.505778 181.048889 163.505778 
C 178.125761 163.505778 175.321964 164.667149 173.255001 166.734112 
C 171.188038 168.801075 170.026667 171.604872 170.026667 174.528 
C 170.026667 177.451128 171.188038 180.254925 173.255001 182.321888 
C 175.321964 184.388851 178.125761 185.550222 181.048889 185.550222 
z
" clip-path="url(#pc9b7708063)" style="fill: #6399c7; stroke: #ffffff; stroke-linejoin: miter"/>
   </g>
   <g id="patch_8">
    <path d="M 203.093333 185.550222 
C 206.016461 185.550222 208.820258 184.388851 210.887221 182.321888 
C 212.954185 180.254925 214.115556 177.451128 214.115556 174.528 
C 214.115556 171.604872 212.954185 168.801075 210.887221 166.734112 
C 208.820258 164.667149 206.016461 163.505778 203.093333 163.505778 
C 200.170206 163.505778 197.366409 164.667149 195.299445 166.734112 
C 193.232482 168.801075 192.071111 171.604872 192.071111 174.528 
C 192.071111 177.451128 193.232482 180.254925 195.299445 182.321888 
C 197.366409 184.388851 200.170206 185.550222 203.093333 185.550222 
z
" clip-path="url(#pc9b7708063)" style="fill: #bde2ee; stroke: #ffffff; stroke-linejoin: miter"/>
   </g>
   <g id="patch_9">
    <path d="M 225.137778 185.550222 
C 228.060905 185.550222 230.864703 184.388851 232.931666 182.321888 
C 234.998629 180.254925 236.16 177.451128 236.16 174.528 
C 236.16 171.604872 234.998629 168.801075 232.931666 166.734112 
C 230.864703 164.667149 228.060905 163.505778 225.137778 163.505778 
C 222.21465 163.505778 219.410853 164.667149 217.34389 166.734112 
C 215.276926 168.801075 214.115556 171.604872 214.115556 174.528 
C 214.115556 177.451128 215.276926 180.254925 217.34389 182.321888 
C 219.410853 184.388851 222.21465 185.550222 225.137778 185.550222 
z
" clip-path="url(#pc9b7708063)" style="fill: #fffebe; stroke: #ffffff; stroke-linejoin: miter"/>
   </g>
   <g id="patch_10">
    <path d="M 247.182222 185.550222 
C 250.10535 185.550222 252.909147 184.388851 254.97611 182.321888 
C 257.043074 180.254925 258.204444 177.451128 258.204444 174.528 
C 258.204444 171.604872 257.043074 168.801075 254.97611 166.734112 
C 252.909147 164.667149 250.10535 163.505778 247.182222 163.505778 
C 244.259095 163.505778 241.455297 164.667149 239.388334 166.734112 
C 237.321371 168.801075 236.16 171.604872 236.16 174.528 
C 236.16 177.451128 237.321371 180.254925 239.388334 182.321888 
C 241.455297 184.388851 244.259095 185.550222 247.182222 185.550222 
z
" clip-path="url(#pc9b7708063)" style="fill: #fdbf71; stroke: #ffffff; stroke-linejoin: miter"/>
   </g>
   <g id="patch_11">
    <path d="M 269.226667 185.550222 
C 272.149794 185.550222 274.953591 184.388851 277.020555 182.321888 
C 279.087518 180.254925 280.248889 177.451128 280.248889 174.528 
C 280.248889 171.604872 279.087518 168.801075 277.020555 166.734112 
C 274.953591 164.667149 272.149794 163.505778 269.226667 163.505778 
C 266.303539 163.505778 263.499742 164.667149 261.432779 166.734112 
C 259.365815 168.801075 258.204444 171.604872 258.204444 174.528 
C 258.204444 177.451128 259.365815 180.254925 261.432779 182.321888 
C 263.499742 184.388851 266.303539 185.550222 269.226667 185.550222 
z
" clip-path="url(#pc9b7708063)" style="fill: #ea5739; stroke: #ffffff; stroke-linejoin: miter"/>
   </g>
   <g id="patch_12">
    <path d="M 291.271111 185.550222 
C 294.194239 185.550222 296.998036 184.388851 299.064999 182.321888 
C 301.131962 180.254925 302.293333 177.451128 302.293333 174.528 
C 302.293333 171.604872 301.131962 168.801075 299.064999 166.734112 
C 296.998036 164.667149 294.194239 163.505778 291.271111 163.505778 
C 288.347984 163.505778 285.544186 164.667149 283.477223 166.734112 
C 281.41026 168.801075 280.248889 171.604872 280.248889 174.528 
C 280.248889 177.451128 281.41026 180.254925 283.477223 182.321888 
C 285.544186 184.388851 288.347984 185.550222 291.271111 185.550222 
z
" clip-path="url(#pc9b7708063)" style="fill: #6399c7; stroke: #ffffff; stroke-linejoin: miter"/>
   </g>
   <g id="patch_13">
    <path d="M 313.315556 185.550222 
C 316.238683 185.550222 319.04248 184.388851 321.109444 182.321888 
C 323.176407 180.254925 324.337778 177.451128 324.337778 174.528 
C 324.337778 171.604872 323.176407 168.801075 321.109444 166.734112 
C 319.04248 164.667149 316.238683 163.505778 313.315556 163.505778 
C 310.392428 163.505778 307.588631 164.667149 305.521667 166.734112 
C 303.454704 168.801075 302.293333 171.604872 302.293333 174.528 
C 302.293333 177.451128 303.454704 180.254925 305.521667 182.321888 
C 307.588631 184.388851 310.392428 185.550222 313.315556 185.550222 
z
" clip-path="url(#pc9b7708063)" style="fill: #bde2ee; stroke: #ffffff; stroke-linejoin: miter"/>
   </g>
   <g id="patch_14">
    <path d="M 335.36 185.550222 
C 338.283128 185.550222 341.086925 184.388851 343.153888 182.321888 
C 345.220851 180.254925 346.382222 177.451128 346.382222 174.528 
C 346.382222 171.604872 345.220851 168.801075 343.153888 166.734112 
C 341.086925 164.667149 338.283128 163.505778 335.36 163.505778 
C 332.436872 163.505778 329.633075 164.667149 327.566112 166.734112 
C 325.499149 168.801075 324.337778 171.604872 324.337778 174.528 
C 324.337778 177.451128 325.499149 180.254925 327.566112 182.321888 
C 329.633075 184.388851 332.436872 185.550222 335.36 185.550222 
z
" clip-path="url(#pc9b7708063)" style="fill: #fffebe; stroke: #ffffff; stroke-linejoin: miter"/>
   </g>
   <g id="patch_15">
    <path d="M 357.404444 185.550222 
C 360.327572 185.550222 363.131369 184.388851 365.198333 182.321888 
C 367.265296 180.254925 368.426667 177.451128 368.426667 174.528 
C 368.426667 171.604872 367.265296 168.801075 365.198333 166.734112 
C 363.131369 164.667149 360.327572 163.505778 357.404444 163.505778 
C 354.481317 163.505778 351.67752 164.667149 349.610556 166.734112 
C 347.543593 168.801075 346.382222 171.604872 346.382222 174.528 
C 346.382222 177.451128 347.543593 180.254925 349.610556 182.321888 
C 351.67752 184.388851 354.481317 185.550222 357.404444 185.550222 
z
" clip-path="url(#pc9b7708063)" style="fill: #fdbf71; stroke: #ffffff; stroke-linejoin: miter"/>
   </g>
   <g id="patch_16">
    <path d="M 379.448889 185.550222 
C 382.372016 185.550222 385.175814 184.388851 387.242777 182.321888 
C 389.30974 180.254925 390.471111 177.451128 390.471111 174.528 
C 390.471111 171.604872 389.30974 168.801075 387.242777 166.734112 
C 385.175814 164.667149 382.372016 163.505778 379.448889 163.505778 
C 376.525761 163.505778 373.721964 164.667149 371.655001 166.734112 
C 369.588038 168.801075 368.426667 171.604872 368.426667 174.528 
C 368.426667 177.451128 369.588038 180.254925 371.655001 182.321888 
C 373.721964 184.388851 376.525761 185.550222 379.448889 185.550222 
z
" clip-path="url(#pc9b7708063)" style="fill: #ea5739; stroke: #ffffff; stroke-linejoin: miter"/>
   </g>
   <g id="text_1">
    <!-- -2.0 -->
    <g transform="translate(61.071198 177.287375) scale(0.1 -0.1)">
     <defs>
      <path id="DejaVuSans-2d" d="M 313 2009 
L 1997 2009 
L 1997 1497 
L 313 1497 
L 313 2009 
z
" transform="scale(0.015625)"/>
      <path id="DejaVuSans-32" d="M 1228 531 
L 3431 531 
L 3431 0 
L 469 0 
L 469 531 
Q 828 903 1448 1529 
Q 2069 2156 2228 2338 
Q 2531 2678 2651 2914 
Q 2772 3150 2772 3378 
Q 2772 3750 2511 3984 
Q 2250 4219 1831 4219 
Q 1534 4219 1204 4116 
Q 875 4013 500 3803 
L 500 4441 
Q 881 4594 1212 4672 
Q 1544 4750 1819 4750 
Q 2544 4750 2975 4387 
Q 3406 4025 3406 3419 
Q 3406 3131 3298 2873 
Q 3191 2616 2906 2266 
Q 2828 2175 2409 1742 
Q 1991 1309 1228 531 
z
" transform="scale(0.015625)"/>
      <path id="DejaVuSans-2e" d="M 684 794 
L 1344 794 
L 1344 0 
L 684 0 
L 684 794 
z
" transform="scale(0.015625)"/>
      <path id="DejaVuSans-30" d="M 2034 4250 
Q 1547 4250 1301 3770 
Q 1056 3291 1056 2328 
Q 1056 1369 1301 889 
Q 1547 409 2034 409 
Q 2525 409 2770 889 
Q 3016 1369 3016 2328 
Q 3016 3291 2770 3770 
Q 2525 4250 2034 4250 
z
M 2034 4750 
Q 2819 4750 3233 4129 
Q 3647 3509 3647 2328 
Q 3647 1150 3233 529 
Q 2819 -91 2034 -91 
Q 1250 -91 836 529 
Q 422 1150 422 2328 
Q 422 3509 836 4129 
Q 1250 4750 2034 4750 
z
" transform="scale(0.015625)"/>
     </defs>
     <use xlink:href="#DejaVuSans-2d"/>
     <use xlink:href="#DejaVuSans-32" x="36.083984"/>
     <use xlink:href="#DejaVuSans-2e" x="99.707031"/>
     <use xlink:href="#DejaVuSans-30" x="131.494141"/>
    </g>
   </g>
   <g id="text_2">
    <!-- -1.0 -->
    <g transform="translate(83.115642 177.287375) scale(0.1 -0.1)">
     <defs>
      <path id="DejaVuSans-31" d="M 794 531 
L 1825 531 
L 1825 4091 
L 703 3866 
L 703 4441 
L 1819 4666 
L 2450 4666 
L 2450 531 
L 3481 531 
L 3481 0 
L 794 0 
L 794 531 
z
" transform="scale(0.015625)"/>
     </defs>
     <use xlink:href="#DejaVuSans-2d"/>
     <use xlink:href="#DejaVuSans-31" x="36.083984"/>
     <use xlink:href="#DejaVuSans-2e" x="99.707031"/>
     <use xlink:href="#DejaVuSans-30" x="131.494141"/>
    </g>
   </g>
   <g id="text_3">
    <!-- 0.0 -->
    <g transform="translate(106.963993 177.287375) scale(0.1 -0.1)">
     <use xlink:href="#DejaVuSans-30"/>
     <use xlink:href="#DejaVuSans-2e" x="63.623047"/>
     <use xlink:href="#DejaVuSans-30" x="95.410156"/>
    </g>
   </g>
   <g id="text_4">
    <!-- 1.0 -->
    <g transform="translate(129.008437 177.287375) scale(0.1 -0.1)">
     <use xlink:href="#DejaVuSans-31"/>
     <use xlink:href="#DejaVuSans-2e" x="63.623047"/>
     <use xlink:href="#DejaVuSans-30" x="95.410156"/>
    </g>
   </g>
   <g id="text_5">
    <!-- 2.0 -->
    <g transform="translate(151.052882 177.287375) scale(0.1 -0.1)">
     <use xlink:href="#DejaVuSans-32"/>
     <use xlink:href="#DejaVuSans-2e" x="63.623047"/>
     <use xlink:href="#DejaVuSans-30" x="95.410156"/>
    </g>
   </g>
   <g id="text_6">
    <!-- -2.0 -->
    <g transform="translate(171.29342 177.287375) scale(0.1 -0.1)">
     <use xlink:href="#DejaVuSans-2d"/>
     <use xlink:href="#DejaVuSans-32" x="36.083984"/>
     <use xlink:href="#DejaVuSans-2e" x="99.707031"/>
     <use xlink:href="#DejaVuSans-30" x="131.494141"/>
    </g>
   </g>
   <g id="text_7">
    <!-- -1.0 -->
    <g transform="translate(193.337865 177.287375) scale(0.1 -0.1)">
     <use xlink:href="#DejaVuSans-2d"/>
     <use xlink:href="#DejaVuSans-31" x="36.083984"/>
     <use xlink:href="#DejaVuSans-2e" x="99.707031"/>
     <use xlink:href="#DejaVuSans-30" x="131.494141"/>
    </g>
   </g>
   <g id="text_8">
    <!-- 0.0 -->
    <g transform="translate(217.186215 177.287375) scale(0.1 -0.1)">
     <use xlink:href="#DejaVuSans-30"/>
     <use xlink:href="#DejaVuSans-2e" x="63.623047"/>
     <use xlink:href="#DejaVuSans-30" x="95.410156"/>
    </g>
   </g>
   <g id="text_9">
    <!-- 1.0 -->
    <g transform="translate(239.23066 177.287375) scale(0.1 -0.1)">
     <use xlink:href="#DejaVuSans-31"/>
     <use xlink:href="#DejaVuSans-2e" x="63.623047"/>
     <use xlink:href="#DejaVuSans-30" x="95.410156"/>
    </g>
   </g>
   <g id="text_10">
    <!-- 2.0 -->
    <g transform="translate(261.275104 177.287375) scale(0.1 -0.1)">
     <use xlink:href="#DejaVuSans-32"/>
     <use xlink:href="#DejaVuSans-2e" x="63.623047"/>
     <use xlink:href="#DejaVuSans-30" x="95.410156"/>
    </g>
   </g>
   <g id="text_11">
    <!-- -2.0 -->
    <g transform="translate(281.515642 177.287375) scale(0.1 -0.1)">
     <use xlink:href="#DejaVuSans-2d"/>
     <use xlink:href="#DejaVuSans-32" x="36.083984"/>
     <use xlink:href="#DejaVuSans-2e" x="99.707031"/>
     <use xlink:href="#DejaVuSans-30" x="131.494141"/>
    </g>
   </g>
   <g id="text_12">
    <!-- -1.0 -->
    <g transform="translate(303.560087 177.287375) scale(0.1 -0.1)">
     <use xlink:href="#DejaVuSans-2d"/>
     <use xlink:href="#DejaVuSans-31" x="36.083984"/>
     <use xlink:href="#DejaVuSans-2e" x="99.707031"/>
     <use xlink:href="#DejaVuSans-30" x="131.494141"/>
    </g>
   </g>
   <g id="text_13">
    <!-- 0.0 -->
    <g transform="translate(327.408437 177.287375) scale(0.1 -0.1)">
     <use xlink:href="#DejaVuSans-30"/>
     <use xlink:href="#DejaVuSans-2e" x="63.623047"/>
     <use xlink:href="#DejaVuSans-30" x="95.410156"/>
    </g>
   </g>
   <g id="text_14">
    <!-- 1.0 -->
    <g transform="translate(349.452882 177.287375) scale(0.1 -0.1)">
     <use xlink:href="#DejaVuSans-31"/>
     <use xlink:href="#DejaVuSans-2e" x="63.623047"/>
     <use xlink:href="#DejaVuSans-30" x="95.410156"/>
    </g>
   </g>
   <g id="text_15">
    <!-- 2.0 -->
    <g transform="translate(371.497326 177.287375) scale(0.1 -0.1)">
     <use xlink:href="#DejaVuSans-32"/>
     <use xlink:href="#DejaVuSans-2e" x="63.623047"/>
     <use xlink:href="#DejaVuSans-30" x="95.410156"/>
    </g>
   </g>
  </g>
 </g>
 <defs>
  <clipPath id="pc9b7708063">
   <rect x="57.6" y="161.301333" width="357.12" height="26.453333"/>
  </clipPath>
 </defs>
</svg>
