<?xml version="1.0" encoding="utf-8" standalone="no"?>
<!DOCTYPE svg PUBLIC "-//W3C//DTD SVG 1.1//EN"
  "http://www.w3.org/Graphics/SVG/1.1/DTD/svg11.dtd">
<svg xmlns:xlink="http://www.w3.org/1999/xlink" width="360pt" height="72pt" viewBox="0 0 360 72" xmlns="http://www.w3.org/2000/svg" version="1.1">
 <metadata>
  <rdf:RDF xmlns:dc="http://purl.org/dc/elements/1.1/" xmlns:cc="http://creativecommons.org/ns#" xmlns:rdf="http://www.w3.org/1999/02/22-rdf-syntax-ns#">
   <cc:Work>
    <dc:type rdf:resource="http://purl.org/dc/dcmitype/StillImage"/>
    <dc:date>2023-08-25T13:38:11.991219</dc:date>
    <dc:format>image/svg+xml</dc:format>
    <dc:creator>
     <cc:Agent>
      <dc:title>Matplotlib v3.7.1, https://matplotlib.org/</dc:title>
     </cc:Agent>
    </dc:creator>
   </cc:Work>
  </rdf:RDF>
 </metadata>
 <defs>
  <style type="text/css">*{stroke-linejoin: round; stroke-linecap: butt}</style>
 </defs>
 <g id="figure_1">
  <g id="patch_1">
   <path d="M 0 72 
L 360 72 
L 360 0 
L 0 0 
z
" style="fill: #ffffff"/>
  </g>
  <g id="axes_1">
   <g id="patch_2">
    <path d="M 45.9 64.08 
L 323.1 64.08 
L 323.1 8.64 
L 45.9 8.64 
z
" style="fill: #ffffff"/>
   </g>
   <g id="QuadMesh_1">
    <path d="M 45.9 8.64 
L 73.62 8.64 
L 73.62 36.36 
L 45.9 36.36 
L 45.9 8.64 
" clip-path="url(#p6da58ffa1b)" style="fill: #6399c7; stroke: #ffffff; stroke-width: 0.5"/>
    <path d="M 73.62 8.64 
L 101.34 8.64 
L 101.34 36.36 
L 73.62 36.36 
L 73.62 8.64 
" clip-path="url(#p6da58ffa1b)" style="fill: #bde2ee; stroke: #ffffff; stroke-width: 0.5"/>
    <path d="M 101.34 8.64 
L 129.06 8.64 
L 129.06 36.36 
L 101.34 36.36 
L 101.34 8.64 
" clip-path="url(#p6da58ffa1b)" style="fill: #fffebe; stroke: #ffffff; stroke-width: 0.5"/>
    <path d="M 129.06 8.64 
L 156.78 8.64 
L 156.78 36.36 
L 129.06 36.36 
L 129.06 8.64 
" clip-path="url(#p6da58ffa1b)" style="fill: #fdbf71; stroke: #ffffff; stroke-width: 0.5"/>
    <path d="M 156.78 8.64 
L 184.5 8.64 
L 184.5 36.36 
L 156.78 36.36 
L 156.78 8.64 
" clip-path="url(#p6da58ffa1b)" style="fill: #ea5739; stroke: #ffffff; stroke-width: 0.5"/>
    <path d="M 184.5 8.64 
L 212.22 8.64 
L 212.22 36.36 
L 184.5 36.36 
L 184.5 8.64 
" clip-path="url(#p6da58ffa1b)" style="fill: #6399c7; stroke: #ffffff; stroke-width: 0.5"/>
    <path d="M 212.22 8.64 
L 239.94 8.64 
L 239.94 36.36 
L 212.22 36.36 
L 212.22 8.64 
" clip-path="url(#p6da58ffa1b)" style="fill: #bde2ee; stroke: #ffffff; stroke-width: 0.5"/>
    <path d="M 239.94 8.64 
L 267.66 8.64 
L 267.66 36.36 
L 239.94 36.36 
L 239.94 8.64 
" clip-path="url(#p6da58ffa1b)" style="fill: #fffebe; stroke: #ffffff; stroke-width: 0.5"/>
    <path d="M 267.66 8.64 
L 295.38 8.64 
L 295.38 36.36 
L 267.66 36.36 
L 267.66 8.64 
" clip-path="url(#p6da58ffa1b)" style="fill: #fdbf71; stroke: #ffffff; stroke-width: 0.5"/>
    <path d="M 295.38 8.64 
L 323.1 8.64 
L 323.1 36.36 
L 295.38 36.36 
L 295.38 8.64 
" clip-path="url(#p6da58ffa1b)" style="fill: #ea5739; stroke: #ffffff; stroke-width: 0.5"/>
    <path d="M 45.9 36.36 
L 73.62 36.36 
L 73.62 64.08 
L 45.9 64.08 
L 45.9 36.36 
" clip-path="url(#p6da58ffa1b)" style="fill: #6399c7; stroke: #ffffff; stroke-width: 0.5"/>
    <path d="M 73.62 36.36 
L 101.34 36.36 
L 101.34 64.08 
L 73.62 64.08 
L 73.62 36.36 
" clip-path="url(#p6da58ffa1b)" style="fill: #bde2ee; stroke: #ffffff; stroke-width: 0.5"/>
    <path d="M 101.34 36.36 
L 129.06 36.36 
L 129.06 64.08 
L 101.34 64.08 
L 101.34 36.36 
" clip-path="url(#p6da58ffa1b)" style="fill: #fffebe; stroke: #ffffff; stroke-width: 0.5"/>
    <path d="M 129.06 36.36 
L 156.78 36.36 
L 156.78 64.08 
L 129.06 64.08 
L 129.06 36.36 
" clip-path="url(#p6da58ffa1b)" style="fill: #fdbf71; stroke: #ffffff; stroke-width: 0.5"/>
    <path d="M 156.78 36.36 
L 184.5 36.36 
L 184.5 64.08 
L 156.78 64.08 
L 156.78 36.36 
" clip-path="url(#p6da58ffa1b)" style="fill: #ea5739; stroke: #ffffff; stroke-width: 0.5"/>
    <path d="M 184.5 36.36 
L 212.22 36.36 
L 212.22 64.08 
L 184.5 64.08 
L 184.5 36.36 
" clip-path="url(#p6da58ffa1b)" style="fill: #6399c7; stroke: #ffffff; stroke-width: 0.5"/>
    <path d="M 212.22 36.36 
L 239.94 36.36 
L 239.94 64.08 
L 212.22 64.08 
L 212.22 36.36 
" clip-path="url(#p6da58ffa1b)" style="fill: #bde2ee; stroke: #ffffff; stroke-width: 0.5"/>
    <path d="M 239.94 36.36 
L 267.66 36.36 
L 267.66 64.08 
L 239.94 64.08 
L 239.94 36.36 
" clip-path="url(#p6da58ffa1b)" style="fill: #fffebe; stroke: #ffffff; stroke-width: 0.5"/>
    <path d="M 267.66 36.36 
L 295.38 36.36 
L 295.38 64.08 
L 267.66 64.08 
L 267.66 36.36 
" clip-path="url(#p6da58ffa1b)" style="fill: #fdbf71; stroke: #ffffff; stroke-width: 0.5"/>
    <path d="M 295.38 36.36 
L 323.1 36.36 
L 323.1 64.08 
L 295.38 64.08 
L 295.38 36.36 
" clip-path="url(#p6da58ffa1b)" style="fill: #ea5739; stroke: #ffffff; stroke-width: 0.5"/>
   </g>
   <g id="matplotlib.axis_1"/>
   <g id="matplotlib.axis_2"/>
   <g id="text_1">
    <!-- -2 -->
    <g style="fill: #ffffff" transform="translate(54.774844 25.259375) scale(0.1 -0.1)">
     <defs>
      <path id="DejaVuSans-2d" d="M 313 2009 
L 1997 2009 
L 1997 1497 
L 313 1497 
L 313 2009 
z
" transform="scale(0.015625)"/>
      <path id="DejaVuSans-32" d="M 1228 531 
L 3431 531 
L 3431 0 
L 469 0 
L 469 531 
Q 828 903 1448 1529 
Q 2069 2156 2228 2338 
Q 2531 2678 2651 2914 
Q 2772 3150 2772 3378 
Q 2772 3750 2511 3984 
Q 2250 4219 1831 4219 
Q 1534 4219 1204 4116 
Q 875 4013 500 3803 
L 500 4441 
Q 881 4594 1212 4672 
Q 1544 4750 1819 4750 
Q 2544 4750 2975 4387 
Q 3406 4025 3406 3419 
Q 3406 3131 3298 2873 
Q 3191 2616 2906 2266 
Q 2828 2175 2409 1742 
Q 1991 1309 1228 531 
z
" transform="scale(0.015625)"/>
     </defs>
     <use xlink:href="#DejaVuSans-2d"/>
     <use xlink:href="#DejaVuSans-32" x="36.083984"/>
    </g>
   </g>
   <g id="text_2">
    <!-- -1 -->
    <g style="fill: #262626" transform="translate(82.494844 25.259375) scale(0.1 -0.1)">
     <defs>
      <path id="DejaVuSans-31" d="M 794 531 
L 1825 531 
L 1825 4091 
L 703 3866 
L 703 4441 
L 1819 4666 
L 2450 4666 
L 2450 531 
L 3481 531 
L 3481 0 
L 794 0 
L 794 531 
z
" transform="scale(0.015625)"/>
     </defs>
     <use xlink:href="#DejaVuSans-2d"/>
     <use xlink:href="#DejaVuSans-31" x="36.083984"/>
    </g>
   </g>
   <g id="text_3">
    <!-- 0 -->
    <g style="fill: #262626" transform="translate(112.01875 25.259375) scale(0.1 -0.1)">
     <defs>
      <path id="DejaVuSans-30" d="M 2034 4250 
Q 1547 4250 1301 3770 
Q 1056 3291 1056 2328 
Q 1056 1369 1301 889 
Q 1547 409 2034 409 
Q 2525 409 2770 889 
Q 3016 1369 3016 2328 
Q 3016 3291 2770 3770 
Q 2525 4250 2034 4250 
z
M 2034 4750 
Q 2819 4750 3233 4129 
Q 3647 3509 3647 2328 
Q 3647 1150 3233 529 
Q 2819 -91 2034 -91 
Q 1250 -91 836 529 
Q 422 1150 422 2328 
Q 422 3509 836 4129 
Q 1250 4750 2034 4750 
z
" transform="scale(0.015625)"/>
     </defs>
     <use xlink:href="#DejaVuSans-30"/>
    </g>
   </g>
   <g id="text_4">
    <!-- 1 -->
    <g style="fill: #262626" transform="translate(139.73875 25.259375) scale(0.1 -0.1)">
     <use xlink:href="#DejaVuSans-31"/>
    </g>
   </g>
   <g id="text_5">
    <!-- 2 -->
    <g style="fill: #ffffff" transform="translate(167.45875 25.259375) scale(0.1 -0.1)">
     <use xlink:href="#DejaVuSans-32"/>
    </g>
   </g>
   <g id="text_6">
    <!-- -2 -->
    <g style="fill: #ffffff" transform="translate(193.374844 25.259375) scale(0.1 -0.1)">
     <use xlink:href="#DejaVuSans-2d"/>
     <use xlink:href="#DejaVuSans-32" x="36.083984"/>
    </g>
   </g>
   <g id="text_7">
    <!-- -1 -->
    <g style="fill: #262626" transform="translate(221.094844 25.259375) scale(0.1 -0.1)">
     <use xlink:href="#DejaVuSans-2d"/>
     <use xlink:href="#DejaVuSans-31" x="36.083984"/>
    </g>
   </g>
   <g id="text_8">
    <!-- 0 -->
    <g style="fill: #262626" transform="translate(250.61875 25.259375) scale(0.1 -0.1)">
     <use xlink:href="#DejaVuSans-30"/>
    </g>
   </g>
   <g id="text_9">
    <!-- 1 -->
    <g style="fill: #262626" transform="translate(278.33875 25.259375) scale(0.1 -0.1)">
     <use xlink:href="#DejaVuSans-31"/>
    </g>
   </g>
   <g id="text_10">
    <!-- 2 -->
    <g style="fill: #ffffff" transform="translate(306.05875 25.259375) scale(0.1 -0.1)">
     <use xlink:href="#DejaVuSans-32"/>
    </g>
   </g>
   <g id="text_11">
    <!-- -2 -->
    <g style="fill: #ffffff" transform="translate(54.774844 52.979375) scale(0.1 -0.1)">
     <use xlink:href="#DejaVuSans-2d"/>
     <use xlink:href="#DejaVuSans-32" x="36.083984"/>
    </g>
   </g>
   <g id="text_12">
    <!-- -1 -->
    <g style="fill: #262626" transform="translate(82.494844 52.979375) scale(0.1 -0.1)">
     <use xlink:href="#DejaVuSans-2d"/>
     <use xlink:href="#DejaVuSans-31" x="36.083984"/>
    </g>
   </g>
   <g id="text_13">
    <!-- 0 -->
    <g style="fill: #262626" transform="translate(112.01875 52.979375) scale(0.1 -0.1)">
     <use xlink:href="#DejaVuSans-30"/>
    </g>
   </g>
   <g id="text_14">
    <!-- 1 -->
    <g style="fill: #262626" transform="translate(139.73875 52.979375) scale(0.1 -0.1)">
     <use xlink:href="#DejaVuSans-31"/>
    </g>
   </g>
   <g id="text_15">
    <!-- 2 -->
    <g style="fill: #ffffff" transform="translate(167.45875 52.979375) scale(0.1 -0.1)">
     <use xlink:href="#DejaVuSans-32"/>
    </g>
   </g>
   <g id="text_16">
    <!-- -2 -->
    <g style="fill: #ffffff" transform="translate(193.374844 52.979375) scale(0.1 -0.1)">
     <use xlink:href="#DejaVuSans-2d"/>
     <use xlink:href="#DejaVuSans-32" x="36.083984"/>
    </g>
   </g>
   <g id="text_17">
    <!-- -1 -->
    <g style="fill: #262626" transform="translate(221.094844 52.979375) scale(0.1 -0.1)">
     <use xlink:href="#DejaVuSans-2d"/>
     <use xlink:href="#DejaVuSans-31" x="36.083984"/>
    </g>
   </g>
   <g id="text_18">
    <!-- 0 -->
    <g style="fill: #262626" transform="translate(250.61875 52.979375) scale(0.1 -0.1)">
     <use xlink:href="#DejaVuSans-30"/>
    </g>
   </g>
   <g id="text_19">
    <!-- 1 -->
    <g style="fill: #262626" transform="translate(278.33875 52.979375) scale(0.1 -0.1)">
     <use xlink:href="#DejaVuSans-31"/>
    </g>
   </g>
   <g id="text_20">
    <!-- 2 -->
    <g style="fill: #ffffff" transform="translate(306.05875 52.979375) scale(0.1 -0.1)">
     <use xlink:href="#DejaVuSans-32"/>
    </g>
   </g>
  </g>
 </g>
 <defs>
  <clipPath id="p6da58ffa1b">
   <rect x="45.9" y="8.64" width="277.2" height="55.44"/>
  </clipPath>
 </defs>
</svg>
