<?xml version="1.0" encoding="utf-8" standalone="no"?>
<!DOCTYPE svg PUBLIC "-//W3C//DTD SVG 1.1//EN"
  "http://www.w3.org/Graphics/SVG/1.1/DTD/svg11.dtd">
<svg xmlns:xlink="http://www.w3.org/1999/xlink" width="216pt" height="72pt" viewBox="0 0 216 72" xmlns="http://www.w3.org/2000/svg" version="1.1">
 <metadata>
  <rdf:RDF xmlns:dc="http://purl.org/dc/elements/1.1/" xmlns:cc="http://creativecommons.org/ns#" xmlns:rdf="http://www.w3.org/1999/02/22-rdf-syntax-ns#">
   <cc:Work>
    <dc:type rdf:resource="http://purl.org/dc/dcmitype/StillImage"/>
    <dc:date>2023-08-25T13:38:10.855147</dc:date>
    <dc:format>image/svg+xml</dc:format>
    <dc:creator>
     <cc:Agent>
      <dc:title>Matplotlib v3.7.1, https://matplotlib.org/</dc:title>
     </cc:Agent>
    </dc:creator>
   </cc:Work>
  </rdf:RDF>
 </metadata>
 <defs>
  <style type="text/css">*{stroke-linejoin: round; stroke-linecap: butt}</style>
 </defs>
 <g id="figure_1">
  <g id="patch_1">
   <path d="M 0 72 
L 216 72 
L 216 0 
L 0 0 
z
" style="fill: #ffffff"/>
  </g>
  <g id="axes_1">
   <g id="patch_2">
    <path d="M 41.4 64.08 
L 180 64.08 
L 180 8.64 
L 41.4 8.64 
z
" style="fill: #ffffff"/>
   </g>
   <g id="QuadMesh_1">
    <path d="M 41.4 8.64 
L 69.12 8.64 
L 69.12 36.36 
L 41.4 36.36 
L 41.4 8.64 
" clip-path="url(#p35d961f866)" style="fill: #fee090; stroke: #ffffff; stroke-width: 0.5"/>
    <path d="M 69.12 8.64 
L 96.84 8.64 
L 96.84 36.36 
L 69.12 36.36 
L 69.12 8.64 
" clip-path="url(#p35d961f866)" style="fill: #fdad60; stroke: #ffffff; stroke-width: 0.5"/>
    <path d="M 96.84 8.64 
L 124.56 8.64 
L 124.56 36.36 
L 96.84 36.36 
L 96.84 8.64 
" clip-path="url(#p35d961f866)" style="fill: #f46d43; stroke: #ffffff; stroke-width: 0.5"/>
    <path d="M 124.56 8.64 
L 152.28 8.64 
L 152.28 36.36 
L 124.56 36.36 
L 124.56 8.64 
" clip-path="url(#p35d961f866)" style="fill: #d62f27; stroke: #ffffff; stroke-width: 0.5"/>
    <path d="M 152.28 8.64 
L 180 8.64 
L 180 36.36 
L 152.28 36.36 
L 152.28 8.64 
" clip-path="url(#p35d961f866)" style="fill: #a50026; stroke: #ffffff; stroke-width: 0.5"/>
    <path d="M 41.4 36.36 
L 69.12 36.36 
L 69.12 64.08 
L 41.4 64.08 
L 41.4 36.36 
" clip-path="url(#p35d961f866)" style="fill: #313695; stroke: #ffffff; stroke-width: 0.5"/>
    <path d="M 69.12 36.36 
L 96.84 36.36 
L 96.84 64.08 
L 69.12 64.08 
L 69.12 36.36 
" clip-path="url(#p35d961f866)" style="fill: #4574b3; stroke: #ffffff; stroke-width: 0.5"/>
    <path d="M 96.84 36.36 
L 124.56 36.36 
L 124.56 64.08 
L 96.84 64.08 
L 96.84 36.36 
" clip-path="url(#p35d961f866)" style="fill: #74add1; stroke: #ffffff; stroke-width: 0.5"/>
    <path d="M 124.56 36.36 
L 152.28 36.36 
L 152.28 64.08 
L 124.56 64.08 
L 124.56 36.36 
" clip-path="url(#p35d961f866)" style="fill: #aad8e9; stroke: #ffffff; stroke-width: 0.5"/>
    <path d="M 152.28 36.36 
L 180 36.36 
L 180 64.08 
L 152.28 64.08 
L 152.28 36.36 
" clip-path="url(#p35d961f866)" style="fill: #e0f3f8; stroke: #ffffff; stroke-width: 0.5"/>
   </g>
   <g id="matplotlib.axis_1"/>
   <g id="matplotlib.axis_2"/>
   <g id="text_1">
    <!-- 1 -->
    <g style="fill: #262626" transform="translate(52.07875 25.259375) scale(0.1 -0.1)">
     <defs>
      <path id="DejaVuSans-31" d="M 794 531 
L 1825 531 
L 1825 4091 
L 703 3866 
L 703 4441 
L 1819 4666 
L 2450 4666 
L 2450 531 
L 3481 531 
L 3481 0 
L 794 0 
L 794 531 
z
" transform="scale(0.015625)"/>
     </defs>
     <use xlink:href="#DejaVuSans-31"/>
    </g>
   </g>
   <g id="text_2">
    <!-- 2 -->
    <g style="fill: #262626" transform="translate(79.79875 25.259375) scale(0.1 -0.1)">
     <defs>
      <path id="DejaVuSans-32" d="M 1228 531 
L 3431 531 
L 3431 0 
L 469 0 
L 469 531 
Q 828 903 1448 1529 
Q 2069 2156 2228 2338 
Q 2531 2678 2651 2914 
Q 2772 3150 2772 3378 
Q 2772 3750 2511 3984 
Q 2250 4219 1831 4219 
Q 1534 4219 1204 4116 
Q 875 4013 500 3803 
L 500 4441 
Q 881 4594 1212 4672 
Q 1544 4750 1819 4750 
Q 2544 4750 2975 4387 
Q 3406 4025 3406 3419 
Q 3406 3131 3298 2873 
Q 3191 2616 2906 2266 
Q 2828 2175 2409 1742 
Q 1991 1309 1228 531 
z
" transform="scale(0.015625)"/>
     </defs>
     <use xlink:href="#DejaVuSans-32"/>
    </g>
   </g>
   <g id="text_3">
    <!-- 3 -->
    <g style="fill: #ffffff" transform="translate(107.51875 25.259375) scale(0.1 -0.1)">
     <defs>
      <path id="DejaVuSans-33" d="M 2597 2516 
Q 3050 2419 3304 2112 
Q 3559 1806 3559 1356 
Q 3559 666 3084 287 
Q 2609 -91 1734 -91 
Q 1441 -91 1130 -33 
Q 819 25 488 141 
L 488 750 
Q 750 597 1062 519 
Q 1375 441 1716 441 
Q 2309 441 2620 675 
Q 2931 909 2931 1356 
Q 2931 1769 2642 2001 
Q 2353 2234 1838 2234 
L 1294 2234 
L 1294 2753 
L 1863 2753 
Q 2328 2753 2575 2939 
Q 2822 3125 2822 3475 
Q 2822 3834 2567 4026 
Q 2313 4219 1838 4219 
Q 1578 4219 1281 4162 
Q 984 4106 628 3988 
L 628 4550 
Q 988 4650 1302 4700 
Q 1616 4750 1894 4750 
Q 2613 4750 3031 4423 
Q 3450 4097 3450 3541 
Q 3450 3153 3228 2886 
Q 3006 2619 2597 2516 
z
" transform="scale(0.015625)"/>
     </defs>
     <use xlink:href="#DejaVuSans-33"/>
    </g>
   </g>
   <g id="text_4">
    <!-- 4 -->
    <g style="fill: #ffffff" transform="translate(135.23875 25.259375) scale(0.1 -0.1)">
     <defs>
      <path id="DejaVuSans-34" d="M 2419 4116 
L 825 1625 
L 2419 1625 
L 2419 4116 
z
M 2253 4666 
L 3047 4666 
L 3047 1625 
L 3713 1625 
L 3713 1100 
L 3047 1100 
L 3047 0 
L 2419 0 
L 2419 1100 
L 313 1100 
L 313 1709 
L 2253 4666 
z
" transform="scale(0.015625)"/>
     </defs>
     <use xlink:href="#DejaVuSans-34"/>
    </g>
   </g>
   <g id="text_5">
    <!-- 5 -->
    <g style="fill: #ffffff" transform="translate(162.95875 25.259375) scale(0.1 -0.1)">
     <defs>
      <path id="DejaVuSans-35" d="M 691 4666 
L 3169 4666 
L 3169 4134 
L 1269 4134 
L 1269 2991 
Q 1406 3038 1543 3061 
Q 1681 3084 1819 3084 
Q 2600 3084 3056 2656 
Q 3513 2228 3513 1497 
Q 3513 744 3044 326 
Q 2575 -91 1722 -91 
Q 1428 -91 1123 -41 
Q 819 9 494 109 
L 494 744 
Q 775 591 1075 516 
Q 1375 441 1709 441 
Q 2250 441 2565 725 
Q 2881 1009 2881 1497 
Q 2881 1984 2565 2268 
Q 2250 2553 1709 2553 
Q 1456 2553 1204 2497 
Q 953 2441 691 2322 
L 691 4666 
z
" transform="scale(0.015625)"/>
     </defs>
     <use xlink:href="#DejaVuSans-35"/>
    </g>
   </g>
   <g id="text_6">
    <!-- -5 -->
    <g style="fill: #ffffff" transform="translate(50.274844 52.979375) scale(0.1 -0.1)">
     <defs>
      <path id="DejaVuSans-2d" d="M 313 2009 
L 1997 2009 
L 1997 1497 
L 313 1497 
L 313 2009 
z
" transform="scale(0.015625)"/>
     </defs>
     <use xlink:href="#DejaVuSans-2d"/>
     <use xlink:href="#DejaVuSans-35" x="36.083984"/>
    </g>
   </g>
   <g id="text_7">
    <!-- -4 -->
    <g style="fill: #ffffff" transform="translate(77.994844 52.979375) scale(0.1 -0.1)">
     <use xlink:href="#DejaVuSans-2d"/>
     <use xlink:href="#DejaVuSans-34" x="36.083984"/>
    </g>
   </g>
   <g id="text_8">
    <!-- -3 -->
    <g style="fill: #ffffff" transform="translate(105.714844 52.979375) scale(0.1 -0.1)">
     <use xlink:href="#DejaVuSans-2d"/>
     <use xlink:href="#DejaVuSans-33" x="36.083984"/>
    </g>
   </g>
   <g id="text_9">
    <!-- -2 -->
    <g style="fill: #262626" transform="translate(133.434844 52.979375) scale(0.1 -0.1)">
     <use xlink:href="#DejaVuSans-2d"/>
     <use xlink:href="#DejaVuSans-32" x="36.083984"/>
    </g>
   </g>
   <g id="text_10">
    <!-- -1 -->
    <g style="fill: #262626" transform="translate(161.154844 52.979375) scale(0.1 -0.1)">
     <use xlink:href="#DejaVuSans-2d"/>
     <use xlink:href="#DejaVuSans-31" x="36.083984"/>
    </g>
   </g>
  </g>
 </g>
 <defs>
  <clipPath id="p35d961f866">
   <rect x="41.4" y="8.64" width="138.6" height="55.44"/>
  </clipPath>
 </defs>
</svg>
