<?xml version="1.0" encoding="utf-8" standalone="no"?>
<!DOCTYPE svg PUBLIC "-//W3C//DTD SVG 1.1//EN"
  "http://www.w3.org/Graphics/SVG/1.1/DTD/svg11.dtd">
<svg xmlns:xlink="http://www.w3.org/1999/xlink" width="460.8pt" height="345.6pt" viewBox="0 0 460.8 345.6" xmlns="http://www.w3.org/2000/svg" version="1.1">
 <metadata>
  <rdf:RDF xmlns:dc="http://purl.org/dc/elements/1.1/" xmlns:cc="http://creativecommons.org/ns#" xmlns:rdf="http://www.w3.org/1999/02/22-rdf-syntax-ns#">
   <cc:Work>
    <dc:type rdf:resource="http://purl.org/dc/dcmitype/StillImage"/>
    <dc:date>2023-08-16T15:53:40.894380</dc:date>
    <dc:format>image/svg+xml</dc:format>
    <dc:creator>
     <cc:Agent>
      <dc:title>Matplotlib v3.7.1, https://matplotlib.org/</dc:title>
     </cc:Agent>
    </dc:creator>
   </cc:Work>
  </rdf:RDF>
 </metadata>
 <defs>
  <style type="text/css">*{stroke-linejoin: round; stroke-linecap: butt}</style>
 </defs>
 <g id="figure_1">
  <g id="patch_1">
   <path d="M 0 345.6 
L 460.8 345.6 
L 460.8 0 
L 0 0 
z
" style="fill: #ffffff"/>
  </g>
  <g id="axes_1">
   <g id="patch_2">
    <path d="M 92.16 203.328 
C 99.797849 203.328 107.1239 200.29345 112.524675 194.892675 
C 117.92545 189.4919 120.96 182.165849 120.96 174.528 
C 120.96 166.890151 117.92545 159.5641 112.524675 154.163325 
C 107.1239 148.76255 99.797849 145.728 92.16 145.728 
C 84.522151 145.728 77.1961 148.76255 71.795325 154.163325 
C 66.39455 159.5641 63.36 166.890151 63.36 174.528 
C 63.36 182.165849 66.39455 189.4919 71.795325 194.892675 
C 77.1961 200.29345 84.522151 203.328 92.16 203.328 
z
" clip-path="url(#pe6a8d48f79)" style="fill: #313695; stroke: #ffffff; stroke-linejoin: miter"/>
   </g>
   <g id="patch_3">
    <path d="M 149.76 203.328 
C 157.397849 203.328 164.7239 200.29345 170.124675 194.892675 
C 175.52545 189.4919 178.56 182.165849 178.56 174.528 
C 178.56 166.890151 175.52545 159.5641 170.124675 154.163325 
C 164.7239 148.76255 157.397849 145.728 149.76 145.728 
C 142.122151 145.728 134.7961 148.76255 129.395325 154.163325 
C 123.99455 159.5641 120.96 166.890151 120.96 174.528 
C 120.96 182.165849 123.99455 189.4919 129.395325 194.892675 
C 134.7961 200.29345 142.122151 203.328 149.76 203.328 
z
" clip-path="url(#pe6a8d48f79)" style="fill: #8ec2dc; stroke: #ffffff; stroke-linejoin: miter"/>
   </g>
   <g id="patch_4">
    <path d="M 207.36 203.328 
C 214.997849 203.328 222.3239 200.29345 227.724675 194.892675 
C 233.12545 189.4919 236.16 182.165849 236.16 174.528 
C 236.16 166.890151 233.12545 159.5641 227.724675 154.163325 
C 222.3239 148.76255 214.997849 145.728 207.36 145.728 
C 199.722151 145.728 192.3961 148.76255 186.995325 154.163325 
C 181.59455 159.5641 178.56 166.890151 178.56 174.528 
C 178.56 182.165849 181.59455 189.4919 186.995325 194.892675 
C 192.3961 200.29345 199.722151 203.328 207.36 203.328 
z
" clip-path="url(#pe6a8d48f79)" style="fill: #feffc0; stroke: #ffffff; stroke-linejoin: miter"/>
   </g>
   <g id="patch_5">
    <path d="M 264.96 203.328 
C 272.597849 203.328 279.9239 200.29345 285.324675 194.892675 
C 290.72545 189.4919 293.76 182.165849 293.76 174.528 
C 293.76 166.890151 290.72545 159.5641 285.324675 154.163325 
C 279.9239 148.76255 272.597849 145.728 264.96 145.728 
C 257.322151 145.728 249.9961 148.76255 244.595325 154.163325 
C 239.19455 159.5641 236.16 166.890151 236.16 174.528 
C 236.16 182.165849 239.19455 189.4919 244.595325 194.892675 
C 249.9961 200.29345 257.322151 203.328 264.96 203.328 
z
" clip-path="url(#pe6a8d48f79)" style="fill: #f98e52; stroke: #ffffff; stroke-linejoin: miter"/>
   </g>
   <g id="patch_6">
    <path d="M 322.56 203.328 
C 330.197849 203.328 337.5239 200.29345 342.924675 194.892675 
C 348.32545 189.4919 351.36 182.165849 351.36 174.528 
C 351.36 166.890151 348.32545 159.5641 342.924675 154.163325 
C 337.5239 148.76255 330.197849 145.728 322.56 145.728 
C 314.922151 145.728 307.5961 148.76255 302.195325 154.163325 
C 296.79455 159.5641 293.76 166.890151 293.76 174.528 
C 293.76 182.165849 296.79455 189.4919 302.195325 194.892675 
C 307.5961 200.29345 314.922151 203.328 322.56 203.328 
z
" clip-path="url(#pe6a8d48f79)" style="fill: #a50026; stroke: #ffffff; stroke-linejoin: miter"/>
   </g>
   <g id="text_1">
    <!-- -4.0 -->
    <g transform="translate(82.404531 177.287375) scale(0.1 -0.1)">
     <defs>
      <path id="DejaVuSans-2d" d="M 313 2009 
L 1997 2009 
L 1997 1497 
L 313 1497 
L 313 2009 
z
" transform="scale(0.015625)"/>
      <path id="DejaVuSans-34" d="M 2419 4116 
L 825 1625 
L 2419 1625 
L 2419 4116 
z
M 2253 4666 
L 3047 4666 
L 3047 1625 
L 3713 1625 
L 3713 1100 
L 3047 1100 
L 3047 0 
L 2419 0 
L 2419 1100 
L 313 1100 
L 313 1709 
L 2253 4666 
z
" transform="scale(0.015625)"/>
      <path id="DejaVuSans-2e" d="M 684 794 
L 1344 794 
L 1344 0 
L 684 0 
L 684 794 
z
" transform="scale(0.015625)"/>
      <path id="DejaVuSans-30" d="M 2034 4250 
Q 1547 4250 1301 3770 
Q 1056 3291 1056 2328 
Q 1056 1369 1301 889 
Q 1547 409 2034 409 
Q 2525 409 2770 889 
Q 3016 1369 3016 2328 
Q 3016 3291 2770 3770 
Q 2525 4250 2034 4250 
z
M 2034 4750 
Q 2819 4750 3233 4129 
Q 3647 3509 3647 2328 
Q 3647 1150 3233 529 
Q 2819 -91 2034 -91 
Q 1250 -91 836 529 
Q 422 1150 422 2328 
Q 422 3509 836 4129 
Q 1250 4750 2034 4750 
z
" transform="scale(0.015625)"/>
     </defs>
     <use xlink:href="#DejaVuSans-2d"/>
     <use xlink:href="#DejaVuSans-34" x="36.083984"/>
     <use xlink:href="#DejaVuSans-2e" x="99.707031"/>
     <use xlink:href="#DejaVuSans-30" x="131.494141"/>
    </g>
   </g>
   <g id="text_2">
    <!-- -2.0 -->
    <g transform="translate(140.004531 177.287375) scale(0.1 -0.1)">
     <defs>
      <path id="DejaVuSans-32" d="M 1228 531 
L 3431 531 
L 3431 0 
L 469 0 
L 469 531 
Q 828 903 1448 1529 
Q 2069 2156 2228 2338 
Q 2531 2678 2651 2914 
Q 2772 3150 2772 3378 
Q 2772 3750 2511 3984 
Q 2250 4219 1831 4219 
Q 1534 4219 1204 4116 
Q 875 4013 500 3803 
L 500 4441 
Q 881 4594 1212 4672 
Q 1544 4750 1819 4750 
Q 2544 4750 2975 4387 
Q 3406 4025 3406 3419 
Q 3406 3131 3298 2873 
Q 3191 2616 2906 2266 
Q 2828 2175 2409 1742 
Q 1991 1309 1228 531 
z
" transform="scale(0.015625)"/>
     </defs>
     <use xlink:href="#DejaVuSans-2d"/>
     <use xlink:href="#DejaVuSans-32" x="36.083984"/>
     <use xlink:href="#DejaVuSans-2e" x="99.707031"/>
     <use xlink:href="#DejaVuSans-30" x="131.494141"/>
    </g>
   </g>
   <g id="text_3">
    <!-- 0.0 -->
    <g transform="translate(199.408438 177.287375) scale(0.1 -0.1)">
     <use xlink:href="#DejaVuSans-30"/>
     <use xlink:href="#DejaVuSans-2e" x="63.623047"/>
     <use xlink:href="#DejaVuSans-30" x="95.410156"/>
    </g>
   </g>
   <g id="text_4">
    <!-- 2.0 -->
    <g transform="translate(257.008438 177.287375) scale(0.1 -0.1)">
     <use xlink:href="#DejaVuSans-32"/>
     <use xlink:href="#DejaVuSans-2e" x="63.623047"/>
     <use xlink:href="#DejaVuSans-30" x="95.410156"/>
    </g>
   </g>
   <g id="text_5">
    <!-- 4.0 -->
    <g transform="translate(314.608438 177.287375) scale(0.1 -0.1)">
     <use xlink:href="#DejaVuSans-34"/>
     <use xlink:href="#DejaVuSans-2e" x="63.623047"/>
     <use xlink:href="#DejaVuSans-30" x="95.410156"/>
    </g>
   </g>
  </g>
 </g>
 <defs>
  <clipPath id="pe6a8d48f79">
   <rect x="57.6" y="139.968" width="357.12" height="69.12"/>
  </clipPath>
 </defs>
</svg>
