<?xml version="1.0" encoding="utf-8" standalone="no"?>
<!DOCTYPE svg PUBLIC "-//W3C//DTD SVG 1.1//EN"
  "http://www.w3.org/Graphics/SVG/1.1/DTD/svg11.dtd">
<svg xmlns:xlink="http://www.w3.org/1999/xlink" width="460.8pt" height="345.6pt" viewBox="0 0 460.8 345.6" xmlns="http://www.w3.org/2000/svg" version="1.1">
 <metadata>
  <rdf:RDF xmlns:dc="http://purl.org/dc/elements/1.1/" xmlns:cc="http://creativecommons.org/ns#" xmlns:rdf="http://www.w3.org/1999/02/22-rdf-syntax-ns#">
   <cc:Work>
    <dc:type rdf:resource="http://purl.org/dc/dcmitype/StillImage"/>
    <dc:date>2023-08-16T15:53:41.799280</dc:date>
    <dc:format>image/svg+xml</dc:format>
    <dc:creator>
     <cc:Agent>
      <dc:title>Matplotlib v3.7.1, https://matplotlib.org/</dc:title>
     </cc:Agent>
    </dc:creator>
   </cc:Work>
  </rdf:RDF>
 </metadata>
 <defs>
  <style type="text/css">*{stroke-linejoin: round; stroke-linecap: butt}</style>
 </defs>
 <g id="figure_1">
  <g id="patch_1">
   <path d="M 0 345.6 
L 460.8 345.6 
L 460.8 0 
L 0 0 
z
" style="fill: #ffffff"/>
  </g>
  <g id="axes_1">
   <g id="patch_2">
    <path d="M 87.36 199.328 
C 93.937037 199.328 100.245581 196.714916 104.896248 192.064248 
C 109.546916 187.413581 112.16 181.105037 112.16 174.528 
C 112.16 167.950963 109.546916 161.642419 104.896248 156.991752 
C 100.245581 152.341084 93.937037 149.728 87.36 149.728 
C 80.782963 149.728 74.474419 152.341084 69.823752 156.991752 
C 65.173084 161.642419 62.56 167.950963 62.56 174.528 
C 62.56 181.105037 65.173084 187.413581 69.823752 192.064248 
C 74.474419 196.714916 80.782963 199.328 87.36 199.328 
z
" clip-path="url(#p18a5e298e5)" style="fill: #d1ecf4; stroke: #ffffff; stroke-linejoin: miter"/>
   </g>
   <g id="patch_3">
    <path d="M 136.96 199.328 
C 143.537037 199.328 149.845581 196.714916 154.496248 192.064248 
C 159.146916 187.413581 161.76 181.105037 161.76 174.528 
C 161.76 167.950963 159.146916 161.642419 154.496248 156.991752 
C 149.845581 152.341084 143.537037 149.728 136.96 149.728 
C 130.382963 149.728 124.074419 152.341084 119.423752 156.991752 
C 114.773084 161.642419 112.16 167.950963 112.16 174.528 
C 112.16 181.105037 114.773084 187.413581 119.423752 192.064248 
C 124.074419 196.714916 130.382963 199.328 136.96 199.328 
z
" clip-path="url(#p18a5e298e5)" style="fill: #e7f6eb; stroke: #ffffff; stroke-linejoin: miter"/>
   </g>
   <g id="patch_4">
    <path d="M 186.56 199.328 
C 193.137037 199.328 199.445581 196.714916 204.096248 192.064248 
C 208.746916 187.413581 211.36 181.105037 211.36 174.528 
C 211.36 167.950963 208.746916 161.642419 204.096248 156.991752 
C 199.445581 152.341084 193.137037 149.728 186.56 149.728 
C 179.982963 149.728 173.674419 152.341084 169.023752 156.991752 
C 164.373084 161.642419 161.76 167.950963 161.76 174.528 
C 161.76 181.105037 164.373084 187.413581 169.023752 192.064248 
C 173.674419 196.714916 179.982963 199.328 186.56 199.328 
z
" clip-path="url(#p18a5e298e5)" style="fill: #f7fcce; stroke: #ffffff; stroke-linejoin: miter"/>
   </g>
   <g id="patch_5">
    <path d="M 236.16 199.328 
C 242.737037 199.328 249.045581 196.714916 253.696248 192.064248 
C 258.346916 187.413581 260.96 181.105037 260.96 174.528 
C 260.96 167.950963 258.346916 161.642419 253.696248 156.991752 
C 249.045581 152.341084 242.737037 149.728 236.16 149.728 
C 229.582963 149.728 223.274419 152.341084 218.623752 156.991752 
C 213.973084 161.642419 211.36 167.950963 211.36 174.528 
C 211.36 181.105037 213.973084 187.413581 218.623752 192.064248 
C 223.274419 196.714916 229.582963 199.328 236.16 199.328 
z
" clip-path="url(#p18a5e298e5)" style="fill: #fff7b3; stroke: #ffffff; stroke-linejoin: miter"/>
   </g>
   <g id="patch_6">
    <path d="M 285.76 199.328 
C 292.337037 199.328 298.645581 196.714916 303.296248 192.064248 
C 307.946916 187.413581 310.56 181.105037 310.56 174.528 
C 310.56 167.950963 307.946916 161.642419 303.296248 156.991752 
C 298.645581 152.341084 292.337037 149.728 285.76 149.728 
C 279.182963 149.728 272.874419 152.341084 268.223752 156.991752 
C 263.573084 161.642419 260.96 167.950963 260.96 174.528 
C 260.96 181.105037 263.573084 187.413581 268.223752 192.064248 
C 272.874419 196.714916 279.182963 199.328 285.76 199.328 
z
" clip-path="url(#p18a5e298e5)" style="fill: #fee79b; stroke: #ffffff; stroke-linejoin: miter"/>
   </g>
   <g id="patch_7">
    <path d="M 335.36 199.328 
C 341.937037 199.328 348.245581 196.714916 352.896248 192.064248 
C 357.546916 187.413581 360.16 181.105037 360.16 174.528 
C 360.16 167.950963 357.546916 161.642419 352.896248 156.991752 
C 348.245581 152.341084 341.937037 149.728 335.36 149.728 
C 328.782963 149.728 322.474419 152.341084 317.823752 156.991752 
C 313.173084 161.642419 310.56 167.950963 310.56 174.528 
C 310.56 181.105037 313.173084 187.413581 317.823752 192.064248 
C 322.474419 196.714916 328.782963 199.328 335.36 199.328 
z
" clip-path="url(#p18a5e298e5)" style="fill: #fed485; stroke: #ffffff; stroke-linejoin: miter"/>
   </g>
   <g id="text_1">
    <!-- -1.0 -->
    <g transform="translate(77.604531 177.287375) scale(0.1 -0.1)">
     <defs>
      <path id="DejaVuSans-2d" d="M 313 2009 
L 1997 2009 
L 1997 1497 
L 313 1497 
L 313 2009 
z
" transform="scale(0.015625)"/>
      <path id="DejaVuSans-31" d="M 794 531 
L 1825 531 
L 1825 4091 
L 703 3866 
L 703 4441 
L 1819 4666 
L 2450 4666 
L 2450 531 
L 3481 531 
L 3481 0 
L 794 0 
L 794 531 
z
" transform="scale(0.015625)"/>
      <path id="DejaVuSans-2e" d="M 684 794 
L 1344 794 
L 1344 0 
L 684 0 
L 684 794 
z
" transform="scale(0.015625)"/>
      <path id="DejaVuSans-30" d="M 2034 4250 
Q 1547 4250 1301 3770 
Q 1056 3291 1056 2328 
Q 1056 1369 1301 889 
Q 1547 409 2034 409 
Q 2525 409 2770 889 
Q 3016 1369 3016 2328 
Q 3016 3291 2770 3770 
Q 2525 4250 2034 4250 
z
M 2034 4750 
Q 2819 4750 3233 4129 
Q 3647 3509 3647 2328 
Q 3647 1150 3233 529 
Q 2819 -91 2034 -91 
Q 1250 -91 836 529 
Q 422 1150 422 2328 
Q 422 3509 836 4129 
Q 1250 4750 2034 4750 
z
" transform="scale(0.015625)"/>
     </defs>
     <use xlink:href="#DejaVuSans-2d"/>
     <use xlink:href="#DejaVuSans-31" x="36.083984"/>
     <use xlink:href="#DejaVuSans-2e" x="99.707031"/>
     <use xlink:href="#DejaVuSans-30" x="131.494141"/>
    </g>
   </g>
   <g id="text_2">
    <!-- -0.6 -->
    <g transform="translate(127.204531 177.287375) scale(0.1 -0.1)">
     <defs>
      <path id="DejaVuSans-36" d="M 2113 2584 
Q 1688 2584 1439 2293 
Q 1191 2003 1191 1497 
Q 1191 994 1439 701 
Q 1688 409 2113 409 
Q 2538 409 2786 701 
Q 3034 994 3034 1497 
Q 3034 2003 2786 2293 
Q 2538 2584 2113 2584 
z
M 3366 4563 
L 3366 3988 
Q 3128 4100 2886 4159 
Q 2644 4219 2406 4219 
Q 1781 4219 1451 3797 
Q 1122 3375 1075 2522 
Q 1259 2794 1537 2939 
Q 1816 3084 2150 3084 
Q 2853 3084 3261 2657 
Q 3669 2231 3669 1497 
Q 3669 778 3244 343 
Q 2819 -91 2113 -91 
Q 1303 -91 875 529 
Q 447 1150 447 2328 
Q 447 3434 972 4092 
Q 1497 4750 2381 4750 
Q 2619 4750 2861 4703 
Q 3103 4656 3366 4563 
z
" transform="scale(0.015625)"/>
     </defs>
     <use xlink:href="#DejaVuSans-2d"/>
     <use xlink:href="#DejaVuSans-30" x="36.083984"/>
     <use xlink:href="#DejaVuSans-2e" x="99.707031"/>
     <use xlink:href="#DejaVuSans-36" x="131.494141"/>
    </g>
   </g>
   <g id="text_3">
    <!-- -0.2 -->
    <g transform="translate(176.804531 177.287375) scale(0.1 -0.1)">
     <defs>
      <path id="DejaVuSans-32" d="M 1228 531 
L 3431 531 
L 3431 0 
L 469 0 
L 469 531 
Q 828 903 1448 1529 
Q 2069 2156 2228 2338 
Q 2531 2678 2651 2914 
Q 2772 3150 2772 3378 
Q 2772 3750 2511 3984 
Q 2250 4219 1831 4219 
Q 1534 4219 1204 4116 
Q 875 4013 500 3803 
L 500 4441 
Q 881 4594 1212 4672 
Q 1544 4750 1819 4750 
Q 2544 4750 2975 4387 
Q 3406 4025 3406 3419 
Q 3406 3131 3298 2873 
Q 3191 2616 2906 2266 
Q 2828 2175 2409 1742 
Q 1991 1309 1228 531 
z
" transform="scale(0.015625)"/>
     </defs>
     <use xlink:href="#DejaVuSans-2d"/>
     <use xlink:href="#DejaVuSans-30" x="36.083984"/>
     <use xlink:href="#DejaVuSans-2e" x="99.707031"/>
     <use xlink:href="#DejaVuSans-32" x="131.494141"/>
    </g>
   </g>
   <g id="text_4">
    <!-- 0.2 -->
    <g transform="translate(228.208438 177.287375) scale(0.1 -0.1)">
     <use xlink:href="#DejaVuSans-30"/>
     <use xlink:href="#DejaVuSans-2e" x="63.623047"/>
     <use xlink:href="#DejaVuSans-32" x="95.410156"/>
    </g>
   </g>
   <g id="text_5">
    <!-- 0.6 -->
    <g transform="translate(277.808437 177.287375) scale(0.1 -0.1)">
     <use xlink:href="#DejaVuSans-30"/>
     <use xlink:href="#DejaVuSans-2e" x="63.623047"/>
     <use xlink:href="#DejaVuSans-36" x="95.410156"/>
    </g>
   </g>
   <g id="text_6">
    <!-- 1.0 -->
    <g transform="translate(327.408437 177.287375) scale(0.1 -0.1)">
     <use xlink:href="#DejaVuSans-31"/>
     <use xlink:href="#DejaVuSans-2e" x="63.623047"/>
     <use xlink:href="#DejaVuSans-30" x="95.410156"/>
    </g>
   </g>
  </g>
 </g>
 <defs>
  <clipPath id="p18a5e298e5">
   <rect x="57.6" y="144.768" width="357.12" height="59.52"/>
  </clipPath>
 </defs>
</svg>
