<?xml version="1.0" encoding="utf-8" standalone="no"?>
<!DOCTYPE svg PUBLIC "-//W3C//DTD SVG 1.1//EN"
  "http://www.w3.org/Graphics/SVG/1.1/DTD/svg11.dtd">
<svg xmlns:xlink="http://www.w3.org/1999/xlink" width="216pt" height="144pt" viewBox="0 0 216 144" xmlns="http://www.w3.org/2000/svg" version="1.1">
 <metadata>
  <rdf:RDF xmlns:dc="http://purl.org/dc/elements/1.1/" xmlns:cc="http://creativecommons.org/ns#" xmlns:rdf="http://www.w3.org/1999/02/22-rdf-syntax-ns#">
   <cc:Work>
    <dc:type rdf:resource="http://purl.org/dc/dcmitype/StillImage"/>
    <dc:date>2023-08-16T15:53:41.706996</dc:date>
    <dc:format>image/svg+xml</dc:format>
    <dc:creator>
     <cc:Agent>
      <dc:title>Matplotlib v3.7.1, https://matplotlib.org/</dc:title>
     </cc:Agent>
    </dc:creator>
   </cc:Work>
  </rdf:RDF>
 </metadata>
 <defs>
  <style type="text/css">*{stroke-linejoin: round; stroke-linecap: butt}</style>
 </defs>
 <g id="figure_1">
  <g id="patch_1">
   <path d="M 0 144 
L 216 144 
L 216 0 
L 0 0 
z
" style="fill: #ffffff"/>
  </g>
  <g id="axes_1">
   <g id="patch_2">
    <path d="M 27 122.94 
L 194.4 122.94 
L 194.4 22.5 
L 27 22.5 
z
" style="fill: #ffffff"/>
   </g>
   <g id="QuadMesh_1">
    <path d="M 27 22.5 
L 60.48 22.5 
L 60.48 55.98 
L 27 55.98 
L 27 22.5 
" clip-path="url(#pcd05b9f02f)" style="fill: #aad8e9; stroke: #ffffff; stroke-width: 0.5"/>
    <path d="M 60.48 22.5 
L 93.96 22.5 
L 93.96 55.98 
L 60.48 55.98 
L 60.48 22.5 
" clip-path="url(#pcd05b9f02f)" style="fill: #e0f3f8; stroke: #ffffff; stroke-width: 0.5"/>
    <path d="M 93.96 22.5 
L 127.44 22.5 
L 127.44 55.98 
L 93.96 55.98 
L 93.96 22.5 
" clip-path="url(#pcd05b9f02f)" style="fill: #fffebe; stroke: #ffffff; stroke-width: 0.5"/>
    <path d="M 127.44 22.5 
L 160.92 22.5 
L 160.92 55.98 
L 127.44 55.98 
L 127.44 22.5 
" clip-path="url(#pcd05b9f02f)" style="fill: #fee090; stroke: #ffffff; stroke-width: 0.5"/>
    <path d="M 160.92 22.5 
L 194.4 22.5 
L 194.4 55.98 
L 160.92 55.98 
L 160.92 22.5 
" clip-path="url(#pcd05b9f02f)" style="fill: #fdad60; stroke: #ffffff; stroke-width: 0.5"/>
    <path d="M 27 55.98 
L 60.48 55.98 
L 60.48 89.46 
L 27 89.46 
L 27 55.98 
" clip-path="url(#pcd05b9f02f)" style="fill: #d62f27; stroke: #ffffff; stroke-width: 0.5"/>
    <path d="M 60.48 55.98 
L 93.96 55.98 
L 93.96 89.46 
L 60.48 89.46 
L 60.48 55.98 
" clip-path="url(#pcd05b9f02f)" style="fill: #fee090; stroke: #ffffff; stroke-width: 0.5"/>
    <path d="M 93.96 55.98 
L 127.44 55.98 
L 127.44 89.46 
L 93.96 89.46 
L 93.96 55.98 
" clip-path="url(#pcd05b9f02f)" style="fill: #fffebe; stroke: #ffffff; stroke-width: 0.5"/>
    <path d="M 127.44 55.98 
L 160.92 55.98 
L 160.92 89.46 
L 127.44 89.46 
L 127.44 55.98 
" clip-path="url(#pcd05b9f02f)" style="fill: #fee090; stroke: #ffffff; stroke-width: 0.5"/>
    <path d="M 160.92 55.98 
L 194.4 55.98 
L 194.4 89.46 
L 160.92 89.46 
L 160.92 55.98 
" clip-path="url(#pcd05b9f02f)" style="fill: #d62f27; stroke: #ffffff; stroke-width: 0.5"/>
    <path d="M 27 89.46 
L 60.48 89.46 
L 60.48 122.94 
L 27 122.94 
L 27 89.46 
" clip-path="url(#pcd05b9f02f)" style="fill: #313695; stroke: #ffffff; stroke-width: 0.5"/>
    <path d="M 60.48 89.46 
L 93.96 89.46 
L 93.96 122.94 
L 60.48 122.94 
L 60.48 89.46 
" clip-path="url(#pcd05b9f02f)" style="fill: #e0f3f8; stroke: #ffffff; stroke-width: 0.5"/>
    <path d="M 93.96 89.46 
L 127.44 89.46 
L 127.44 122.94 
L 93.96 122.94 
L 93.96 89.46 
" clip-path="url(#pcd05b9f02f)" style="fill: #fffebe; stroke: #ffffff; stroke-width: 0.5"/>
    <path d="M 127.44 89.46 
L 160.92 89.46 
L 160.92 122.94 
L 127.44 122.94 
L 127.44 89.46 
" clip-path="url(#pcd05b9f02f)" style="fill: #fee090; stroke: #ffffff; stroke-width: 0.5"/>
    <path d="M 160.92 89.46 
L 194.4 89.46 
L 194.4 122.94 
L 160.92 122.94 
L 160.92 89.46 
" clip-path="url(#pcd05b9f02f)" style="fill: #a50026; stroke: #ffffff; stroke-width: 0.5"/>
   </g>
   <g id="matplotlib.axis_1"/>
   <g id="matplotlib.axis_2"/>
   <g id="text_1">
    <!-- -2.00 -->
    <g style="fill: #262626" transform="translate(30.803281 41.999375) scale(0.1 -0.1)">
     <defs>
      <path id="DejaVuSans-2d" d="M 313 2009 
L 1997 2009 
L 1997 1497 
L 313 1497 
L 313 2009 
z
" transform="scale(0.015625)"/>
      <path id="DejaVuSans-32" d="M 1228 531 
L 3431 531 
L 3431 0 
L 469 0 
L 469 531 
Q 828 903 1448 1529 
Q 2069 2156 2228 2338 
Q 2531 2678 2651 2914 
Q 2772 3150 2772 3378 
Q 2772 3750 2511 3984 
Q 2250 4219 1831 4219 
Q 1534 4219 1204 4116 
Q 875 4013 500 3803 
L 500 4441 
Q 881 4594 1212 4672 
Q 1544 4750 1819 4750 
Q 2544 4750 2975 4387 
Q 3406 4025 3406 3419 
Q 3406 3131 3298 2873 
Q 3191 2616 2906 2266 
Q 2828 2175 2409 1742 
Q 1991 1309 1228 531 
z
" transform="scale(0.015625)"/>
      <path id="DejaVuSans-2e" d="M 684 794 
L 1344 794 
L 1344 0 
L 684 0 
L 684 794 
z
" transform="scale(0.015625)"/>
      <path id="DejaVuSans-30" d="M 2034 4250 
Q 1547 4250 1301 3770 
Q 1056 3291 1056 2328 
Q 1056 1369 1301 889 
Q 1547 409 2034 409 
Q 2525 409 2770 889 
Q 3016 1369 3016 2328 
Q 3016 3291 2770 3770 
Q 2525 4250 2034 4250 
z
M 2034 4750 
Q 2819 4750 3233 4129 
Q 3647 3509 3647 2328 
Q 3647 1150 3233 529 
Q 2819 -91 2034 -91 
Q 1250 -91 836 529 
Q 422 1150 422 2328 
Q 422 3509 836 4129 
Q 1250 4750 2034 4750 
z
" transform="scale(0.015625)"/>
     </defs>
     <use xlink:href="#DejaVuSans-2d"/>
     <use xlink:href="#DejaVuSans-32" x="36.083984"/>
     <use xlink:href="#DejaVuSans-2e" x="99.707031"/>
     <use xlink:href="#DejaVuSans-30" x="131.494141"/>
     <use xlink:href="#DejaVuSans-30" x="195.117188"/>
    </g>
   </g>
   <g id="text_2">
    <!-- -1.00 -->
    <g style="fill: #262626" transform="translate(64.283281 41.999375) scale(0.1 -0.1)">
     <defs>
      <path id="DejaVuSans-31" d="M 794 531 
L 1825 531 
L 1825 4091 
L 703 3866 
L 703 4441 
L 1819 4666 
L 2450 4666 
L 2450 531 
L 3481 531 
L 3481 0 
L 794 0 
L 794 531 
z
" transform="scale(0.015625)"/>
     </defs>
     <use xlink:href="#DejaVuSans-2d"/>
     <use xlink:href="#DejaVuSans-31" x="36.083984"/>
     <use xlink:href="#DejaVuSans-2e" x="99.707031"/>
     <use xlink:href="#DejaVuSans-30" x="131.494141"/>
     <use xlink:href="#DejaVuSans-30" x="195.117188"/>
    </g>
   </g>
   <g id="text_3">
    <!-- 0.00 -->
    <g style="fill: #262626" transform="translate(99.567188 41.999375) scale(0.1 -0.1)">
     <use xlink:href="#DejaVuSans-30"/>
     <use xlink:href="#DejaVuSans-2e" x="63.623047"/>
     <use xlink:href="#DejaVuSans-30" x="95.410156"/>
     <use xlink:href="#DejaVuSans-30" x="159.033203"/>
    </g>
   </g>
   <g id="text_4">
    <!-- 1.00 -->
    <g style="fill: #262626" transform="translate(133.047188 41.999375) scale(0.1 -0.1)">
     <use xlink:href="#DejaVuSans-31"/>
     <use xlink:href="#DejaVuSans-2e" x="63.623047"/>
     <use xlink:href="#DejaVuSans-30" x="95.410156"/>
     <use xlink:href="#DejaVuSans-30" x="159.033203"/>
    </g>
   </g>
   <g id="text_5">
    <!-- 2.00 -->
    <g style="fill: #262626" transform="translate(166.527188 41.999375) scale(0.1 -0.1)">
     <use xlink:href="#DejaVuSans-32"/>
     <use xlink:href="#DejaVuSans-2e" x="63.623047"/>
     <use xlink:href="#DejaVuSans-30" x="95.410156"/>
     <use xlink:href="#DejaVuSans-30" x="159.033203"/>
    </g>
   </g>
   <g id="text_6">
    <!-- 4.00 -->
    <g style="fill: #ffffff" transform="translate(32.607188 75.479375) scale(0.1 -0.1)">
     <defs>
      <path id="DejaVuSans-34" d="M 2419 4116 
L 825 1625 
L 2419 1625 
L 2419 4116 
z
M 2253 4666 
L 3047 4666 
L 3047 1625 
L 3713 1625 
L 3713 1100 
L 3047 1100 
L 3047 0 
L 2419 0 
L 2419 1100 
L 313 1100 
L 313 1709 
L 2253 4666 
z
" transform="scale(0.015625)"/>
     </defs>
     <use xlink:href="#DejaVuSans-34"/>
     <use xlink:href="#DejaVuSans-2e" x="63.623047"/>
     <use xlink:href="#DejaVuSans-30" x="95.410156"/>
     <use xlink:href="#DejaVuSans-30" x="159.033203"/>
    </g>
   </g>
   <g id="text_7">
    <!-- 1.00 -->
    <g style="fill: #262626" transform="translate(66.087187 75.479375) scale(0.1 -0.1)">
     <use xlink:href="#DejaVuSans-31"/>
     <use xlink:href="#DejaVuSans-2e" x="63.623047"/>
     <use xlink:href="#DejaVuSans-30" x="95.410156"/>
     <use xlink:href="#DejaVuSans-30" x="159.033203"/>
    </g>
   </g>
   <g id="text_8">
    <!-- 0.00 -->
    <g style="fill: #262626" transform="translate(99.567188 75.479375) scale(0.1 -0.1)">
     <use xlink:href="#DejaVuSans-30"/>
     <use xlink:href="#DejaVuSans-2e" x="63.623047"/>
     <use xlink:href="#DejaVuSans-30" x="95.410156"/>
     <use xlink:href="#DejaVuSans-30" x="159.033203"/>
    </g>
   </g>
   <g id="text_9">
    <!-- 1.00 -->
    <g style="fill: #262626" transform="translate(133.047188 75.479375) scale(0.1 -0.1)">
     <use xlink:href="#DejaVuSans-31"/>
     <use xlink:href="#DejaVuSans-2e" x="63.623047"/>
     <use xlink:href="#DejaVuSans-30" x="95.410156"/>
     <use xlink:href="#DejaVuSans-30" x="159.033203"/>
    </g>
   </g>
   <g id="text_10">
    <!-- 4.00 -->
    <g style="fill: #ffffff" transform="translate(166.527188 75.479375) scale(0.1 -0.1)">
     <use xlink:href="#DejaVuSans-34"/>
     <use xlink:href="#DejaVuSans-2e" x="63.623047"/>
     <use xlink:href="#DejaVuSans-30" x="95.410156"/>
     <use xlink:href="#DejaVuSans-30" x="159.033203"/>
    </g>
   </g>
   <g id="text_11">
    <!-- -8.00 -->
    <g style="fill: #ffffff" transform="translate(30.803281 108.959375) scale(0.1 -0.1)">
     <defs>
      <path id="DejaVuSans-38" d="M 2034 2216 
Q 1584 2216 1326 1975 
Q 1069 1734 1069 1313 
Q 1069 891 1326 650 
Q 1584 409 2034 409 
Q 2484 409 2743 651 
Q 3003 894 3003 1313 
Q 3003 1734 2745 1975 
Q 2488 2216 2034 2216 
z
M 1403 2484 
Q 997 2584 770 2862 
Q 544 3141 544 3541 
Q 544 4100 942 4425 
Q 1341 4750 2034 4750 
Q 2731 4750 3128 4425 
Q 3525 4100 3525 3541 
Q 3525 3141 3298 2862 
Q 3072 2584 2669 2484 
Q 3125 2378 3379 2068 
Q 3634 1759 3634 1313 
Q 3634 634 3220 271 
Q 2806 -91 2034 -91 
Q 1263 -91 848 271 
Q 434 634 434 1313 
Q 434 1759 690 2068 
Q 947 2378 1403 2484 
z
M 1172 3481 
Q 1172 3119 1398 2916 
Q 1625 2713 2034 2713 
Q 2441 2713 2670 2916 
Q 2900 3119 2900 3481 
Q 2900 3844 2670 4047 
Q 2441 4250 2034 4250 
Q 1625 4250 1398 4047 
Q 1172 3844 1172 3481 
z
" transform="scale(0.015625)"/>
     </defs>
     <use xlink:href="#DejaVuSans-2d"/>
     <use xlink:href="#DejaVuSans-38" x="36.083984"/>
     <use xlink:href="#DejaVuSans-2e" x="99.707031"/>
     <use xlink:href="#DejaVuSans-30" x="131.494141"/>
     <use xlink:href="#DejaVuSans-30" x="195.117188"/>
    </g>
   </g>
   <g id="text_12">
    <!-- -1.00 -->
    <g style="fill: #262626" transform="translate(64.283281 108.959375) scale(0.1 -0.1)">
     <use xlink:href="#DejaVuSans-2d"/>
     <use xlink:href="#DejaVuSans-31" x="36.083984"/>
     <use xlink:href="#DejaVuSans-2e" x="99.707031"/>
     <use xlink:href="#DejaVuSans-30" x="131.494141"/>
     <use xlink:href="#DejaVuSans-30" x="195.117188"/>
    </g>
   </g>
   <g id="text_13">
    <!-- 0.00 -->
    <g style="fill: #262626" transform="translate(99.567188 108.959375) scale(0.1 -0.1)">
     <use xlink:href="#DejaVuSans-30"/>
     <use xlink:href="#DejaVuSans-2e" x="63.623047"/>
     <use xlink:href="#DejaVuSans-30" x="95.410156"/>
     <use xlink:href="#DejaVuSans-30" x="159.033203"/>
    </g>
   </g>
   <g id="text_14">
    <!-- 1.00 -->
    <g style="fill: #262626" transform="translate(133.047188 108.959375) scale(0.1 -0.1)">
     <use xlink:href="#DejaVuSans-31"/>
     <use xlink:href="#DejaVuSans-2e" x="63.623047"/>
     <use xlink:href="#DejaVuSans-30" x="95.410156"/>
     <use xlink:href="#DejaVuSans-30" x="159.033203"/>
    </g>
   </g>
   <g id="text_15">
    <!-- 8.00 -->
    <g style="fill: #ffffff" transform="translate(166.527188 108.959375) scale(0.1 -0.1)">
     <use xlink:href="#DejaVuSans-38"/>
     <use xlink:href="#DejaVuSans-2e" x="63.623047"/>
     <use xlink:href="#DejaVuSans-30" x="95.410156"/>
     <use xlink:href="#DejaVuSans-30" x="159.033203"/>
    </g>
   </g>
  </g>
 </g>
 <defs>
  <clipPath id="pcd05b9f02f">
   <rect x="27" y="22.5" width="167.4" height="100.44"/>
  </clipPath>
 </defs>
</svg>
