<?xml version="1.0" encoding="utf-8" standalone="no"?>
<!DOCTYPE svg PUBLIC "-//W3C//DTD SVG 1.1//EN"
  "http://www.w3.org/Graphics/SVG/1.1/DTD/svg11.dtd">
<svg xmlns:xlink="http://www.w3.org/1999/xlink" width="216pt" height="144pt" viewBox="0 0 216 144" xmlns="http://www.w3.org/2000/svg" version="1.1">
 <metadata>
  <rdf:RDF xmlns:dc="http://purl.org/dc/elements/1.1/" xmlns:cc="http://creativecommons.org/ns#" xmlns:rdf="http://www.w3.org/1999/02/22-rdf-syntax-ns#">
   <cc:Work>
    <dc:type rdf:resource="http://purl.org/dc/dcmitype/StillImage"/>
    <dc:date>2023-08-16T15:53:41.071615</dc:date>
    <dc:format>image/svg+xml</dc:format>
    <dc:creator>
     <cc:Agent>
      <dc:title>Matplotlib v3.7.1, https://matplotlib.org/</dc:title>
     </cc:Agent>
    </dc:creator>
   </cc:Work>
  </rdf:RDF>
 </metadata>
 <defs>
  <style type="text/css">*{stroke-linejoin: round; stroke-linecap: butt}</style>
 </defs>
 <g id="figure_1">
  <g id="patch_1">
   <path d="M 0 144 
L 216 144 
L 216 0 
L 0 0 
z
" style="fill: #ffffff"/>
  </g>
  <g id="axes_1">
   <g id="patch_2">
    <path d="M 27.54 128.16 
L 193.86 128.16 
L 193.86 17.28 
L 27.54 17.28 
z
" style="fill: #ffffff"/>
   </g>
   <g id="QuadMesh_1">
    <path d="M 27.54 17.28 
L 55.26 17.28 
L 55.26 45 
L 27.54 45 
L 27.54 17.28 
" clip-path="url(#p435dd3c3fa)" style="fill: #ea5739; stroke: #ffffff; stroke-width: 0.5"/>
    <path d="M 55.26 17.28 
L 82.98 17.28 
L 82.98 45 
L 55.26 45 
L 55.26 17.28 
" clip-path="url(#p435dd3c3fa)" style="fill: #ea5739; stroke: #ffffff; stroke-width: 0.5"/>
    <path d="M 82.98 17.28 
L 110.7 17.28 
L 110.7 45 
L 82.98 45 
L 82.98 17.28 
" clip-path="url(#p435dd3c3fa)" style="fill: #ea5739; stroke: #ffffff; stroke-width: 0.5"/>
    <path d="M 110.7 17.28 
L 138.42 17.28 
L 138.42 45 
L 110.7 45 
L 110.7 17.28 
" clip-path="url(#p435dd3c3fa)" style="fill: #ea5739; stroke: #ffffff; stroke-width: 0.5"/>
    <path d="M 138.42 17.28 
L 166.14 17.28 
L 166.14 45 
L 138.42 45 
L 138.42 17.28 
" clip-path="url(#p435dd3c3fa)" style="fill: #ea5739; stroke: #ffffff; stroke-width: 0.5"/>
    <path d="M 166.14 17.28 
L 193.86 17.28 
L 193.86 45 
L 166.14 45 
L 166.14 17.28 
" clip-path="url(#p435dd3c3fa)" style="fill: #ea5739; stroke: #ffffff; stroke-width: 0.5"/>
    <path d="M 27.54 45 
L 55.26 45 
L 55.26 72.72 
L 27.54 72.72 
L 27.54 45 
" clip-path="url(#p435dd3c3fa)" style="fill: #ea5739; stroke: #ffffff; stroke-width: 0.5"/>
    <path d="M 55.26 45 
L 82.98 45 
L 82.98 72.72 
L 55.26 72.72 
L 55.26 45 
" clip-path="url(#p435dd3c3fa)" style="fill: #ea5739; stroke: #ffffff; stroke-width: 0.5"/>
    <path d="M 82.98 45 
L 110.7 45 
L 110.7 72.72 
L 82.98 72.72 
L 82.98 45 
" clip-path="url(#p435dd3c3fa)" style="fill: #ea5739; stroke: #ffffff; stroke-width: 0.5"/>
    <path d="M 110.7 45 
L 138.42 45 
L 138.42 72.72 
L 110.7 72.72 
L 110.7 45 
" clip-path="url(#p435dd3c3fa)" style="fill: #ea5739; stroke: #ffffff; stroke-width: 0.5"/>
    <path d="M 138.42 45 
L 166.14 45 
L 166.14 72.72 
L 138.42 72.72 
L 138.42 45 
" clip-path="url(#p435dd3c3fa)" style="fill: #ea5739; stroke: #ffffff; stroke-width: 0.5"/>
    <path d="M 166.14 45 
L 193.86 45 
L 193.86 72.72 
L 166.14 72.72 
L 166.14 45 
" clip-path="url(#p435dd3c3fa)" style="fill: #ea5739; stroke: #ffffff; stroke-width: 0.5"/>
    <path d="M 27.54 72.72 
L 55.26 72.72 
L 55.26 100.44 
L 27.54 100.44 
L 27.54 72.72 
" clip-path="url(#p435dd3c3fa)" style="fill: #ea5739; stroke: #ffffff; stroke-width: 0.5"/>
    <path d="M 55.26 72.72 
L 82.98 72.72 
L 82.98 100.44 
L 55.26 100.44 
L 55.26 72.72 
" clip-path="url(#p435dd3c3fa)" style="fill: #ea5739; stroke: #ffffff; stroke-width: 0.5"/>
    <path d="M 82.98 72.72 
L 110.7 72.72 
L 110.7 100.44 
L 82.98 100.44 
L 82.98 72.72 
" clip-path="url(#p435dd3c3fa)" style="fill: #ea5739; stroke: #ffffff; stroke-width: 0.5"/>
    <path d="M 110.7 72.72 
L 138.42 72.72 
L 138.42 100.44 
L 110.7 100.44 
L 110.7 72.72 
" clip-path="url(#p435dd3c3fa)" style="fill: #ea5739; stroke: #ffffff; stroke-width: 0.5"/>
    <path d="M 138.42 72.72 
L 166.14 72.72 
L 166.14 100.44 
L 138.42 100.44 
L 138.42 72.72 
" clip-path="url(#p435dd3c3fa)" style="fill: #ea5739; stroke: #ffffff; stroke-width: 0.5"/>
    <path d="M 166.14 72.72 
L 193.86 72.72 
L 193.86 100.44 
L 166.14 100.44 
L 166.14 72.72 
" clip-path="url(#p435dd3c3fa)" style="fill: #ea5739; stroke: #ffffff; stroke-width: 0.5"/>
    <path d="M 27.54 100.44 
L 55.26 100.44 
L 55.26 128.16 
L 27.54 128.16 
L 27.54 100.44 
" clip-path="url(#p435dd3c3fa)" style="fill: #ea5739; stroke: #ffffff; stroke-width: 0.5"/>
    <path d="M 55.26 100.44 
L 82.98 100.44 
L 82.98 128.16 
L 55.26 128.16 
L 55.26 100.44 
" clip-path="url(#p435dd3c3fa)" style="fill: #ea5739; stroke: #ffffff; stroke-width: 0.5"/>
    <path d="M 82.98 100.44 
L 110.7 100.44 
L 110.7 128.16 
L 82.98 128.16 
L 82.98 100.44 
" clip-path="url(#p435dd3c3fa)" style="fill: #ea5739; stroke: #ffffff; stroke-width: 0.5"/>
    <path d="M 110.7 100.44 
L 138.42 100.44 
L 138.42 128.16 
L 110.7 128.16 
L 110.7 100.44 
" clip-path="url(#p435dd3c3fa)" style="fill: #ea5739; stroke: #ffffff; stroke-width: 0.5"/>
    <path d="M 138.42 100.44 
L 166.14 100.44 
L 166.14 128.16 
L 138.42 128.16 
L 138.42 100.44 
" clip-path="url(#p435dd3c3fa)" style="fill: #ea5739; stroke: #ffffff; stroke-width: 0.5"/>
    <path d="M 166.14 100.44 
L 193.86 100.44 
L 193.86 128.16 
L 166.14 128.16 
L 166.14 100.44 
" clip-path="url(#p435dd3c3fa)" style="fill: #ea5739; stroke: #ffffff; stroke-width: 0.5"/>
   </g>
   <g id="matplotlib.axis_1"/>
   <g id="matplotlib.axis_2"/>
   <g id="text_1">
    <!-- 2.00 -->
    <g style="fill: #ffffff" transform="translate(30.267187 33.899375) scale(0.1 -0.1)">
     <defs>
      <path id="DejaVuSans-32" d="M 1228 531 
L 3431 531 
L 3431 0 
L 469 0 
L 469 531 
Q 828 903 1448 1529 
Q 2069 2156 2228 2338 
Q 2531 2678 2651 2914 
Q 2772 3150 2772 3378 
Q 2772 3750 2511 3984 
Q 2250 4219 1831 4219 
Q 1534 4219 1204 4116 
Q 875 4013 500 3803 
L 500 4441 
Q 881 4594 1212 4672 
Q 1544 4750 1819 4750 
Q 2544 4750 2975 4387 
Q 3406 4025 3406 3419 
Q 3406 3131 3298 2873 
Q 3191 2616 2906 2266 
Q 2828 2175 2409 1742 
Q 1991 1309 1228 531 
z
" transform="scale(0.015625)"/>
      <path id="DejaVuSans-2e" d="M 684 794 
L 1344 794 
L 1344 0 
L 684 0 
L 684 794 
z
" transform="scale(0.015625)"/>
      <path id="DejaVuSans-30" d="M 2034 4250 
Q 1547 4250 1301 3770 
Q 1056 3291 1056 2328 
Q 1056 1369 1301 889 
Q 1547 409 2034 409 
Q 2525 409 2770 889 
Q 3016 1369 3016 2328 
Q 3016 3291 2770 3770 
Q 2525 4250 2034 4250 
z
M 2034 4750 
Q 2819 4750 3233 4129 
Q 3647 3509 3647 2328 
Q 3647 1150 3233 529 
Q 2819 -91 2034 -91 
Q 1250 -91 836 529 
Q 422 1150 422 2328 
Q 422 3509 836 4129 
Q 1250 4750 2034 4750 
z
" transform="scale(0.015625)"/>
     </defs>
     <use xlink:href="#DejaVuSans-32"/>
     <use xlink:href="#DejaVuSans-2e" x="63.623047"/>
     <use xlink:href="#DejaVuSans-30" x="95.410156"/>
     <use xlink:href="#DejaVuSans-30" x="159.033203"/>
    </g>
   </g>
   <g id="text_2">
    <!-- 2.00 -->
    <g style="fill: #ffffff" transform="translate(57.987188 33.899375) scale(0.1 -0.1)">
     <use xlink:href="#DejaVuSans-32"/>
     <use xlink:href="#DejaVuSans-2e" x="63.623047"/>
     <use xlink:href="#DejaVuSans-30" x="95.410156"/>
     <use xlink:href="#DejaVuSans-30" x="159.033203"/>
    </g>
   </g>
   <g id="text_3">
    <!-- 2.00 -->
    <g style="fill: #ffffff" transform="translate(85.707188 33.899375) scale(0.1 -0.1)">
     <use xlink:href="#DejaVuSans-32"/>
     <use xlink:href="#DejaVuSans-2e" x="63.623047"/>
     <use xlink:href="#DejaVuSans-30" x="95.410156"/>
     <use xlink:href="#DejaVuSans-30" x="159.033203"/>
    </g>
   </g>
   <g id="text_4">
    <!-- 2.00 -->
    <g style="fill: #ffffff" transform="translate(113.427188 33.899375) scale(0.1 -0.1)">
     <use xlink:href="#DejaVuSans-32"/>
     <use xlink:href="#DejaVuSans-2e" x="63.623047"/>
     <use xlink:href="#DejaVuSans-30" x="95.410156"/>
     <use xlink:href="#DejaVuSans-30" x="159.033203"/>
    </g>
   </g>
   <g id="text_5">
    <!-- 2.00 -->
    <g style="fill: #ffffff" transform="translate(141.147188 33.899375) scale(0.1 -0.1)">
     <use xlink:href="#DejaVuSans-32"/>
     <use xlink:href="#DejaVuSans-2e" x="63.623047"/>
     <use xlink:href="#DejaVuSans-30" x="95.410156"/>
     <use xlink:href="#DejaVuSans-30" x="159.033203"/>
    </g>
   </g>
   <g id="text_6">
    <!-- 2.00 -->
    <g style="fill: #ffffff" transform="translate(168.867187 33.899375) scale(0.1 -0.1)">
     <use xlink:href="#DejaVuSans-32"/>
     <use xlink:href="#DejaVuSans-2e" x="63.623047"/>
     <use xlink:href="#DejaVuSans-30" x="95.410156"/>
     <use xlink:href="#DejaVuSans-30" x="159.033203"/>
    </g>
   </g>
   <g id="text_7">
    <!-- 2.00 -->
    <g style="fill: #ffffff" transform="translate(30.267187 61.619375) scale(0.1 -0.1)">
     <use xlink:href="#DejaVuSans-32"/>
     <use xlink:href="#DejaVuSans-2e" x="63.623047"/>
     <use xlink:href="#DejaVuSans-30" x="95.410156"/>
     <use xlink:href="#DejaVuSans-30" x="159.033203"/>
    </g>
   </g>
   <g id="text_8">
    <!-- 2.00 -->
    <g style="fill: #ffffff" transform="translate(57.987188 61.619375) scale(0.1 -0.1)">
     <use xlink:href="#DejaVuSans-32"/>
     <use xlink:href="#DejaVuSans-2e" x="63.623047"/>
     <use xlink:href="#DejaVuSans-30" x="95.410156"/>
     <use xlink:href="#DejaVuSans-30" x="159.033203"/>
    </g>
   </g>
   <g id="text_9">
    <!-- 2.00 -->
    <g style="fill: #ffffff" transform="translate(85.707188 61.619375) scale(0.1 -0.1)">
     <use xlink:href="#DejaVuSans-32"/>
     <use xlink:href="#DejaVuSans-2e" x="63.623047"/>
     <use xlink:href="#DejaVuSans-30" x="95.410156"/>
     <use xlink:href="#DejaVuSans-30" x="159.033203"/>
    </g>
   </g>
   <g id="text_10">
    <!-- 2.00 -->
    <g style="fill: #ffffff" transform="translate(113.427188 61.619375) scale(0.1 -0.1)">
     <use xlink:href="#DejaVuSans-32"/>
     <use xlink:href="#DejaVuSans-2e" x="63.623047"/>
     <use xlink:href="#DejaVuSans-30" x="95.410156"/>
     <use xlink:href="#DejaVuSans-30" x="159.033203"/>
    </g>
   </g>
   <g id="text_11">
    <!-- 2.00 -->
    <g style="fill: #ffffff" transform="translate(141.147188 61.619375) scale(0.1 -0.1)">
     <use xlink:href="#DejaVuSans-32"/>
     <use xlink:href="#DejaVuSans-2e" x="63.623047"/>
     <use xlink:href="#DejaVuSans-30" x="95.410156"/>
     <use xlink:href="#DejaVuSans-30" x="159.033203"/>
    </g>
   </g>
   <g id="text_12">
    <!-- 2.00 -->
    <g style="fill: #ffffff" transform="translate(168.867187 61.619375) scale(0.1 -0.1)">
     <use xlink:href="#DejaVuSans-32"/>
     <use xlink:href="#DejaVuSans-2e" x="63.623047"/>
     <use xlink:href="#DejaVuSans-30" x="95.410156"/>
     <use xlink:href="#DejaVuSans-30" x="159.033203"/>
    </g>
   </g>
   <g id="text_13">
    <!-- 2.00 -->
    <g style="fill: #ffffff" transform="translate(30.267187 89.339375) scale(0.1 -0.1)">
     <use xlink:href="#DejaVuSans-32"/>
     <use xlink:href="#DejaVuSans-2e" x="63.623047"/>
     <use xlink:href="#DejaVuSans-30" x="95.410156"/>
     <use xlink:href="#DejaVuSans-30" x="159.033203"/>
    </g>
   </g>
   <g id="text_14">
    <!-- 2.00 -->
    <g style="fill: #ffffff" transform="translate(57.987188 89.339375) scale(0.1 -0.1)">
     <use xlink:href="#DejaVuSans-32"/>
     <use xlink:href="#DejaVuSans-2e" x="63.623047"/>
     <use xlink:href="#DejaVuSans-30" x="95.410156"/>
     <use xlink:href="#DejaVuSans-30" x="159.033203"/>
    </g>
   </g>
   <g id="text_15">
    <!-- 2.00 -->
    <g style="fill: #ffffff" transform="translate(85.707188 89.339375) scale(0.1 -0.1)">
     <use xlink:href="#DejaVuSans-32"/>
     <use xlink:href="#DejaVuSans-2e" x="63.623047"/>
     <use xlink:href="#DejaVuSans-30" x="95.410156"/>
     <use xlink:href="#DejaVuSans-30" x="159.033203"/>
    </g>
   </g>
   <g id="text_16">
    <!-- 2.00 -->
    <g style="fill: #ffffff" transform="translate(113.427188 89.339375) scale(0.1 -0.1)">
     <use xlink:href="#DejaVuSans-32"/>
     <use xlink:href="#DejaVuSans-2e" x="63.623047"/>
     <use xlink:href="#DejaVuSans-30" x="95.410156"/>
     <use xlink:href="#DejaVuSans-30" x="159.033203"/>
    </g>
   </g>
   <g id="text_17">
    <!-- 2.00 -->
    <g style="fill: #ffffff" transform="translate(141.147188 89.339375) scale(0.1 -0.1)">
     <use xlink:href="#DejaVuSans-32"/>
     <use xlink:href="#DejaVuSans-2e" x="63.623047"/>
     <use xlink:href="#DejaVuSans-30" x="95.410156"/>
     <use xlink:href="#DejaVuSans-30" x="159.033203"/>
    </g>
   </g>
   <g id="text_18">
    <!-- 2.00 -->
    <g style="fill: #ffffff" transform="translate(168.867187 89.339375) scale(0.1 -0.1)">
     <use xlink:href="#DejaVuSans-32"/>
     <use xlink:href="#DejaVuSans-2e" x="63.623047"/>
     <use xlink:href="#DejaVuSans-30" x="95.410156"/>
     <use xlink:href="#DejaVuSans-30" x="159.033203"/>
    </g>
   </g>
   <g id="text_19">
    <!-- 2.00 -->
    <g style="fill: #ffffff" transform="translate(30.267187 117.059375) scale(0.1 -0.1)">
     <use xlink:href="#DejaVuSans-32"/>
     <use xlink:href="#DejaVuSans-2e" x="63.623047"/>
     <use xlink:href="#DejaVuSans-30" x="95.410156"/>
     <use xlink:href="#DejaVuSans-30" x="159.033203"/>
    </g>
   </g>
   <g id="text_20">
    <!-- 2.00 -->
    <g style="fill: #ffffff" transform="translate(57.987188 117.059375) scale(0.1 -0.1)">
     <use xlink:href="#DejaVuSans-32"/>
     <use xlink:href="#DejaVuSans-2e" x="63.623047"/>
     <use xlink:href="#DejaVuSans-30" x="95.410156"/>
     <use xlink:href="#DejaVuSans-30" x="159.033203"/>
    </g>
   </g>
   <g id="text_21">
    <!-- 2.00 -->
    <g style="fill: #ffffff" transform="translate(85.707188 117.059375) scale(0.1 -0.1)">
     <use xlink:href="#DejaVuSans-32"/>
     <use xlink:href="#DejaVuSans-2e" x="63.623047"/>
     <use xlink:href="#DejaVuSans-30" x="95.410156"/>
     <use xlink:href="#DejaVuSans-30" x="159.033203"/>
    </g>
   </g>
   <g id="text_22">
    <!-- 2.00 -->
    <g style="fill: #ffffff" transform="translate(113.427188 117.059375) scale(0.1 -0.1)">
     <use xlink:href="#DejaVuSans-32"/>
     <use xlink:href="#DejaVuSans-2e" x="63.623047"/>
     <use xlink:href="#DejaVuSans-30" x="95.410156"/>
     <use xlink:href="#DejaVuSans-30" x="159.033203"/>
    </g>
   </g>
   <g id="text_23">
    <!-- 2.00 -->
    <g style="fill: #ffffff" transform="translate(141.147188 117.059375) scale(0.1 -0.1)">
     <use xlink:href="#DejaVuSans-32"/>
     <use xlink:href="#DejaVuSans-2e" x="63.623047"/>
     <use xlink:href="#DejaVuSans-30" x="95.410156"/>
     <use xlink:href="#DejaVuSans-30" x="159.033203"/>
    </g>
   </g>
   <g id="text_24">
    <!-- 2.00 -->
    <g style="fill: #ffffff" transform="translate(168.867187 117.059375) scale(0.1 -0.1)">
     <use xlink:href="#DejaVuSans-32"/>
     <use xlink:href="#DejaVuSans-2e" x="63.623047"/>
     <use xlink:href="#DejaVuSans-30" x="95.410156"/>
     <use xlink:href="#DejaVuSans-30" x="159.033203"/>
    </g>
   </g>
  </g>
 </g>
 <defs>
  <clipPath id="p435dd3c3fa">
   <rect x="27.54" y="17.28" width="166.32" height="110.88"/>
  </clipPath>
 </defs>
</svg>
